<?xml version="1.0" encoding="utf-8" standalone="no"?>
<!DOCTYPE svg PUBLIC "-//W3C//DTD SVG 1.1//EN"
  "http://www.w3.org/Graphics/SVG/1.1/DTD/svg11.dtd">
<svg xmlns:xlink="http://www.w3.org/1999/xlink" width="648pt" height="417.6pt" viewBox="0 0 648 417.6" xmlns="http://www.w3.org/2000/svg" version="1.1">
 <metadata>
  <rdf:RDF xmlns:dc="http://purl.org/dc/elements/1.1/" xmlns:cc="http://creativecommons.org/ns#" xmlns:rdf="http://www.w3.org/1999/02/22-rdf-syntax-ns#">
   <cc:Work>
    <dc:type rdf:resource="http://purl.org/dc/dcmitype/StillImage"/>
    <dc:date>2026-04-06T16:17:54.994631</dc:date>
    <dc:format>image/svg+xml</dc:format>
    <dc:creator>
     <cc:Agent>
      <dc:title>Matplotlib v3.10.3, https://matplotlib.org/</dc:title>
     </cc:Agent>
    </dc:creator>
   </cc:Work>
  </rdf:RDF>
 </metadata>
 <defs>
  <style type="text/css">*{stroke-linejoin: round; stroke-linecap: butt}</style>
 </defs>
 <g id="figure_1">
  <g id="patch_1">
   <path d="M 0 417.6 
L 648 417.6 
L 648 0 
L 0 0 
z
" style="fill: #ffffff"/>
  </g>
  <g id="axes_1">
   <g id="patch_2">
    <path d="M 38.27 375.64 
L 627.615 375.64 
L 627.615 26.16 
L 38.27 26.16 
z
" style="fill: #ffffff"/>
   </g>
   <g id="matplotlib.axis_1">
    <g id="xtick_1">
     <g id="line2d_1">
      <path d="M 91.846818 375.64 
L 91.846818 26.16 
" clip-path="url(#pb33cdb27ac)" style="fill: none; stroke: #b0b0b0; stroke-opacity: 0.25; stroke-width: 0.8; stroke-linecap: square"/>
     </g>
     <g id="line2d_2">
      <defs>
       <path id="m386e8588e6" d="M 0 0 
L 0 3.5 
" style="stroke: #000000; stroke-width: 0.8"/>
      </defs>
      <g>
       <use xlink:href="#m386e8588e6" x="91.846818" y="375.64" style="stroke: #000000; stroke-width: 0.8"/>
      </g>
     </g>
     <g id="text_1">
      <!-- 0 -->
      <g transform="translate(88.665568 390.238437) scale(0.1 -0.1)">
       <defs>
        <path id="DejaVuSans-30" d="M 2034 4250 
Q 1547 4250 1301 3770 
Q 1056 3291 1056 2328 
Q 1056 1369 1301 889 
Q 1547 409 2034 409 
Q 2525 409 2770 889 
Q 3016 1369 3016 2328 
Q 3016 3291 2770 3770 
Q 2525 4250 2034 4250 
z
M 2034 4750 
Q 2819 4750 3233 4129 
Q 3647 3509 3647 2328 
Q 3647 1150 3233 529 
Q 2819 -91 2034 -91 
Q 1250 -91 836 529 
Q 422 1150 422 2328 
Q 422 3509 836 4129 
Q 1250 4750 2034 4750 
z
" transform="scale(0.015625)"/>
       </defs>
       <use xlink:href="#DejaVuSans-30"/>
      </g>
     </g>
    </g>
    <g id="xtick_2">
     <g id="line2d_3">
      <path d="M 181.141515 375.64 
L 181.141515 26.16 
" clip-path="url(#pb33cdb27ac)" style="fill: none; stroke: #b0b0b0; stroke-opacity: 0.25; stroke-width: 0.8; stroke-linecap: square"/>
     </g>
     <g id="line2d_4">
      <g>
       <use xlink:href="#m386e8588e6" x="181.141515" y="375.64" style="stroke: #000000; stroke-width: 0.8"/>
      </g>
     </g>
     <g id="text_2">
      <!-- 50 -->
      <g transform="translate(174.779015 390.238437) scale(0.1 -0.1)">
       <defs>
        <path id="DejaVuSans-35" d="M 691 4666 
L 3169 4666 
L 3169 4134 
L 1269 4134 
L 1269 2991 
Q 1406 3038 1543 3061 
Q 1681 3084 1819 3084 
Q 2600 3084 3056 2656 
Q 3513 2228 3513 1497 
Q 3513 744 3044 326 
Q 2575 -91 1722 -91 
Q 1428 -91 1123 -41 
Q 819 9 494 109 
L 494 744 
Q 775 591 1075 516 
Q 1375 441 1709 441 
Q 2250 441 2565 725 
Q 2881 1009 2881 1497 
Q 2881 1984 2565 2268 
Q 2250 2553 1709 2553 
Q 1456 2553 1204 2497 
Q 953 2441 691 2322 
L 691 4666 
z
" transform="scale(0.015625)"/>
       </defs>
       <use xlink:href="#DejaVuSans-35"/>
       <use xlink:href="#DejaVuSans-30" transform="translate(63.623047 0)"/>
      </g>
     </g>
    </g>
    <g id="xtick_3">
     <g id="line2d_5">
      <path d="M 270.436212 375.64 
L 270.436212 26.16 
" clip-path="url(#pb33cdb27ac)" style="fill: none; stroke: #b0b0b0; stroke-opacity: 0.25; stroke-width: 0.8; stroke-linecap: square"/>
     </g>
     <g id="line2d_6">
      <g>
       <use xlink:href="#m386e8588e6" x="270.436212" y="375.64" style="stroke: #000000; stroke-width: 0.8"/>
      </g>
     </g>
     <g id="text_3">
      <!-- 100 -->
      <g transform="translate(260.892462 390.238437) scale(0.1 -0.1)">
       <defs>
        <path id="DejaVuSans-31" d="M 794 531 
L 1825 531 
L 1825 4091 
L 703 3866 
L 703 4441 
L 1819 4666 
L 2450 4666 
L 2450 531 
L 3481 531 
L 3481 0 
L 794 0 
L 794 531 
z
" transform="scale(0.015625)"/>
       </defs>
       <use xlink:href="#DejaVuSans-31"/>
       <use xlink:href="#DejaVuSans-30" transform="translate(63.623047 0)"/>
       <use xlink:href="#DejaVuSans-30" transform="translate(127.246094 0)"/>
      </g>
     </g>
    </g>
    <g id="xtick_4">
     <g id="line2d_7">
      <path d="M 359.730909 375.64 
L 359.730909 26.16 
" clip-path="url(#pb33cdb27ac)" style="fill: none; stroke: #b0b0b0; stroke-opacity: 0.25; stroke-width: 0.8; stroke-linecap: square"/>
     </g>
     <g id="line2d_8">
      <g>
       <use xlink:href="#m386e8588e6" x="359.730909" y="375.64" style="stroke: #000000; stroke-width: 0.8"/>
      </g>
     </g>
     <g id="text_4">
      <!-- 150 -->
      <g transform="translate(350.187159 390.238437) scale(0.1 -0.1)">
       <use xlink:href="#DejaVuSans-31"/>
       <use xlink:href="#DejaVuSans-35" transform="translate(63.623047 0)"/>
       <use xlink:href="#DejaVuSans-30" transform="translate(127.246094 0)"/>
      </g>
     </g>
    </g>
    <g id="xtick_5">
     <g id="line2d_9">
      <path d="M 449.025606 375.64 
L 449.025606 26.16 
" clip-path="url(#pb33cdb27ac)" style="fill: none; stroke: #b0b0b0; stroke-opacity: 0.25; stroke-width: 0.8; stroke-linecap: square"/>
     </g>
     <g id="line2d_10">
      <g>
       <use xlink:href="#m386e8588e6" x="449.025606" y="375.64" style="stroke: #000000; stroke-width: 0.8"/>
      </g>
     </g>
     <g id="text_5">
      <!-- 200 -->
      <g transform="translate(439.481856 390.238437) scale(0.1 -0.1)">
       <defs>
        <path id="DejaVuSans-32" d="M 1228 531 
L 3431 531 
L 3431 0 
L 469 0 
L 469 531 
Q 828 903 1448 1529 
Q 2069 2156 2228 2338 
Q 2531 2678 2651 2914 
Q 2772 3150 2772 3378 
Q 2772 3750 2511 3984 
Q 2250 4219 1831 4219 
Q 1534 4219 1204 4116 
Q 875 4013 500 3803 
L 500 4441 
Q 881 4594 1212 4672 
Q 1544 4750 1819 4750 
Q 2544 4750 2975 4387 
Q 3406 4025 3406 3419 
Q 3406 3131 3298 2873 
Q 3191 2616 2906 2266 
Q 2828 2175 2409 1742 
Q 1991 1309 1228 531 
z
" transform="scale(0.015625)"/>
       </defs>
       <use xlink:href="#DejaVuSans-32"/>
       <use xlink:href="#DejaVuSans-30" transform="translate(63.623047 0)"/>
       <use xlink:href="#DejaVuSans-30" transform="translate(127.246094 0)"/>
      </g>
     </g>
    </g>
    <g id="xtick_6">
     <g id="line2d_11">
      <path d="M 538.320303 375.64 
L 538.320303 26.16 
" clip-path="url(#pb33cdb27ac)" style="fill: none; stroke: #b0b0b0; stroke-opacity: 0.25; stroke-width: 0.8; stroke-linecap: square"/>
     </g>
     <g id="line2d_12">
      <g>
       <use xlink:href="#m386e8588e6" x="538.320303" y="375.64" style="stroke: #000000; stroke-width: 0.8"/>
      </g>
     </g>
     <g id="text_6">
      <!-- 250 -->
      <g transform="translate(528.776553 390.238437) scale(0.1 -0.1)">
       <use xlink:href="#DejaVuSans-32"/>
       <use xlink:href="#DejaVuSans-35" transform="translate(63.623047 0)"/>
       <use xlink:href="#DejaVuSans-30" transform="translate(127.246094 0)"/>
      </g>
     </g>
    </g>
    <g id="xtick_7">
     <g id="line2d_13">
      <path d="M 627.615 375.64 
L 627.615 26.16 
" clip-path="url(#pb33cdb27ac)" style="fill: none; stroke: #b0b0b0; stroke-opacity: 0.25; stroke-width: 0.8; stroke-linecap: square"/>
     </g>
     <g id="line2d_14">
      <g>
       <use xlink:href="#m386e8588e6" x="627.615" y="375.64" style="stroke: #000000; stroke-width: 0.8"/>
      </g>
     </g>
     <g id="text_7">
      <!-- 300 -->
      <g transform="translate(618.07125 390.238437) scale(0.1 -0.1)">
       <defs>
        <path id="DejaVuSans-33" d="M 2597 2516 
Q 3050 2419 3304 2112 
Q 3559 1806 3559 1356 
Q 3559 666 3084 287 
Q 2609 -91 1734 -91 
Q 1441 -91 1130 -33 
Q 819 25 488 141 
L 488 750 
Q 750 597 1062 519 
Q 1375 441 1716 441 
Q 2309 441 2620 675 
Q 2931 909 2931 1356 
Q 2931 1769 2642 2001 
Q 2353 2234 1838 2234 
L 1294 2234 
L 1294 2753 
L 1863 2753 
Q 2328 2753 2575 2939 
Q 2822 3125 2822 3475 
Q 2822 3834 2567 4026 
Q 2313 4219 1838 4219 
Q 1578 4219 1281 4162 
Q 984 4106 628 3988 
L 628 4550 
Q 988 4650 1302 4700 
Q 1616 4750 1894 4750 
Q 2613 4750 3031 4423 
Q 3450 4097 3450 3541 
Q 3450 3153 3228 2886 
Q 3006 2619 2597 2516 
z
" transform="scale(0.015625)"/>
       </defs>
       <use xlink:href="#DejaVuSans-33"/>
       <use xlink:href="#DejaVuSans-30" transform="translate(63.623047 0)"/>
       <use xlink:href="#DejaVuSans-30" transform="translate(127.246094 0)"/>
      </g>
     </g>
    </g>
    <g id="text_8">
     <!-- Days relative to rainfall -->
     <g transform="translate(274.540156 403.916562) scale(0.1 -0.1)">
      <defs>
       <path id="DejaVuSans-44" d="M 1259 4147 
L 1259 519 
L 2022 519 
Q 2988 519 3436 956 
Q 3884 1394 3884 2338 
Q 3884 3275 3436 3711 
Q 2988 4147 2022 4147 
L 1259 4147 
z
M 628 4666 
L 1925 4666 
Q 3281 4666 3915 4102 
Q 4550 3538 4550 2338 
Q 4550 1131 3912 565 
Q 3275 0 1925 0 
L 628 0 
L 628 4666 
z
" transform="scale(0.015625)"/>
       <path id="DejaVuSans-61" d="M 2194 1759 
Q 1497 1759 1228 1600 
Q 959 1441 959 1056 
Q 959 750 1161 570 
Q 1363 391 1709 391 
Q 2188 391 2477 730 
Q 2766 1069 2766 1631 
L 2766 1759 
L 2194 1759 
z
M 3341 1997 
L 3341 0 
L 2766 0 
L 2766 531 
Q 2569 213 2275 61 
Q 1981 -91 1556 -91 
Q 1019 -91 701 211 
Q 384 513 384 1019 
Q 384 1609 779 1909 
Q 1175 2209 1959 2209 
L 2766 2209 
L 2766 2266 
Q 2766 2663 2505 2880 
Q 2244 3097 1772 3097 
Q 1472 3097 1187 3025 
Q 903 2953 641 2809 
L 641 3341 
Q 956 3463 1253 3523 
Q 1550 3584 1831 3584 
Q 2591 3584 2966 3190 
Q 3341 2797 3341 1997 
z
" transform="scale(0.015625)"/>
       <path id="DejaVuSans-79" d="M 2059 -325 
Q 1816 -950 1584 -1140 
Q 1353 -1331 966 -1331 
L 506 -1331 
L 506 -850 
L 844 -850 
Q 1081 -850 1212 -737 
Q 1344 -625 1503 -206 
L 1606 56 
L 191 3500 
L 800 3500 
L 1894 763 
L 2988 3500 
L 3597 3500 
L 2059 -325 
z
" transform="scale(0.015625)"/>
       <path id="DejaVuSans-73" d="M 2834 3397 
L 2834 2853 
Q 2591 2978 2328 3040 
Q 2066 3103 1784 3103 
Q 1356 3103 1142 2972 
Q 928 2841 928 2578 
Q 928 2378 1081 2264 
Q 1234 2150 1697 2047 
L 1894 2003 
Q 2506 1872 2764 1633 
Q 3022 1394 3022 966 
Q 3022 478 2636 193 
Q 2250 -91 1575 -91 
Q 1294 -91 989 -36 
Q 684 19 347 128 
L 347 722 
Q 666 556 975 473 
Q 1284 391 1588 391 
Q 1994 391 2212 530 
Q 2431 669 2431 922 
Q 2431 1156 2273 1281 
Q 2116 1406 1581 1522 
L 1381 1569 
Q 847 1681 609 1914 
Q 372 2147 372 2553 
Q 372 3047 722 3315 
Q 1072 3584 1716 3584 
Q 2034 3584 2315 3537 
Q 2597 3491 2834 3397 
z
" transform="scale(0.015625)"/>
       <path id="DejaVuSans-20" transform="scale(0.015625)"/>
       <path id="DejaVuSans-72" d="M 2631 2963 
Q 2534 3019 2420 3045 
Q 2306 3072 2169 3072 
Q 1681 3072 1420 2755 
Q 1159 2438 1159 1844 
L 1159 0 
L 581 0 
L 581 3500 
L 1159 3500 
L 1159 2956 
Q 1341 3275 1631 3429 
Q 1922 3584 2338 3584 
Q 2397 3584 2469 3576 
Q 2541 3569 2628 3553 
L 2631 2963 
z
" transform="scale(0.015625)"/>
       <path id="DejaVuSans-65" d="M 3597 1894 
L 3597 1613 
L 953 1613 
Q 991 1019 1311 708 
Q 1631 397 2203 397 
Q 2534 397 2845 478 
Q 3156 559 3463 722 
L 3463 178 
Q 3153 47 2828 -22 
Q 2503 -91 2169 -91 
Q 1331 -91 842 396 
Q 353 884 353 1716 
Q 353 2575 817 3079 
Q 1281 3584 2069 3584 
Q 2775 3584 3186 3129 
Q 3597 2675 3597 1894 
z
M 3022 2063 
Q 3016 2534 2758 2815 
Q 2500 3097 2075 3097 
Q 1594 3097 1305 2825 
Q 1016 2553 972 2059 
L 3022 2063 
z
" transform="scale(0.015625)"/>
       <path id="DejaVuSans-6c" d="M 603 4863 
L 1178 4863 
L 1178 0 
L 603 0 
L 603 4863 
z
" transform="scale(0.015625)"/>
       <path id="DejaVuSans-74" d="M 1172 4494 
L 1172 3500 
L 2356 3500 
L 2356 3053 
L 1172 3053 
L 1172 1153 
Q 1172 725 1289 603 
Q 1406 481 1766 481 
L 2356 481 
L 2356 0 
L 1766 0 
Q 1100 0 847 248 
Q 594 497 594 1153 
L 594 3053 
L 172 3053 
L 172 3500 
L 594 3500 
L 594 4494 
L 1172 4494 
z
" transform="scale(0.015625)"/>
       <path id="DejaVuSans-69" d="M 603 3500 
L 1178 3500 
L 1178 0 
L 603 0 
L 603 3500 
z
M 603 4863 
L 1178 4863 
L 1178 4134 
L 603 4134 
L 603 4863 
z
" transform="scale(0.015625)"/>
       <path id="DejaVuSans-76" d="M 191 3500 
L 800 3500 
L 1894 563 
L 2988 3500 
L 3597 3500 
L 2284 0 
L 1503 0 
L 191 3500 
z
" transform="scale(0.015625)"/>
       <path id="DejaVuSans-6f" d="M 1959 3097 
Q 1497 3097 1228 2736 
Q 959 2375 959 1747 
Q 959 1119 1226 758 
Q 1494 397 1959 397 
Q 2419 397 2687 759 
Q 2956 1122 2956 1747 
Q 2956 2369 2687 2733 
Q 2419 3097 1959 3097 
z
M 1959 3584 
Q 2709 3584 3137 3096 
Q 3566 2609 3566 1747 
Q 3566 888 3137 398 
Q 2709 -91 1959 -91 
Q 1206 -91 779 398 
Q 353 888 353 1747 
Q 353 2609 779 3096 
Q 1206 3584 1959 3584 
z
" transform="scale(0.015625)"/>
       <path id="DejaVuSans-6e" d="M 3513 2113 
L 3513 0 
L 2938 0 
L 2938 2094 
Q 2938 2591 2744 2837 
Q 2550 3084 2163 3084 
Q 1697 3084 1428 2787 
Q 1159 2491 1159 1978 
L 1159 0 
L 581 0 
L 581 3500 
L 1159 3500 
L 1159 2956 
Q 1366 3272 1645 3428 
Q 1925 3584 2291 3584 
Q 2894 3584 3203 3211 
Q 3513 2838 3513 2113 
z
" transform="scale(0.015625)"/>
       <path id="DejaVuSans-66" d="M 2375 4863 
L 2375 4384 
L 1825 4384 
Q 1516 4384 1395 4259 
Q 1275 4134 1275 3809 
L 1275 3500 
L 2222 3500 
L 2222 3053 
L 1275 3053 
L 1275 0 
L 697 0 
L 697 3053 
L 147 3053 
L 147 3500 
L 697 3500 
L 697 3744 
Q 697 4328 969 4595 
Q 1241 4863 1831 4863 
L 2375 4863 
z
" transform="scale(0.015625)"/>
      </defs>
      <use xlink:href="#DejaVuSans-44"/>
      <use xlink:href="#DejaVuSans-61" transform="translate(77.001953 0)"/>
      <use xlink:href="#DejaVuSans-79" transform="translate(138.28125 0)"/>
      <use xlink:href="#DejaVuSans-73" transform="translate(197.460938 0)"/>
      <use xlink:href="#DejaVuSans-20" transform="translate(249.560547 0)"/>
      <use xlink:href="#DejaVuSans-72" transform="translate(281.347656 0)"/>
      <use xlink:href="#DejaVuSans-65" transform="translate(320.210938 0)"/>
      <use xlink:href="#DejaVuSans-6c" transform="translate(381.734375 0)"/>
      <use xlink:href="#DejaVuSans-61" transform="translate(409.517578 0)"/>
      <use xlink:href="#DejaVuSans-74" transform="translate(470.796875 0)"/>
      <use xlink:href="#DejaVuSans-69" transform="translate(510.005859 0)"/>
      <use xlink:href="#DejaVuSans-76" transform="translate(537.789062 0)"/>
      <use xlink:href="#DejaVuSans-65" transform="translate(596.96875 0)"/>
      <use xlink:href="#DejaVuSans-20" transform="translate(658.492188 0)"/>
      <use xlink:href="#DejaVuSans-74" transform="translate(690.279297 0)"/>
      <use xlink:href="#DejaVuSans-6f" transform="translate(729.488281 0)"/>
      <use xlink:href="#DejaVuSans-20" transform="translate(790.669922 0)"/>
      <use xlink:href="#DejaVuSans-72" transform="translate(822.457031 0)"/>
      <use xlink:href="#DejaVuSans-61" transform="translate(863.570312 0)"/>
      <use xlink:href="#DejaVuSans-69" transform="translate(924.849609 0)"/>
      <use xlink:href="#DejaVuSans-6e" transform="translate(952.632812 0)"/>
      <use xlink:href="#DejaVuSans-66" transform="translate(1016.011719 0)"/>
      <use xlink:href="#DejaVuSans-61" transform="translate(1051.216797 0)"/>
      <use xlink:href="#DejaVuSans-6c" transform="translate(1112.496094 0)"/>
      <use xlink:href="#DejaVuSans-6c" transform="translate(1140.279297 0)"/>
     </g>
    </g>
   </g>
   <g id="matplotlib.axis_2">
    <g id="ytick_1">
     <g id="line2d_15">
      <path d="M 38.27 375.64 
L 627.615 375.64 
" clip-path="url(#pb33cdb27ac)" style="fill: none; stroke: #b0b0b0; stroke-opacity: 0.25; stroke-width: 0.8; stroke-linecap: square"/>
     </g>
     <g id="line2d_16">
      <defs>
       <path id="md8e98d69ce" d="M 0 0 
L -3.5 0 
" style="stroke: #000000; stroke-width: 0.8"/>
      </defs>
      <g>
       <use xlink:href="#md8e98d69ce" x="38.27" y="375.64" style="stroke: #000000; stroke-width: 0.8"/>
      </g>
     </g>
     <g id="text_9">
      <!-- 0 -->
      <g transform="translate(24.9075 379.439219) scale(0.1 -0.1)">
       <use xlink:href="#DejaVuSans-30"/>
      </g>
     </g>
    </g>
    <g id="ytick_2">
     <g id="line2d_17">
      <path d="M 38.27 305.744 
L 627.615 305.744 
" clip-path="url(#pb33cdb27ac)" style="fill: none; stroke: #b0b0b0; stroke-opacity: 0.25; stroke-width: 0.8; stroke-linecap: square"/>
     </g>
     <g id="line2d_18">
      <g>
       <use xlink:href="#md8e98d69ce" x="38.27" y="305.744" style="stroke: #000000; stroke-width: 0.8"/>
      </g>
     </g>
     <g id="text_10">
      <!-- 1 -->
      <g transform="translate(24.9075 309.543219) scale(0.1 -0.1)">
       <use xlink:href="#DejaVuSans-31"/>
      </g>
     </g>
    </g>
    <g id="ytick_3">
     <g id="line2d_19">
      <path d="M 38.27 235.848 
L 627.615 235.848 
" clip-path="url(#pb33cdb27ac)" style="fill: none; stroke: #b0b0b0; stroke-opacity: 0.25; stroke-width: 0.8; stroke-linecap: square"/>
     </g>
     <g id="line2d_20">
      <g>
       <use xlink:href="#md8e98d69ce" x="38.27" y="235.848" style="stroke: #000000; stroke-width: 0.8"/>
      </g>
     </g>
     <g id="text_11">
      <!-- 2 -->
      <g transform="translate(24.9075 239.647219) scale(0.1 -0.1)">
       <use xlink:href="#DejaVuSans-32"/>
      </g>
     </g>
    </g>
    <g id="ytick_4">
     <g id="line2d_21">
      <path d="M 38.27 165.952 
L 627.615 165.952 
" clip-path="url(#pb33cdb27ac)" style="fill: none; stroke: #b0b0b0; stroke-opacity: 0.25; stroke-width: 0.8; stroke-linecap: square"/>
     </g>
     <g id="line2d_22">
      <g>
       <use xlink:href="#md8e98d69ce" x="38.27" y="165.952" style="stroke: #000000; stroke-width: 0.8"/>
      </g>
     </g>
     <g id="text_12">
      <!-- 3 -->
      <g transform="translate(24.9075 169.751219) scale(0.1 -0.1)">
       <use xlink:href="#DejaVuSans-33"/>
      </g>
     </g>
    </g>
    <g id="ytick_5">
     <g id="line2d_23">
      <path d="M 38.27 96.056 
L 627.615 96.056 
" clip-path="url(#pb33cdb27ac)" style="fill: none; stroke: #b0b0b0; stroke-opacity: 0.25; stroke-width: 0.8; stroke-linecap: square"/>
     </g>
     <g id="line2d_24">
      <g>
       <use xlink:href="#md8e98d69ce" x="38.27" y="96.056" style="stroke: #000000; stroke-width: 0.8"/>
      </g>
     </g>
     <g id="text_13">
      <!-- 4 -->
      <g transform="translate(24.9075 99.855219) scale(0.1 -0.1)">
       <defs>
        <path id="DejaVuSans-34" d="M 2419 4116 
L 825 1625 
L 2419 1625 
L 2419 4116 
z
M 2253 4666 
L 3047 4666 
L 3047 1625 
L 3713 1625 
L 3713 1100 
L 3047 1100 
L 3047 0 
L 2419 0 
L 2419 1100 
L 313 1100 
L 313 1709 
L 2253 4666 
z
" transform="scale(0.015625)"/>
       </defs>
       <use xlink:href="#DejaVuSans-34"/>
      </g>
     </g>
    </g>
    <g id="ytick_6">
     <g id="line2d_25">
      <path d="M 38.27 26.16 
L 627.615 26.16 
" clip-path="url(#pb33cdb27ac)" style="fill: none; stroke: #b0b0b0; stroke-opacity: 0.25; stroke-width: 0.8; stroke-linecap: square"/>
     </g>
     <g id="line2d_26">
      <g>
       <use xlink:href="#md8e98d69ce" x="38.27" y="26.16" style="stroke: #000000; stroke-width: 0.8"/>
      </g>
     </g>
     <g id="text_14">
      <!-- 5 -->
      <g transform="translate(24.9075 29.959219) scale(0.1 -0.1)">
       <use xlink:href="#DejaVuSans-35"/>
      </g>
     </g>
    </g>
    <g id="text_15">
     <!-- Distance normal to fault (km) -->
     <g transform="translate(18.827813 274.667187) rotate(-90) scale(0.1 -0.1)">
      <defs>
       <path id="DejaVuSans-63" d="M 3122 3366 
L 3122 2828 
Q 2878 2963 2633 3030 
Q 2388 3097 2138 3097 
Q 1578 3097 1268 2742 
Q 959 2388 959 1747 
Q 959 1106 1268 751 
Q 1578 397 2138 397 
Q 2388 397 2633 464 
Q 2878 531 3122 666 
L 3122 134 
Q 2881 22 2623 -34 
Q 2366 -91 2075 -91 
Q 1284 -91 818 406 
Q 353 903 353 1747 
Q 353 2603 823 3093 
Q 1294 3584 2113 3584 
Q 2378 3584 2631 3529 
Q 2884 3475 3122 3366 
z
" transform="scale(0.015625)"/>
       <path id="DejaVuSans-6d" d="M 3328 2828 
Q 3544 3216 3844 3400 
Q 4144 3584 4550 3584 
Q 5097 3584 5394 3201 
Q 5691 2819 5691 2113 
L 5691 0 
L 5113 0 
L 5113 2094 
Q 5113 2597 4934 2840 
Q 4756 3084 4391 3084 
Q 3944 3084 3684 2787 
Q 3425 2491 3425 1978 
L 3425 0 
L 2847 0 
L 2847 2094 
Q 2847 2600 2669 2842 
Q 2491 3084 2119 3084 
Q 1678 3084 1418 2786 
Q 1159 2488 1159 1978 
L 1159 0 
L 581 0 
L 581 3500 
L 1159 3500 
L 1159 2956 
Q 1356 3278 1631 3431 
Q 1906 3584 2284 3584 
Q 2666 3584 2933 3390 
Q 3200 3197 3328 2828 
z
" transform="scale(0.015625)"/>
       <path id="DejaVuSans-75" d="M 544 1381 
L 544 3500 
L 1119 3500 
L 1119 1403 
Q 1119 906 1312 657 
Q 1506 409 1894 409 
Q 2359 409 2629 706 
Q 2900 1003 2900 1516 
L 2900 3500 
L 3475 3500 
L 3475 0 
L 2900 0 
L 2900 538 
Q 2691 219 2414 64 
Q 2138 -91 1772 -91 
Q 1169 -91 856 284 
Q 544 659 544 1381 
z
M 1991 3584 
L 1991 3584 
z
" transform="scale(0.015625)"/>
       <path id="DejaVuSans-28" d="M 1984 4856 
Q 1566 4138 1362 3434 
Q 1159 2731 1159 2009 
Q 1159 1288 1364 580 
Q 1569 -128 1984 -844 
L 1484 -844 
Q 1016 -109 783 600 
Q 550 1309 550 2009 
Q 550 2706 781 3412 
Q 1013 4119 1484 4856 
L 1984 4856 
z
" transform="scale(0.015625)"/>
       <path id="DejaVuSans-6b" d="M 581 4863 
L 1159 4863 
L 1159 1991 
L 2875 3500 
L 3609 3500 
L 1753 1863 
L 3688 0 
L 2938 0 
L 1159 1709 
L 1159 0 
L 581 0 
L 581 4863 
z
" transform="scale(0.015625)"/>
       <path id="DejaVuSans-29" d="M 513 4856 
L 1013 4856 
Q 1481 4119 1714 3412 
Q 1947 2706 1947 2009 
Q 1947 1309 1714 600 
Q 1481 -109 1013 -844 
L 513 -844 
Q 928 -128 1133 580 
Q 1338 1288 1338 2009 
Q 1338 2731 1133 3434 
Q 928 4138 513 4856 
z
" transform="scale(0.015625)"/>
      </defs>
      <use xlink:href="#DejaVuSans-44"/>
      <use xlink:href="#DejaVuSans-69" transform="translate(77.001953 0)"/>
      <use xlink:href="#DejaVuSans-73" transform="translate(104.785156 0)"/>
      <use xlink:href="#DejaVuSans-74" transform="translate(156.884766 0)"/>
      <use xlink:href="#DejaVuSans-61" transform="translate(196.09375 0)"/>
      <use xlink:href="#DejaVuSans-6e" transform="translate(257.373047 0)"/>
      <use xlink:href="#DejaVuSans-63" transform="translate(320.751953 0)"/>
      <use xlink:href="#DejaVuSans-65" transform="translate(375.732422 0)"/>
      <use xlink:href="#DejaVuSans-20" transform="translate(437.255859 0)"/>
      <use xlink:href="#DejaVuSans-6e" transform="translate(469.042969 0)"/>
      <use xlink:href="#DejaVuSans-6f" transform="translate(532.421875 0)"/>
      <use xlink:href="#DejaVuSans-72" transform="translate(593.603516 0)"/>
      <use xlink:href="#DejaVuSans-6d" transform="translate(632.966797 0)"/>
      <use xlink:href="#DejaVuSans-61" transform="translate(730.378906 0)"/>
      <use xlink:href="#DejaVuSans-6c" transform="translate(791.658203 0)"/>
      <use xlink:href="#DejaVuSans-20" transform="translate(819.441406 0)"/>
      <use xlink:href="#DejaVuSans-74" transform="translate(851.228516 0)"/>
      <use xlink:href="#DejaVuSans-6f" transform="translate(890.4375 0)"/>
      <use xlink:href="#DejaVuSans-20" transform="translate(951.619141 0)"/>
      <use xlink:href="#DejaVuSans-66" transform="translate(983.40625 0)"/>
      <use xlink:href="#DejaVuSans-61" transform="translate(1018.611328 0)"/>
      <use xlink:href="#DejaVuSans-75" transform="translate(1079.890625 0)"/>
      <use xlink:href="#DejaVuSans-6c" transform="translate(1143.269531 0)"/>
      <use xlink:href="#DejaVuSans-74" transform="translate(1171.052734 0)"/>
      <use xlink:href="#DejaVuSans-20" transform="translate(1210.261719 0)"/>
      <use xlink:href="#DejaVuSans-28" transform="translate(1242.048828 0)"/>
      <use xlink:href="#DejaVuSans-6b" transform="translate(1281.0625 0)"/>
      <use xlink:href="#DejaVuSans-6d" transform="translate(1338.972656 0)"/>
      <use xlink:href="#DejaVuSans-29" transform="translate(1436.384766 0)"/>
     </g>
    </g>
   </g>
   <g id="PathCollection_1">
    <defs>
     <path id="m78f787d1ba" d="M 0 2 
C 0.530406 2 1.03916 1.789267 1.414214 1.414214 
C 1.789267 1.03916 2 0.530406 2 0 
C 2 -0.530406 1.789267 -1.03916 1.414214 -1.414214 
C 1.03916 -1.789267 0.530406 -2 0 -2 
C -0.530406 -2 -1.03916 -1.789267 -1.414214 -1.414214 
C -1.789267 -1.03916 -2 -0.530406 -2 0 
C -2 0.530406 -1.789267 1.03916 -1.414214 1.414214 
C -1.03916 1.789267 -0.530406 2 0 2 
z
"/>
    </defs>
    <g clip-path="url(#pb33cdb27ac)">
     <use xlink:href="#m78f787d1ba" x="76.503398" y="336.815099" style="fill: #404040; fill-opacity: 0.75"/>
     <use xlink:href="#m78f787d1ba" x="84.437419" y="365.900721" style="fill: #404040; fill-opacity: 0.75"/>
     <use xlink:href="#m78f787d1ba" x="106.263934" y="361.147837" style="fill: #404040; fill-opacity: 0.75"/>
     <use xlink:href="#m78f787d1ba" x="115.633959" y="345.278445" style="fill: #404040; fill-opacity: 0.75"/>
     <use xlink:href="#m78f787d1ba" x="118.718163" y="371.6491" style="fill: #404040; fill-opacity: 0.75"/>
     <use xlink:href="#m78f787d1ba" x="122.814996" y="309.453709" style="fill: #404040; fill-opacity: 0.75"/>
     <use xlink:href="#m78f787d1ba" x="126.066575" y="355.699292" style="fill: #404040; fill-opacity: 0.75"/>
     <use xlink:href="#m78f787d1ba" x="126.41921" y="339.376421" style="fill: #404040; fill-opacity: 0.75"/>
     <use xlink:href="#m78f787d1ba" x="126.732726" y="359.767727" style="fill: #404040; fill-opacity: 0.75"/>
     <use xlink:href="#m78f787d1ba" x="126.822176" y="373.035895" style="fill: #404040; fill-opacity: 0.75"/>
     <use xlink:href="#m78f787d1ba" x="126.841133" y="369.966617" style="fill: #404040; fill-opacity: 0.75"/>
     <use xlink:href="#m78f787d1ba" x="126.976292" y="367.24382" style="fill: #404040; fill-opacity: 0.75"/>
     <use xlink:href="#m78f787d1ba" x="127.187868" y="333.314088" style="fill: #404040; fill-opacity: 0.75"/>
     <use xlink:href="#m78f787d1ba" x="127.83079" y="350.962745" style="fill: #404040; fill-opacity: 0.75"/>
     <use xlink:href="#m78f787d1ba" x="128.011107" y="319.300395" style="fill: #404040; fill-opacity: 0.75"/>
     <use xlink:href="#m78f787d1ba" x="128.091602" y="316.555034" style="fill: #404040; fill-opacity: 0.75"/>
     <use xlink:href="#m78f787d1ba" x="130.019548" y="375.442561" style="fill: #404040; fill-opacity: 0.75"/>
     <use xlink:href="#m78f787d1ba" x="131.227963" y="225.0674" style="fill: #404040; fill-opacity: 0.75"/>
     <use xlink:href="#m78f787d1ba" x="131.27305" y="329.746029" style="fill: #404040; fill-opacity: 0.75"/>
     <use xlink:href="#m78f787d1ba" x="131.537809" y="350.157157" style="fill: #404040; fill-opacity: 0.75"/>
     <use xlink:href="#m78f787d1ba" x="131.836231" y="343.329012" style="fill: #404040; fill-opacity: 0.75"/>
     <use xlink:href="#m78f787d1ba" x="132.024779" y="340.548356" style="fill: #404040; fill-opacity: 0.75"/>
     <use xlink:href="#m78f787d1ba" x="132.063994" y="207.085042" style="fill: #404040; fill-opacity: 0.75"/>
     <use xlink:href="#m78f787d1ba" x="132.278919" y="217.660099" style="fill: #404040; fill-opacity: 0.75"/>
     <use xlink:href="#m78f787d1ba" x="132.9352" y="307.234846" style="fill: #404040; fill-opacity: 0.75"/>
     <use xlink:href="#m78f787d1ba" x="133.064386" y="355.955055" style="fill: #404040; fill-opacity: 0.75"/>
     <use xlink:href="#m78f787d1ba" x="133.625475" y="363.712597" style="fill: #404040; fill-opacity: 0.75"/>
     <use xlink:href="#m78f787d1ba" x="133.857397" y="360.062851" style="fill: #404040; fill-opacity: 0.75"/>
     <use xlink:href="#m78f787d1ba" x="135.391497" y="366.463031" style="fill: #404040; fill-opacity: 0.75"/>
     <use xlink:href="#m78f787d1ba" x="140.471124" y="335.399206" style="fill: #404040; fill-opacity: 0.75"/>
     <use xlink:href="#m78f787d1ba" x="142.026287" y="367.506126" style="fill: #404040; fill-opacity: 0.75"/>
     <use xlink:href="#m78f787d1ba" x="142.038924" y="374.145572" style="fill: #404040; fill-opacity: 0.75"/>
     <use xlink:href="#m78f787d1ba" x="142.064588" y="351.226601" style="fill: #404040; fill-opacity: 0.75"/>
     <use xlink:href="#m78f787d1ba" x="142.13181" y="321.34096" style="fill: #404040; fill-opacity: 0.75"/>
     <use xlink:href="#m78f787d1ba" x="142.219204" y="318.664325" style="fill: #404040; fill-opacity: 0.75"/>
     <use xlink:href="#m78f787d1ba" x="142.315118" y="374.729462" style="fill: #404040; fill-opacity: 0.75"/>
     <use xlink:href="#m78f787d1ba" x="142.315402" y="368.730868" style="fill: #404040; fill-opacity: 0.75"/>
     <use xlink:href="#m78f787d1ba" x="142.352769" y="305.283192" style="fill: #404040; fill-opacity: 0.75"/>
     <use xlink:href="#m78f787d1ba" x="142.411139" y="293.84407" style="fill: #404040; fill-opacity: 0.75"/>
     <use xlink:href="#m78f787d1ba" x="142.518446" y="297.521918" style="fill: #404040; fill-opacity: 0.75"/>
     <use xlink:href="#m78f787d1ba" x="142.63635" y="345.257082" style="fill: #404040; fill-opacity: 0.75"/>
     <use xlink:href="#m78f787d1ba" x="142.668764" y="336.236119" style="fill: #404040; fill-opacity: 0.75"/>
     <use xlink:href="#m78f787d1ba" x="154.664575" y="368.322803" style="fill: #404040; fill-opacity: 0.75"/>
     <use xlink:href="#m78f787d1ba" x="154.700675" y="334.565241" style="fill: #404040; fill-opacity: 0.75"/>
     <use xlink:href="#m78f787d1ba" x="155.041222" y="283.645519" style="fill: #404040; fill-opacity: 0.75"/>
     <use xlink:href="#m78f787d1ba" x="182.021126" y="319.918337" style="fill: #404040; fill-opacity: 0.75"/>
     <use xlink:href="#m78f787d1ba" x="233.880818" y="336.587657" style="fill: #404040; fill-opacity: 0.75"/>
     <use xlink:href="#m78f787d1ba" x="233.916111" y="328.868985" style="fill: #404040; fill-opacity: 0.75"/>
     <use xlink:href="#m78f787d1ba" x="287.801257" y="366.860702" style="fill: #404040; fill-opacity: 0.75"/>
     <use xlink:href="#m78f787d1ba" x="303.949843" y="242.930698" style="fill: #404040; fill-opacity: 0.75"/>
     <use xlink:href="#m78f787d1ba" x="308.614458" y="238.427153" style="fill: #404040; fill-opacity: 0.75"/>
     <use xlink:href="#m78f787d1ba" x="308.622963" y="255.280431" style="fill: #404040; fill-opacity: 0.75"/>
     <use xlink:href="#m78f787d1ba" x="310.694292" y="272.681563" style="fill: #404040; fill-opacity: 0.75"/>
     <use xlink:href="#m78f787d1ba" x="326.298299" y="350.271214" style="fill: #404040; fill-opacity: 0.75"/>
     <use xlink:href="#m78f787d1ba" x="327.707988" y="304.214979" style="fill: #404040; fill-opacity: 0.75"/>
     <use xlink:href="#m78f787d1ba" x="337.791199" y="304.208393" style="fill: #404040; fill-opacity: 0.75"/>
     <use xlink:href="#m78f787d1ba" x="337.888984" y="360.57376" style="fill: #404040; fill-opacity: 0.75"/>
     <use xlink:href="#m78f787d1ba" x="342.810285" y="325.976723" style="fill: #404040; fill-opacity: 0.75"/>
     <use xlink:href="#m78f787d1ba" x="342.936812" y="366.654107" style="fill: #404040; fill-opacity: 0.75"/>
     <use xlink:href="#m78f787d1ba" x="350.656229" y="367.473754" style="fill: #404040; fill-opacity: 0.75"/>
     <use xlink:href="#m78f787d1ba" x="364.855274" y="345.211602" style="fill: #404040; fill-opacity: 0.75"/>
     <use xlink:href="#m78f787d1ba" x="365.049643" y="311.12065" style="fill: #404040; fill-opacity: 0.75"/>
     <use xlink:href="#m78f787d1ba" x="367.375991" y="371.862522" style="fill: #404040; fill-opacity: 0.75"/>
     <use xlink:href="#m78f787d1ba" x="367.787503" y="250.859557" style="fill: #404040; fill-opacity: 0.75"/>
     <use xlink:href="#m78f787d1ba" x="369.118609" y="247.420395" style="fill: #404040; fill-opacity: 0.75"/>
     <use xlink:href="#m78f787d1ba" x="374.552791" y="368.708866" style="fill: #404040; fill-opacity: 0.75"/>
     <use xlink:href="#m78f787d1ba" x="375.017635" y="357.131431" style="fill: #404040; fill-opacity: 0.75"/>
     <use xlink:href="#m78f787d1ba" x="384.651863" y="342.278568" style="fill: #404040; fill-opacity: 0.75"/>
     <use xlink:href="#m78f787d1ba" x="384.934322" y="337.266818" style="fill: #404040; fill-opacity: 0.75"/>
     <use xlink:href="#m78f787d1ba" x="385.643637" y="296.92891" style="fill: #404040; fill-opacity: 0.75"/>
     <use xlink:href="#m78f787d1ba" x="385.670031" y="275.896127" style="fill: #404040; fill-opacity: 0.75"/>
     <use xlink:href="#m78f787d1ba" x="385.92903" y="292.092025" style="fill: #404040; fill-opacity: 0.75"/>
     <use xlink:href="#m78f787d1ba" x="387.236101" y="351.809156" style="fill: #404040; fill-opacity: 0.75"/>
     <use xlink:href="#m78f787d1ba" x="401.222581" y="372.109383" style="fill: #404040; fill-opacity: 0.75"/>
     <use xlink:href="#m78f787d1ba" x="401.286947" y="339.639037" style="fill: #404040; fill-opacity: 0.75"/>
     <use xlink:href="#m78f787d1ba" x="408.268665" y="374.092808" style="fill: #404040; fill-opacity: 0.75"/>
     <use xlink:href="#m78f787d1ba" x="429.891195" y="344.440601" style="fill: #404040; fill-opacity: 0.75"/>
     <use xlink:href="#m78f787d1ba" x="429.929852" y="285.610716" style="fill: #404040; fill-opacity: 0.75"/>
     <use xlink:href="#m78f787d1ba" x="431.34297" y="370.740932" style="fill: #404040; fill-opacity: 0.75"/>
     <use xlink:href="#m78f787d1ba" x="433.959987" y="281.402666" style="fill: #404040; fill-opacity: 0.75"/>
     <use xlink:href="#m78f787d1ba" x="443.878794" y="365.822527" style="fill: #404040; fill-opacity: 0.75"/>
     <use xlink:href="#m78f787d1ba" x="444.943557" y="371.487947" style="fill: #404040; fill-opacity: 0.75"/>
     <use xlink:href="#m78f787d1ba" x="448.089894" y="216.103406" style="fill: #404040; fill-opacity: 0.75"/>
     <use xlink:href="#m78f787d1ba" x="449.714694" y="226.046531" style="fill: #404040; fill-opacity: 0.75"/>
     <use xlink:href="#m78f787d1ba" x="453.39014" y="331.904549" style="fill: #404040; fill-opacity: 0.75"/>
     <use xlink:href="#m78f787d1ba" x="496.644743" y="327.774259" style="fill: #404040; fill-opacity: 0.75"/>
     <use xlink:href="#m78f787d1ba" x="497.302086" y="287.040384" style="fill: #404040; fill-opacity: 0.75"/>
     <use xlink:href="#m78f787d1ba" x="497.318772" y="373.960397" style="fill: #404040; fill-opacity: 0.75"/>
     <use xlink:href="#m78f787d1ba" x="497.877817" y="371.339195" style="fill: #404040; fill-opacity: 0.75"/>
     <use xlink:href="#m78f787d1ba" x="498.453903" y="303.356615" style="fill: #404040; fill-opacity: 0.75"/>
     <use xlink:href="#m78f787d1ba" x="498.564285" y="367.869866" style="fill: #404040; fill-opacity: 0.75"/>
     <use xlink:href="#m78f787d1ba" x="498.595598" y="371.171924" style="fill: #404040; fill-opacity: 0.75"/>
     <use xlink:href="#m78f787d1ba" x="498.975193" y="349.292675" style="fill: #404040; fill-opacity: 0.75"/>
     <use xlink:href="#m78f787d1ba" x="499.263221" y="360.963753" style="fill: #404040; fill-opacity: 0.75"/>
     <use xlink:href="#m78f787d1ba" x="499.29804" y="355.053076" style="fill: #404040; fill-opacity: 0.75"/>
     <use xlink:href="#m78f787d1ba" x="499.470782" y="350.495515" style="fill: #404040; fill-opacity: 0.75"/>
     <use xlink:href="#m78f787d1ba" x="499.667461" y="270.141683" style="fill: #404040; fill-opacity: 0.75"/>
     <use xlink:href="#m78f787d1ba" x="499.793847" y="355.181008" style="fill: #404040; fill-opacity: 0.75"/>
     <use xlink:href="#m78f787d1ba" x="499.908723" y="367.628669" style="fill: #404040; fill-opacity: 0.75"/>
     <use xlink:href="#m78f787d1ba" x="499.979186" y="369.627687" style="fill: #404040; fill-opacity: 0.75"/>
     <use xlink:href="#m78f787d1ba" x="500.178142" y="375.549989" style="fill: #404040; fill-opacity: 0.75"/>
     <use xlink:href="#m78f787d1ba" x="515.002021" y="250.400978" style="fill: #404040; fill-opacity: 0.75"/>
     <use xlink:href="#m78f787d1ba" x="515.345182" y="374.523709" style="fill: #404040; fill-opacity: 0.75"/>
     <use xlink:href="#m78f787d1ba" x="515.630387" y="368.858975" style="fill: #404040; fill-opacity: 0.75"/>
     <use xlink:href="#m78f787d1ba" x="515.724977" y="348.125228" style="fill: #404040; fill-opacity: 0.75"/>
     <use xlink:href="#m78f787d1ba" x="515.725301" y="356.573373" style="fill: #404040; fill-opacity: 0.75"/>
     <use xlink:href="#m78f787d1ba" x="515.838174" y="367.141084" style="fill: #404040; fill-opacity: 0.75"/>
     <use xlink:href="#m78f787d1ba" x="515.908972" y="375.104798" style="fill: #404040; fill-opacity: 0.75"/>
     <use xlink:href="#m78f787d1ba" x="515.933756" y="358.819295" style="fill: #404040; fill-opacity: 0.75"/>
     <use xlink:href="#m78f787d1ba" x="515.984868" y="355.566591" style="fill: #404040; fill-opacity: 0.75"/>
     <use xlink:href="#m78f787d1ba" x="516.568159" y="353.942056" style="fill: #404040; fill-opacity: 0.75"/>
     <use xlink:href="#m78f787d1ba" x="516.884653" y="348.979884" style="fill: #404040; fill-opacity: 0.75"/>
     <use xlink:href="#m78f787d1ba" x="517.066317" y="358.061795" style="fill: #404040; fill-opacity: 0.75"/>
     <use xlink:href="#m78f787d1ba" x="517.06989" y="360.562887" style="fill: #404040; fill-opacity: 0.75"/>
     <use xlink:href="#m78f787d1ba" x="517.566956" y="346.271702" style="fill: #404040; fill-opacity: 0.75"/>
     <use xlink:href="#m78f787d1ba" x="517.730964" y="242.637031" style="fill: #404040; fill-opacity: 0.75"/>
     <use xlink:href="#m78f787d1ba" x="517.842043" y="355.191821" style="fill: #404040; fill-opacity: 0.75"/>
     <use xlink:href="#m78f787d1ba" x="517.861654" y="365.169151" style="fill: #404040; fill-opacity: 0.75"/>
     <use xlink:href="#m78f787d1ba" x="517.881659" y="337.249607" style="fill: #404040; fill-opacity: 0.75"/>
     <use xlink:href="#m78f787d1ba" x="518.034517" y="361.737607" style="fill: #404040; fill-opacity: 0.75"/>
     <use xlink:href="#m78f787d1ba" x="518.094353" y="363.074412" style="fill: #404040; fill-opacity: 0.75"/>
     <use xlink:href="#m78f787d1ba" x="518.097529" y="355.516596" style="fill: #404040; fill-opacity: 0.75"/>
     <use xlink:href="#m78f787d1ba" x="518.116773" y="354.218184" style="fill: #404040; fill-opacity: 0.75"/>
     <use xlink:href="#m78f787d1ba" x="518.136934" y="353.451601" style="fill: #404040; fill-opacity: 0.75"/>
     <use xlink:href="#m78f787d1ba" x="518.140505" y="347.865461" style="fill: #404040; fill-opacity: 0.75"/>
    </g>
   </g>
   <g id="LineCollection_1">
    <path d="M 65.058409 375.64 
L 65.058409 43.634 
" clip-path="url(#pb33cdb27ac)" style="fill: none; stroke: #2ca02c; stroke-width: 1.6"/>
   </g>
   <g id="LineCollection_2">
    <path d="M 72.201985 375.64 
L 72.201985 43.634 
" clip-path="url(#pb33cdb27ac)" style="fill: none; stroke: #d62728; stroke-width: 1.6"/>
   </g>
   <g id="LineCollection_3">
    <path d="M 91.846818 375.64 
L 91.846818 43.634 
" clip-path="url(#pb33cdb27ac)" style="fill: none; stroke: #1f77b4; stroke-width: 1.6"/>
   </g>
   <g id="patch_3">
    <path d="M 38.27 375.64 
L 38.27 26.16 
" style="fill: none; stroke: #000000; stroke-width: 0.8; stroke-linejoin: miter; stroke-linecap: square"/>
   </g>
   <g id="patch_4">
    <path d="M 627.615 375.64 
L 627.615 26.16 
" style="fill: none; stroke: #000000; stroke-width: 0.8; stroke-linejoin: miter; stroke-linecap: square"/>
   </g>
   <g id="patch_5">
    <path d="M 38.27 375.64 
L 627.615 375.64 
" style="fill: none; stroke: #000000; stroke-width: 0.8; stroke-linejoin: miter; stroke-linecap: square"/>
   </g>
   <g id="patch_6">
    <path d="M 38.27 26.16 
L 627.615 26.16 
" style="fill: none; stroke: #000000; stroke-width: 0.8; stroke-linejoin: miter; stroke-linecap: square"/>
   </g>
   <g id="text_16">
    <g id="patch_7">
     <path d="M 332.651159 370.7754 
L 621.72155 370.7754 
Q 623.84655 370.7754 623.84655 368.6504 
L 623.84655 350.905853 
Q 623.84655 348.780853 621.72155 348.780853 
L 332.651159 348.780853 
Q 330.526159 348.780853 330.526159 350.905853 
L 330.526159 368.6504 
Q 330.526159 370.7754 332.651159 370.7754 
z
" style="fill: #ffffff; opacity: 0.9; stroke: #b2b2b2; stroke-linejoin: miter"/>
    </g>
    <!-- Negative values indicate pre-rainfall seismicity. -->
    <g transform="translate(420.821394 357.364525) scale(0.085 -0.085)">
     <defs>
      <path id="DejaVuSans-4e" d="M 628 4666 
L 1478 4666 
L 3547 763 
L 3547 4666 
L 4159 4666 
L 4159 0 
L 3309 0 
L 1241 3903 
L 1241 0 
L 628 0 
L 628 4666 
z
" transform="scale(0.015625)"/>
      <path id="DejaVuSans-67" d="M 2906 1791 
Q 2906 2416 2648 2759 
Q 2391 3103 1925 3103 
Q 1463 3103 1205 2759 
Q 947 2416 947 1791 
Q 947 1169 1205 825 
Q 1463 481 1925 481 
Q 2391 481 2648 825 
Q 2906 1169 2906 1791 
z
M 3481 434 
Q 3481 -459 3084 -895 
Q 2688 -1331 1869 -1331 
Q 1566 -1331 1297 -1286 
Q 1028 -1241 775 -1147 
L 775 -588 
Q 1028 -725 1275 -790 
Q 1522 -856 1778 -856 
Q 2344 -856 2625 -561 
Q 2906 -266 2906 331 
L 2906 616 
Q 2728 306 2450 153 
Q 2172 0 1784 0 
Q 1141 0 747 490 
Q 353 981 353 1791 
Q 353 2603 747 3093 
Q 1141 3584 1784 3584 
Q 2172 3584 2450 3431 
Q 2728 3278 2906 2969 
L 2906 3500 
L 3481 3500 
L 3481 434 
z
" transform="scale(0.015625)"/>
      <path id="DejaVuSans-64" d="M 2906 2969 
L 2906 4863 
L 3481 4863 
L 3481 0 
L 2906 0 
L 2906 525 
Q 2725 213 2448 61 
Q 2172 -91 1784 -91 
Q 1150 -91 751 415 
Q 353 922 353 1747 
Q 353 2572 751 3078 
Q 1150 3584 1784 3584 
Q 2172 3584 2448 3432 
Q 2725 3281 2906 2969 
z
M 947 1747 
Q 947 1113 1208 752 
Q 1469 391 1925 391 
Q 2381 391 2643 752 
Q 2906 1113 2906 1747 
Q 2906 2381 2643 2742 
Q 2381 3103 1925 3103 
Q 1469 3103 1208 2742 
Q 947 2381 947 1747 
z
" transform="scale(0.015625)"/>
      <path id="DejaVuSans-70" d="M 1159 525 
L 1159 -1331 
L 581 -1331 
L 581 3500 
L 1159 3500 
L 1159 2969 
Q 1341 3281 1617 3432 
Q 1894 3584 2278 3584 
Q 2916 3584 3314 3078 
Q 3713 2572 3713 1747 
Q 3713 922 3314 415 
Q 2916 -91 2278 -91 
Q 1894 -91 1617 61 
Q 1341 213 1159 525 
z
M 3116 1747 
Q 3116 2381 2855 2742 
Q 2594 3103 2138 3103 
Q 1681 3103 1420 2742 
Q 1159 2381 1159 1747 
Q 1159 1113 1420 752 
Q 1681 391 2138 391 
Q 2594 391 2855 752 
Q 3116 1113 3116 1747 
z
" transform="scale(0.015625)"/>
      <path id="DejaVuSans-2d" d="M 313 2009 
L 1997 2009 
L 1997 1497 
L 313 1497 
L 313 2009 
z
" transform="scale(0.015625)"/>
      <path id="DejaVuSans-2e" d="M 684 794 
L 1344 794 
L 1344 0 
L 684 0 
L 684 794 
z
" transform="scale(0.015625)"/>
     </defs>
     <use xlink:href="#DejaVuSans-4e"/>
     <use xlink:href="#DejaVuSans-65" transform="translate(74.804688 0)"/>
     <use xlink:href="#DejaVuSans-67" transform="translate(136.328125 0)"/>
     <use xlink:href="#DejaVuSans-61" transform="translate(199.804688 0)"/>
     <use xlink:href="#DejaVuSans-74" transform="translate(261.083984 0)"/>
     <use xlink:href="#DejaVuSans-69" transform="translate(300.292969 0)"/>
     <use xlink:href="#DejaVuSans-76" transform="translate(328.076172 0)"/>
     <use xlink:href="#DejaVuSans-65" transform="translate(387.255859 0)"/>
     <use xlink:href="#DejaVuSans-20" transform="translate(448.779297 0)"/>
     <use xlink:href="#DejaVuSans-76" transform="translate(480.566406 0)"/>
     <use xlink:href="#DejaVuSans-61" transform="translate(539.746094 0)"/>
     <use xlink:href="#DejaVuSans-6c" transform="translate(601.025391 0)"/>
     <use xlink:href="#DejaVuSans-75" transform="translate(628.808594 0)"/>
     <use xlink:href="#DejaVuSans-65" transform="translate(692.1875 0)"/>
     <use xlink:href="#DejaVuSans-73" transform="translate(753.710938 0)"/>
     <use xlink:href="#DejaVuSans-20" transform="translate(805.810547 0)"/>
     <use xlink:href="#DejaVuSans-69" transform="translate(837.597656 0)"/>
     <use xlink:href="#DejaVuSans-6e" transform="translate(865.380859 0)"/>
     <use xlink:href="#DejaVuSans-64" transform="translate(928.759766 0)"/>
     <use xlink:href="#DejaVuSans-69" transform="translate(992.236328 0)"/>
     <use xlink:href="#DejaVuSans-63" transform="translate(1020.019531 0)"/>
     <use xlink:href="#DejaVuSans-61" transform="translate(1075 0)"/>
     <use xlink:href="#DejaVuSans-74" transform="translate(1136.279297 0)"/>
     <use xlink:href="#DejaVuSans-65" transform="translate(1175.488281 0)"/>
     <use xlink:href="#DejaVuSans-20" transform="translate(1237.011719 0)"/>
     <use xlink:href="#DejaVuSans-70" transform="translate(1268.798828 0)"/>
     <use xlink:href="#DejaVuSans-72" transform="translate(1332.275391 0)"/>
     <use xlink:href="#DejaVuSans-65" transform="translate(1371.138672 0)"/>
     <use xlink:href="#DejaVuSans-2d" transform="translate(1432.662109 0)"/>
     <use xlink:href="#DejaVuSans-72" transform="translate(1468.746094 0)"/>
     <use xlink:href="#DejaVuSans-61" transform="translate(1509.859375 0)"/>
     <use xlink:href="#DejaVuSans-69" transform="translate(1571.138672 0)"/>
     <use xlink:href="#DejaVuSans-6e" transform="translate(1598.921875 0)"/>
     <use xlink:href="#DejaVuSans-66" transform="translate(1662.300781 0)"/>
     <use xlink:href="#DejaVuSans-61" transform="translate(1697.505859 0)"/>
     <use xlink:href="#DejaVuSans-6c" transform="translate(1758.785156 0)"/>
     <use xlink:href="#DejaVuSans-6c" transform="translate(1786.568359 0)"/>
     <use xlink:href="#DejaVuSans-20" transform="translate(1814.351562 0)"/>
     <use xlink:href="#DejaVuSans-73" transform="translate(1846.138672 0)"/>
     <use xlink:href="#DejaVuSans-65" transform="translate(1898.238281 0)"/>
     <use xlink:href="#DejaVuSans-69" transform="translate(1959.761719 0)"/>
     <use xlink:href="#DejaVuSans-73" transform="translate(1987.544922 0)"/>
     <use xlink:href="#DejaVuSans-6d" transform="translate(2039.644531 0)"/>
     <use xlink:href="#DejaVuSans-69" transform="translate(2137.056641 0)"/>
     <use xlink:href="#DejaVuSans-63" transform="translate(2164.839844 0)"/>
     <use xlink:href="#DejaVuSans-69" transform="translate(2219.820312 0)"/>
     <use xlink:href="#DejaVuSans-74" transform="translate(2247.603516 0)"/>
     <use xlink:href="#DejaVuSans-79" transform="translate(2286.8125 0)"/>
     <use xlink:href="#DejaVuSans-2e" transform="translate(2331.742188 0)"/>
    </g>
    <!-- The network was operating before both the main event and rainfall. -->
    <g transform="translate(332.651159 366.882666) scale(0.085 -0.085)">
     <defs>
      <path id="DejaVuSans-54" d="M -19 4666 
L 3928 4666 
L 3928 4134 
L 2272 4134 
L 2272 0 
L 1638 0 
L 1638 4134 
L -19 4134 
L -19 4666 
z
" transform="scale(0.015625)"/>
      <path id="DejaVuSans-68" d="M 3513 2113 
L 3513 0 
L 2938 0 
L 2938 2094 
Q 2938 2591 2744 2837 
Q 2550 3084 2163 3084 
Q 1697 3084 1428 2787 
Q 1159 2491 1159 1978 
L 1159 0 
L 581 0 
L 581 4863 
L 1159 4863 
L 1159 2956 
Q 1366 3272 1645 3428 
Q 1925 3584 2291 3584 
Q 2894 3584 3203 3211 
Q 3513 2838 3513 2113 
z
" transform="scale(0.015625)"/>
      <path id="DejaVuSans-77" d="M 269 3500 
L 844 3500 
L 1563 769 
L 2278 3500 
L 2956 3500 
L 3675 769 
L 4391 3500 
L 4966 3500 
L 4050 0 
L 3372 0 
L 2619 2869 
L 1863 0 
L 1184 0 
L 269 3500 
z
" transform="scale(0.015625)"/>
      <path id="DejaVuSans-62" d="M 3116 1747 
Q 3116 2381 2855 2742 
Q 2594 3103 2138 3103 
Q 1681 3103 1420 2742 
Q 1159 2381 1159 1747 
Q 1159 1113 1420 752 
Q 1681 391 2138 391 
Q 2594 391 2855 752 
Q 3116 1113 3116 1747 
z
M 1159 2969 
Q 1341 3281 1617 3432 
Q 1894 3584 2278 3584 
Q 2916 3584 3314 3078 
Q 3713 2572 3713 1747 
Q 3713 922 3314 415 
Q 2916 -91 2278 -91 
Q 1894 -91 1617 61 
Q 1341 213 1159 525 
L 1159 0 
L 581 0 
L 581 4863 
L 1159 4863 
L 1159 2969 
z
" transform="scale(0.015625)"/>
     </defs>
     <use xlink:href="#DejaVuSans-54"/>
     <use xlink:href="#DejaVuSans-68" transform="translate(61.083984 0)"/>
     <use xlink:href="#DejaVuSans-65" transform="translate(124.462891 0)"/>
     <use xlink:href="#DejaVuSans-20" transform="translate(185.986328 0)"/>
     <use xlink:href="#DejaVuSans-6e" transform="translate(217.773438 0)"/>
     <use xlink:href="#DejaVuSans-65" transform="translate(281.152344 0)"/>
     <use xlink:href="#DejaVuSans-74" transform="translate(342.675781 0)"/>
     <use xlink:href="#DejaVuSans-77" transform="translate(381.884766 0)"/>
     <use xlink:href="#DejaVuSans-6f" transform="translate(463.671875 0)"/>
     <use xlink:href="#DejaVuSans-72" transform="translate(524.853516 0)"/>
     <use xlink:href="#DejaVuSans-6b" transform="translate(565.966797 0)"/>
     <use xlink:href="#DejaVuSans-20" transform="translate(623.876953 0)"/>
     <use xlink:href="#DejaVuSans-77" transform="translate(655.664062 0)"/>
     <use xlink:href="#DejaVuSans-61" transform="translate(737.451172 0)"/>
     <use xlink:href="#DejaVuSans-73" transform="translate(798.730469 0)"/>
     <use xlink:href="#DejaVuSans-20" transform="translate(850.830078 0)"/>
     <use xlink:href="#DejaVuSans-6f" transform="translate(882.617188 0)"/>
     <use xlink:href="#DejaVuSans-70" transform="translate(943.798828 0)"/>
     <use xlink:href="#DejaVuSans-65" transform="translate(1007.275391 0)"/>
     <use xlink:href="#DejaVuSans-72" transform="translate(1068.798828 0)"/>
     <use xlink:href="#DejaVuSans-61" transform="translate(1109.912109 0)"/>
     <use xlink:href="#DejaVuSans-74" transform="translate(1171.191406 0)"/>
     <use xlink:href="#DejaVuSans-69" transform="translate(1210.400391 0)"/>
     <use xlink:href="#DejaVuSans-6e" transform="translate(1238.183594 0)"/>
     <use xlink:href="#DejaVuSans-67" transform="translate(1301.5625 0)"/>
     <use xlink:href="#DejaVuSans-20" transform="translate(1365.039062 0)"/>
     <use xlink:href="#DejaVuSans-62" transform="translate(1396.826172 0)"/>
     <use xlink:href="#DejaVuSans-65" transform="translate(1460.302734 0)"/>
     <use xlink:href="#DejaVuSans-66" transform="translate(1521.826172 0)"/>
     <use xlink:href="#DejaVuSans-6f" transform="translate(1557.03125 0)"/>
     <use xlink:href="#DejaVuSans-72" transform="translate(1618.212891 0)"/>
     <use xlink:href="#DejaVuSans-65" transform="translate(1657.076172 0)"/>
     <use xlink:href="#DejaVuSans-20" transform="translate(1718.599609 0)"/>
     <use xlink:href="#DejaVuSans-62" transform="translate(1750.386719 0)"/>
     <use xlink:href="#DejaVuSans-6f" transform="translate(1813.863281 0)"/>
     <use xlink:href="#DejaVuSans-74" transform="translate(1875.044922 0)"/>
     <use xlink:href="#DejaVuSans-68" transform="translate(1914.253906 0)"/>
     <use xlink:href="#DejaVuSans-20" transform="translate(1977.632812 0)"/>
     <use xlink:href="#DejaVuSans-74" transform="translate(2009.419922 0)"/>
     <use xlink:href="#DejaVuSans-68" transform="translate(2048.628906 0)"/>
     <use xlink:href="#DejaVuSans-65" transform="translate(2112.007812 0)"/>
     <use xlink:href="#DejaVuSans-20" transform="translate(2173.53125 0)"/>
     <use xlink:href="#DejaVuSans-6d" transform="translate(2205.318359 0)"/>
     <use xlink:href="#DejaVuSans-61" transform="translate(2302.730469 0)"/>
     <use xlink:href="#DejaVuSans-69" transform="translate(2364.009766 0)"/>
     <use xlink:href="#DejaVuSans-6e" transform="translate(2391.792969 0)"/>
     <use xlink:href="#DejaVuSans-20" transform="translate(2455.171875 0)"/>
     <use xlink:href="#DejaVuSans-65" transform="translate(2486.958984 0)"/>
     <use xlink:href="#DejaVuSans-76" transform="translate(2548.482422 0)"/>
     <use xlink:href="#DejaVuSans-65" transform="translate(2607.662109 0)"/>
     <use xlink:href="#DejaVuSans-6e" transform="translate(2669.185547 0)"/>
     <use xlink:href="#DejaVuSans-74" transform="translate(2732.564453 0)"/>
     <use xlink:href="#DejaVuSans-20" transform="translate(2771.773438 0)"/>
     <use xlink:href="#DejaVuSans-61" transform="translate(2803.560547 0)"/>
     <use xlink:href="#DejaVuSans-6e" transform="translate(2864.839844 0)"/>
     <use xlink:href="#DejaVuSans-64" transform="translate(2928.21875 0)"/>
     <use xlink:href="#DejaVuSans-20" transform="translate(2991.695312 0)"/>
     <use xlink:href="#DejaVuSans-72" transform="translate(3023.482422 0)"/>
     <use xlink:href="#DejaVuSans-61" transform="translate(3064.595703 0)"/>
     <use xlink:href="#DejaVuSans-69" transform="translate(3125.875 0)"/>
     <use xlink:href="#DejaVuSans-6e" transform="translate(3153.658203 0)"/>
     <use xlink:href="#DejaVuSans-66" transform="translate(3217.037109 0)"/>
     <use xlink:href="#DejaVuSans-61" transform="translate(3252.242188 0)"/>
     <use xlink:href="#DejaVuSans-6c" transform="translate(3313.521484 0)"/>
     <use xlink:href="#DejaVuSans-6c" transform="translate(3341.304688 0)"/>
     <use xlink:href="#DejaVuSans-2e" transform="translate(3369.087891 0)"/>
    </g>
   </g>
   <g id="text_17">
    <!-- El Tule subset: projected time–distance -->
    <g transform="translate(215.708125 20.16) scale(0.12 -0.12)">
     <defs>
      <path id="DejaVuSans-45" d="M 628 4666 
L 3578 4666 
L 3578 4134 
L 1259 4134 
L 1259 2753 
L 3481 2753 
L 3481 2222 
L 1259 2222 
L 1259 531 
L 3634 531 
L 3634 0 
L 628 0 
L 628 4666 
z
" transform="scale(0.015625)"/>
      <path id="DejaVuSans-3a" d="M 750 794 
L 1409 794 
L 1409 0 
L 750 0 
L 750 794 
z
M 750 3309 
L 1409 3309 
L 1409 2516 
L 750 2516 
L 750 3309 
z
" transform="scale(0.015625)"/>
      <path id="DejaVuSans-6a" d="M 603 3500 
L 1178 3500 
L 1178 -63 
Q 1178 -731 923 -1031 
Q 669 -1331 103 -1331 
L -116 -1331 
L -116 -844 
L 38 -844 
Q 366 -844 484 -692 
Q 603 -541 603 -63 
L 603 3500 
z
M 603 4863 
L 1178 4863 
L 1178 4134 
L 603 4134 
L 603 4863 
z
" transform="scale(0.015625)"/>
      <path id="DejaVuSans-2013" d="M 313 1978 
L 2888 1978 
L 2888 1528 
L 313 1528 
L 313 1978 
z
" transform="scale(0.015625)"/>
     </defs>
     <use xlink:href="#DejaVuSans-45"/>
     <use xlink:href="#DejaVuSans-6c" transform="translate(63.183594 0)"/>
     <use xlink:href="#DejaVuSans-20" transform="translate(90.966797 0)"/>
     <use xlink:href="#DejaVuSans-54" transform="translate(122.753906 0)"/>
     <use xlink:href="#DejaVuSans-75" transform="translate(168.712891 0)"/>
     <use xlink:href="#DejaVuSans-6c" transform="translate(232.091797 0)"/>
     <use xlink:href="#DejaVuSans-65" transform="translate(259.875 0)"/>
     <use xlink:href="#DejaVuSans-20" transform="translate(321.398438 0)"/>
     <use xlink:href="#DejaVuSans-73" transform="translate(353.185547 0)"/>
     <use xlink:href="#DejaVuSans-75" transform="translate(405.285156 0)"/>
     <use xlink:href="#DejaVuSans-62" transform="translate(468.664062 0)"/>
     <use xlink:href="#DejaVuSans-73" transform="translate(532.140625 0)"/>
     <use xlink:href="#DejaVuSans-65" transform="translate(584.240234 0)"/>
     <use xlink:href="#DejaVuSans-74" transform="translate(645.763672 0)"/>
     <use xlink:href="#DejaVuSans-3a" transform="translate(684.972656 0)"/>
     <use xlink:href="#DejaVuSans-20" transform="translate(718.664062 0)"/>
     <use xlink:href="#DejaVuSans-70" transform="translate(750.451172 0)"/>
     <use xlink:href="#DejaVuSans-72" transform="translate(813.927734 0)"/>
     <use xlink:href="#DejaVuSans-6f" transform="translate(852.791016 0)"/>
     <use xlink:href="#DejaVuSans-6a" transform="translate(913.972656 0)"/>
     <use xlink:href="#DejaVuSans-65" transform="translate(941.755859 0)"/>
     <use xlink:href="#DejaVuSans-63" transform="translate(1003.279297 0)"/>
     <use xlink:href="#DejaVuSans-74" transform="translate(1058.259766 0)"/>
     <use xlink:href="#DejaVuSans-65" transform="translate(1097.46875 0)"/>
     <use xlink:href="#DejaVuSans-64" transform="translate(1158.992188 0)"/>
     <use xlink:href="#DejaVuSans-20" transform="translate(1222.46875 0)"/>
     <use xlink:href="#DejaVuSans-74" transform="translate(1254.255859 0)"/>
     <use xlink:href="#DejaVuSans-69" transform="translate(1293.464844 0)"/>
     <use xlink:href="#DejaVuSans-6d" transform="translate(1321.248047 0)"/>
     <use xlink:href="#DejaVuSans-65" transform="translate(1418.660156 0)"/>
     <use xlink:href="#DejaVuSans-2013" transform="translate(1480.183594 0)"/>
     <use xlink:href="#DejaVuSans-64" transform="translate(1530.183594 0)"/>
     <use xlink:href="#DejaVuSans-69" transform="translate(1593.660156 0)"/>
     <use xlink:href="#DejaVuSans-73" transform="translate(1621.443359 0)"/>
     <use xlink:href="#DejaVuSans-74" transform="translate(1673.542969 0)"/>
     <use xlink:href="#DejaVuSans-61" transform="translate(1712.751953 0)"/>
     <use xlink:href="#DejaVuSans-6e" transform="translate(1774.03125 0)"/>
     <use xlink:href="#DejaVuSans-63" transform="translate(1837.410156 0)"/>
     <use xlink:href="#DejaVuSans-65" transform="translate(1892.390625 0)"/>
    </g>
   </g>
   <g id="PathCollection_2">
    <defs>
     <path id="mb1d815684c" d="M 0 4.1833 
C 1.109424 4.1833 2.173559 3.742521 2.95804 2.95804 
C 3.742521 2.173559 4.1833 1.109424 4.1833 0 
C 4.1833 -1.109424 3.742521 -2.173559 2.95804 -2.95804 
C 2.173559 -3.742521 1.109424 -4.1833 0 -4.1833 
C -1.109424 -4.1833 -2.173559 -3.742521 -2.95804 -2.95804 
C -3.742521 -2.173559 -4.1833 -1.109424 -4.1833 0 
C -4.1833 1.109424 -3.742521 2.173559 -2.95804 2.95804 
C -2.173559 3.742521 -1.109424 4.1833 0 4.1833 
z
" style="stroke: #000000; stroke-width: 0.6"/>
    </defs>
    <g clip-path="url(#pb33cdb27ac)">
     <use xlink:href="#mb1d815684c" x="65.058409" y="43.634" style="fill: #2ca02c; stroke: #000000; stroke-width: 0.6"/>
    </g>
   </g>
   <g id="PathCollection_3">
    <defs>
     <path id="mbe7d6cee53" d="M 0 4.1833 
C 1.109424 4.1833 2.173559 3.742521 2.95804 2.95804 
C 3.742521 2.173559 4.1833 1.109424 4.1833 0 
C 4.1833 -1.109424 3.742521 -2.173559 2.95804 -2.95804 
C 2.173559 -3.742521 1.109424 -4.1833 0 -4.1833 
C -1.109424 -4.1833 -2.173559 -3.742521 -2.95804 -2.95804 
C -3.742521 -2.173559 -4.1833 -1.109424 -4.1833 0 
C -4.1833 1.109424 -3.742521 2.173559 -2.95804 2.95804 
C -2.173559 3.742521 -1.109424 4.1833 0 4.1833 
z
" style="stroke: #000000; stroke-width: 0.6"/>
    </defs>
    <g clip-path="url(#pb33cdb27ac)">
     <use xlink:href="#mbe7d6cee53" x="72.201985" y="43.634" style="fill: #d62728; stroke: #000000; stroke-width: 0.6"/>
    </g>
   </g>
   <g id="PathCollection_4">
    <defs>
     <path id="mef1447c794" d="M 0 4.1833 
C 1.109424 4.1833 2.173559 3.742521 2.95804 2.95804 
C 3.742521 2.173559 4.1833 1.109424 4.1833 0 
C 4.1833 -1.109424 3.742521 -2.173559 2.95804 -2.95804 
C 2.173559 -3.742521 1.109424 -4.1833 0 -4.1833 
C -1.109424 -4.1833 -2.173559 -3.742521 -2.95804 -2.95804 
C -3.742521 -2.173559 -4.1833 -1.109424 -4.1833 0 
C -4.1833 1.109424 -3.742521 2.173559 -2.95804 2.95804 
C -2.173559 3.742521 -1.109424 4.1833 0 4.1833 
z
" style="stroke: #000000; stroke-width: 0.6"/>
    </defs>
    <g clip-path="url(#pb33cdb27ac)">
     <use xlink:href="#mef1447c794" x="91.846818" y="43.634" style="fill: #1f77b4; stroke: #000000; stroke-width: 0.6"/>
    </g>
   </g>
   <g id="legend_1">
    <g id="patch_8">
     <path d="M 456.090469 86.20125 
L 621.315 86.20125 
Q 623.115 86.20125 623.115 84.40125 
L 623.115 32.46 
Q 623.115 30.66 621.315 30.66 
L 456.090469 30.66 
Q 454.290469 30.66 454.290469 32.46 
L 454.290469 84.40125 
Q 454.290469 86.20125 456.090469 86.20125 
z
" style="fill: #ffffff; opacity: 0.95; stroke: #b2b2b2; stroke-linejoin: miter"/>
    </g>
    <g id="text_18">
     <!-- Reference dates -->
     <g transform="translate(502.121953 41.098594) scale(0.09 -0.09)">
      <defs>
       <path id="DejaVuSans-52" d="M 2841 2188 
Q 3044 2119 3236 1894 
Q 3428 1669 3622 1275 
L 4263 0 
L 3584 0 
L 2988 1197 
Q 2756 1666 2539 1819 
Q 2322 1972 1947 1972 
L 1259 1972 
L 1259 0 
L 628 0 
L 628 4666 
L 2053 4666 
Q 2853 4666 3247 4331 
Q 3641 3997 3641 3322 
Q 3641 2881 3436 2590 
Q 3231 2300 2841 2188 
z
M 1259 4147 
L 1259 2491 
L 2053 2491 
Q 2509 2491 2742 2702 
Q 2975 2913 2975 3322 
Q 2975 3731 2742 3939 
Q 2509 4147 2053 4147 
L 1259 4147 
z
" transform="scale(0.015625)"/>
      </defs>
      <use xlink:href="#DejaVuSans-52"/>
      <use xlink:href="#DejaVuSans-65" transform="translate(64.982422 0)"/>
      <use xlink:href="#DejaVuSans-66" transform="translate(126.505859 0)"/>
      <use xlink:href="#DejaVuSans-65" transform="translate(161.710938 0)"/>
      <use xlink:href="#DejaVuSans-72" transform="translate(223.234375 0)"/>
      <use xlink:href="#DejaVuSans-65" transform="translate(262.097656 0)"/>
      <use xlink:href="#DejaVuSans-6e" transform="translate(323.621094 0)"/>
      <use xlink:href="#DejaVuSans-63" transform="translate(387 0)"/>
      <use xlink:href="#DejaVuSans-65" transform="translate(441.980469 0)"/>
      <use xlink:href="#DejaVuSans-20" transform="translate(503.503906 0)"/>
      <use xlink:href="#DejaVuSans-64" transform="translate(535.291016 0)"/>
      <use xlink:href="#DejaVuSans-61" transform="translate(598.767578 0)"/>
      <use xlink:href="#DejaVuSans-74" transform="translate(660.046875 0)"/>
      <use xlink:href="#DejaVuSans-65" transform="translate(699.255859 0)"/>
      <use xlink:href="#DejaVuSans-73" transform="translate(760.779297 0)"/>
     </g>
    </g>
    <g id="line2d_27">
     <path d="M 457.890469 51.158906 
L 466.890469 51.158906 
L 475.890469 51.158906 
" style="fill: none; stroke: #2ca02c; stroke-width: 1.6; stroke-linecap: square"/>
     <defs>
      <path id="m5261cff721" d="M 0 3.5 
C 0.928211 3.5 1.81853 3.131218 2.474874 2.474874 
C 3.131218 1.81853 3.5 0.928211 3.5 0 
C 3.5 -0.928211 3.131218 -1.81853 2.474874 -2.474874 
C 1.81853 -3.131218 0.928211 -3.5 0 -3.5 
C -0.928211 -3.5 -1.81853 -3.131218 -2.474874 -2.474874 
C -3.131218 -1.81853 -3.5 -0.928211 -3.5 0 
C -3.5 0.928211 -3.131218 1.81853 -2.474874 2.474874 
C -1.81853 3.131218 -0.928211 3.5 0 3.5 
z
" style="stroke: #000000; stroke-width: 0.6"/>
     </defs>
     <g>
      <use xlink:href="#m5261cff721" x="466.890469" y="51.158906" style="fill: #2ca02c; stroke: #000000; stroke-width: 0.6"/>
     </g>
    </g>
    <g id="text_19">
     <!-- Network ready (Aug 30, 2024) -->
     <g transform="translate(483.090469 54.308906) scale(0.09 -0.09)">
      <defs>
       <path id="DejaVuSans-41" d="M 2188 4044 
L 1331 1722 
L 3047 1722 
L 2188 4044 
z
M 1831 4666 
L 2547 4666 
L 4325 0 
L 3669 0 
L 3244 1197 
L 1141 1197 
L 716 0 
L 50 0 
L 1831 4666 
z
" transform="scale(0.015625)"/>
       <path id="DejaVuSans-2c" d="M 750 794 
L 1409 794 
L 1409 256 
L 897 -744 
L 494 -744 
L 750 256 
L 750 794 
z
" transform="scale(0.015625)"/>
      </defs>
      <use xlink:href="#DejaVuSans-4e"/>
      <use xlink:href="#DejaVuSans-65" transform="translate(74.804688 0)"/>
      <use xlink:href="#DejaVuSans-74" transform="translate(136.328125 0)"/>
      <use xlink:href="#DejaVuSans-77" transform="translate(175.537109 0)"/>
      <use xlink:href="#DejaVuSans-6f" transform="translate(257.324219 0)"/>
      <use xlink:href="#DejaVuSans-72" transform="translate(318.505859 0)"/>
      <use xlink:href="#DejaVuSans-6b" transform="translate(359.619141 0)"/>
      <use xlink:href="#DejaVuSans-20" transform="translate(417.529297 0)"/>
      <use xlink:href="#DejaVuSans-72" transform="translate(449.316406 0)"/>
      <use xlink:href="#DejaVuSans-65" transform="translate(488.179688 0)"/>
      <use xlink:href="#DejaVuSans-61" transform="translate(549.703125 0)"/>
      <use xlink:href="#DejaVuSans-64" transform="translate(610.982422 0)"/>
      <use xlink:href="#DejaVuSans-79" transform="translate(674.458984 0)"/>
      <use xlink:href="#DejaVuSans-20" transform="translate(733.638672 0)"/>
      <use xlink:href="#DejaVuSans-28" transform="translate(765.425781 0)"/>
      <use xlink:href="#DejaVuSans-41" transform="translate(804.439453 0)"/>
      <use xlink:href="#DejaVuSans-75" transform="translate(872.847656 0)"/>
      <use xlink:href="#DejaVuSans-67" transform="translate(936.226562 0)"/>
      <use xlink:href="#DejaVuSans-20" transform="translate(999.703125 0)"/>
      <use xlink:href="#DejaVuSans-33" transform="translate(1031.490234 0)"/>
      <use xlink:href="#DejaVuSans-30" transform="translate(1095.113281 0)"/>
      <use xlink:href="#DejaVuSans-2c" transform="translate(1158.736328 0)"/>
      <use xlink:href="#DejaVuSans-20" transform="translate(1190.523438 0)"/>
      <use xlink:href="#DejaVuSans-32" transform="translate(1222.310547 0)"/>
      <use xlink:href="#DejaVuSans-30" transform="translate(1285.933594 0)"/>
      <use xlink:href="#DejaVuSans-32" transform="translate(1349.556641 0)"/>
      <use xlink:href="#DejaVuSans-34" transform="translate(1413.179688 0)"/>
      <use xlink:href="#DejaVuSans-29" transform="translate(1476.802734 0)"/>
     </g>
    </g>
    <g id="line2d_28">
     <path d="M 457.890469 64.369219 
L 466.890469 64.369219 
L 475.890469 64.369219 
" style="fill: none; stroke: #d62728; stroke-width: 1.6; stroke-linecap: square"/>
     <defs>
      <path id="maa9ef74537" d="M 0 3.5 
C 0.928211 3.5 1.81853 3.131218 2.474874 2.474874 
C 3.131218 1.81853 3.5 0.928211 3.5 0 
C 3.5 -0.928211 3.131218 -1.81853 2.474874 -2.474874 
C 1.81853 -3.131218 0.928211 -3.5 0 -3.5 
C -0.928211 -3.5 -1.81853 -3.131218 -2.474874 -2.474874 
C -3.131218 -1.81853 -3.5 -0.928211 -3.5 0 
C -3.5 0.928211 -3.131218 1.81853 -2.474874 2.474874 
C -1.81853 3.131218 -0.928211 3.5 0 3.5 
z
" style="stroke: #000000; stroke-width: 0.6"/>
     </defs>
     <g>
      <use xlink:href="#maa9ef74537" x="466.890469" y="64.369219" style="fill: #d62728; stroke: #000000; stroke-width: 0.6"/>
     </g>
    </g>
    <g id="text_20">
     <!-- Main event (Sep 3, 2024) -->
     <g transform="translate(483.090469 67.519219) scale(0.09 -0.09)">
      <defs>
       <path id="DejaVuSans-4d" d="M 628 4666 
L 1569 4666 
L 2759 1491 
L 3956 4666 
L 4897 4666 
L 4897 0 
L 4281 0 
L 4281 4097 
L 3078 897 
L 2444 897 
L 1241 4097 
L 1241 0 
L 628 0 
L 628 4666 
z
" transform="scale(0.015625)"/>
       <path id="DejaVuSans-53" d="M 3425 4513 
L 3425 3897 
Q 3066 4069 2747 4153 
Q 2428 4238 2131 4238 
Q 1616 4238 1336 4038 
Q 1056 3838 1056 3469 
Q 1056 3159 1242 3001 
Q 1428 2844 1947 2747 
L 2328 2669 
Q 3034 2534 3370 2195 
Q 3706 1856 3706 1288 
Q 3706 609 3251 259 
Q 2797 -91 1919 -91 
Q 1588 -91 1214 -16 
Q 841 59 441 206 
L 441 856 
Q 825 641 1194 531 
Q 1563 422 1919 422 
Q 2459 422 2753 634 
Q 3047 847 3047 1241 
Q 3047 1584 2836 1778 
Q 2625 1972 2144 2069 
L 1759 2144 
Q 1053 2284 737 2584 
Q 422 2884 422 3419 
Q 422 4038 858 4394 
Q 1294 4750 2059 4750 
Q 2388 4750 2728 4690 
Q 3069 4631 3425 4513 
z
" transform="scale(0.015625)"/>
      </defs>
      <use xlink:href="#DejaVuSans-4d"/>
      <use xlink:href="#DejaVuSans-61" transform="translate(86.279297 0)"/>
      <use xlink:href="#DejaVuSans-69" transform="translate(147.558594 0)"/>
      <use xlink:href="#DejaVuSans-6e" transform="translate(175.341797 0)"/>
      <use xlink:href="#DejaVuSans-20" transform="translate(238.720703 0)"/>
      <use xlink:href="#DejaVuSans-65" transform="translate(270.507812 0)"/>
      <use xlink:href="#DejaVuSans-76" transform="translate(332.03125 0)"/>
      <use xlink:href="#DejaVuSans-65" transform="translate(391.210938 0)"/>
      <use xlink:href="#DejaVuSans-6e" transform="translate(452.734375 0)"/>
      <use xlink:href="#DejaVuSans-74" transform="translate(516.113281 0)"/>
      <use xlink:href="#DejaVuSans-20" transform="translate(555.322266 0)"/>
      <use xlink:href="#DejaVuSans-28" transform="translate(587.109375 0)"/>
      <use xlink:href="#DejaVuSans-53" transform="translate(626.123047 0)"/>
      <use xlink:href="#DejaVuSans-65" transform="translate(689.599609 0)"/>
      <use xlink:href="#DejaVuSans-70" transform="translate(751.123047 0)"/>
      <use xlink:href="#DejaVuSans-20" transform="translate(814.599609 0)"/>
      <use xlink:href="#DejaVuSans-33" transform="translate(846.386719 0)"/>
      <use xlink:href="#DejaVuSans-2c" transform="translate(910.009766 0)"/>
      <use xlink:href="#DejaVuSans-20" transform="translate(941.796875 0)"/>
      <use xlink:href="#DejaVuSans-32" transform="translate(973.583984 0)"/>
      <use xlink:href="#DejaVuSans-30" transform="translate(1037.207031 0)"/>
      <use xlink:href="#DejaVuSans-32" transform="translate(1100.830078 0)"/>
      <use xlink:href="#DejaVuSans-34" transform="translate(1164.453125 0)"/>
      <use xlink:href="#DejaVuSans-29" transform="translate(1228.076172 0)"/>
     </g>
    </g>
    <g id="line2d_29">
     <path d="M 457.890469 77.579531 
L 466.890469 77.579531 
L 475.890469 77.579531 
" style="fill: none; stroke: #1f77b4; stroke-width: 1.6; stroke-linecap: square"/>
     <defs>
      <path id="md6d77bf476" d="M 0 3.5 
C 0.928211 3.5 1.81853 3.131218 2.474874 2.474874 
C 3.131218 1.81853 3.5 0.928211 3.5 0 
C 3.5 -0.928211 3.131218 -1.81853 2.474874 -2.474874 
C 1.81853 -3.131218 0.928211 -3.5 0 -3.5 
C -0.928211 -3.5 -1.81853 -3.131218 -2.474874 -2.474874 
C -3.131218 -1.81853 -3.5 -0.928211 -3.5 0 
C -3.5 0.928211 -3.131218 1.81853 -2.474874 2.474874 
C -1.81853 3.131218 -0.928211 3.5 0 3.5 
z
" style="stroke: #000000; stroke-width: 0.6"/>
     </defs>
     <g>
      <use xlink:href="#md6d77bf476" x="466.890469" y="77.579531" style="fill: #1f77b4; stroke: #000000; stroke-width: 0.6"/>
     </g>
    </g>
    <g id="text_21">
     <!-- Rainfall (Sep 14, 2024) -->
     <g transform="translate(483.090469 80.729531) scale(0.09 -0.09)">
      <use xlink:href="#DejaVuSans-52"/>
      <use xlink:href="#DejaVuSans-61" transform="translate(67.232422 0)"/>
      <use xlink:href="#DejaVuSans-69" transform="translate(128.511719 0)"/>
      <use xlink:href="#DejaVuSans-6e" transform="translate(156.294922 0)"/>
      <use xlink:href="#DejaVuSans-66" transform="translate(219.673828 0)"/>
      <use xlink:href="#DejaVuSans-61" transform="translate(254.878906 0)"/>
      <use xlink:href="#DejaVuSans-6c" transform="translate(316.158203 0)"/>
      <use xlink:href="#DejaVuSans-6c" transform="translate(343.941406 0)"/>
      <use xlink:href="#DejaVuSans-20" transform="translate(371.724609 0)"/>
      <use xlink:href="#DejaVuSans-28" transform="translate(403.511719 0)"/>
      <use xlink:href="#DejaVuSans-53" transform="translate(442.525391 0)"/>
      <use xlink:href="#DejaVuSans-65" transform="translate(506.001953 0)"/>
      <use xlink:href="#DejaVuSans-70" transform="translate(567.525391 0)"/>
      <use xlink:href="#DejaVuSans-20" transform="translate(631.001953 0)"/>
      <use xlink:href="#DejaVuSans-31" transform="translate(662.789062 0)"/>
      <use xlink:href="#DejaVuSans-34" transform="translate(726.412109 0)"/>
      <use xlink:href="#DejaVuSans-2c" transform="translate(790.035156 0)"/>
      <use xlink:href="#DejaVuSans-20" transform="translate(821.822266 0)"/>
      <use xlink:href="#DejaVuSans-32" transform="translate(853.609375 0)"/>
      <use xlink:href="#DejaVuSans-30" transform="translate(917.232422 0)"/>
      <use xlink:href="#DejaVuSans-32" transform="translate(980.855469 0)"/>
      <use xlink:href="#DejaVuSans-34" transform="translate(1044.478516 0)"/>
      <use xlink:href="#DejaVuSans-29" transform="translate(1108.101562 0)"/>
     </g>
    </g>
   </g>
  </g>
 </g>
 <defs>
  <clipPath id="pb33cdb27ac">
   <rect x="38.27" y="26.16" width="589.345" height="349.48"/>
  </clipPath>
 </defs>
</svg>
