<?xml version="1.0" encoding="utf-8" standalone="no"?>
<!DOCTYPE svg PUBLIC "-//W3C//DTD SVG 1.1//EN"
  "http://www.w3.org/Graphics/SVG/1.1/DTD/svg11.dtd">
<svg xmlns:xlink="http://www.w3.org/1999/xlink" width="720pt" height="432pt" viewBox="0 0 720 432" xmlns="http://www.w3.org/2000/svg" version="1.1">
 <metadata>
  <rdf:RDF xmlns:dc="http://purl.org/dc/elements/1.1/" xmlns:cc="http://creativecommons.org/ns#" xmlns:rdf="http://www.w3.org/1999/02/22-rdf-syntax-ns#">
   <cc:Work>
    <dc:type rdf:resource="http://purl.org/dc/dcmitype/StillImage"/>
    <dc:date>2026-04-06T16:23:13.390581</dc:date>
    <dc:format>image/svg+xml</dc:format>
    <dc:creator>
     <cc:Agent>
      <dc:title>Matplotlib v3.10.3, https://matplotlib.org/</dc:title>
     </cc:Agent>
    </dc:creator>
   </cc:Work>
  </rdf:RDF>
 </metadata>
 <defs>
  <style type="text/css">*{stroke-linejoin: round; stroke-linecap: butt}</style>
 </defs>
 <g id="figure_1">
  <g id="patch_1">
   <path d="M 0 432 
L 720 432 
L 720 0 
L 0 0 
z
" style="fill: #ffffff"/>
  </g>
  <g id="axes_1">
   <g id="patch_2">
    <path d="M 44.615 390.04 
L 696.4425 390.04 
L 696.4425 69.16 
L 44.615 69.16 
z
" style="fill: #ffffff"/>
   </g>
   <g id="axes_2">
    <g id="patch_3">
     <path d="M 44.615 69.16 
L 696.4425 69.16 
L 696.4425 69.16 
L 44.615 69.16 
z
" style="fill: #ffffff"/>
    </g>
    <g id="matplotlib.axis_1">
     <g id="xtick_1">
      <g id="line2d_1">
       <defs>
        <path id="m6b9339b15c" d="M 0 0 
L 0 -3.5 
" style="stroke: #000000; stroke-width: 0.8"/>
       </defs>
       <g>
        <use xlink:href="#m6b9339b15c" x="44.615" y="69.16" style="stroke: #000000; stroke-width: 0.8"/>
       </g>
      </g>
      <g id="text_1">
       <!-- 0 -->
       <g transform="translate(41.43375 60.080313) scale(0.1 -0.1)">
        <defs>
         <path id="DejaVuSans-30" d="M 2034 4250 
Q 1547 4250 1301 3770 
Q 1056 3291 1056 2328 
Q 1056 1369 1301 889 
Q 1547 409 2034 409 
Q 2525 409 2770 889 
Q 3016 1369 3016 2328 
Q 3016 3291 2770 3770 
Q 2525 4250 2034 4250 
z
M 2034 4750 
Q 2819 4750 3233 4129 
Q 3647 3509 3647 2328 
Q 3647 1150 3233 529 
Q 2819 -91 2034 -91 
Q 1250 -91 836 529 
Q 422 1150 422 2328 
Q 422 3509 836 4129 
Q 1250 4750 2034 4750 
z
" transform="scale(0.015625)"/>
        </defs>
        <use xlink:href="#DejaVuSans-30"/>
       </g>
      </g>
     </g>
     <g id="xtick_2">
      <g id="line2d_2">
       <g>
        <use xlink:href="#m6b9339b15c" x="137.733214" y="69.16" style="stroke: #000000; stroke-width: 0.8"/>
       </g>
      </g>
      <g id="text_2">
       <!-- 500 -->
       <g transform="translate(128.189464 60.080313) scale(0.1 -0.1)">
        <defs>
         <path id="DejaVuSans-35" d="M 691 4666 
L 3169 4666 
L 3169 4134 
L 1269 4134 
L 1269 2991 
Q 1406 3038 1543 3061 
Q 1681 3084 1819 3084 
Q 2600 3084 3056 2656 
Q 3513 2228 3513 1497 
Q 3513 744 3044 326 
Q 2575 -91 1722 -91 
Q 1428 -91 1123 -41 
Q 819 9 494 109 
L 494 744 
Q 775 591 1075 516 
Q 1375 441 1709 441 
Q 2250 441 2565 725 
Q 2881 1009 2881 1497 
Q 2881 1984 2565 2268 
Q 2250 2553 1709 2553 
Q 1456 2553 1204 2497 
Q 953 2441 691 2322 
L 691 4666 
z
" transform="scale(0.015625)"/>
        </defs>
        <use xlink:href="#DejaVuSans-35"/>
        <use xlink:href="#DejaVuSans-30" transform="translate(63.623047 0)"/>
        <use xlink:href="#DejaVuSans-30" transform="translate(127.246094 0)"/>
       </g>
      </g>
     </g>
     <g id="xtick_3">
      <g id="line2d_3">
       <g>
        <use xlink:href="#m6b9339b15c" x="230.851429" y="69.16" style="stroke: #000000; stroke-width: 0.8"/>
       </g>
      </g>
      <g id="text_3">
       <!-- 1000 -->
       <g transform="translate(218.126429 60.080313) scale(0.1 -0.1)">
        <defs>
         <path id="DejaVuSans-31" d="M 794 531 
L 1825 531 
L 1825 4091 
L 703 3866 
L 703 4441 
L 1819 4666 
L 2450 4666 
L 2450 531 
L 3481 531 
L 3481 0 
L 794 0 
L 794 531 
z
" transform="scale(0.015625)"/>
        </defs>
        <use xlink:href="#DejaVuSans-31"/>
        <use xlink:href="#DejaVuSans-30" transform="translate(63.623047 0)"/>
        <use xlink:href="#DejaVuSans-30" transform="translate(127.246094 0)"/>
        <use xlink:href="#DejaVuSans-30" transform="translate(190.869141 0)"/>
       </g>
      </g>
     </g>
     <g id="xtick_4">
      <g id="line2d_4">
       <g>
        <use xlink:href="#m6b9339b15c" x="323.969643" y="69.16" style="stroke: #000000; stroke-width: 0.8"/>
       </g>
      </g>
      <g id="text_4">
       <!-- 1500 -->
       <g transform="translate(311.244643 60.080313) scale(0.1 -0.1)">
        <use xlink:href="#DejaVuSans-31"/>
        <use xlink:href="#DejaVuSans-35" transform="translate(63.623047 0)"/>
        <use xlink:href="#DejaVuSans-30" transform="translate(127.246094 0)"/>
        <use xlink:href="#DejaVuSans-30" transform="translate(190.869141 0)"/>
       </g>
      </g>
     </g>
     <g id="xtick_5">
      <g id="line2d_5">
       <g>
        <use xlink:href="#m6b9339b15c" x="417.087857" y="69.16" style="stroke: #000000; stroke-width: 0.8"/>
       </g>
      </g>
      <g id="text_5">
       <!-- 2000 -->
       <g transform="translate(404.362857 60.080313) scale(0.1 -0.1)">
        <defs>
         <path id="DejaVuSans-32" d="M 1228 531 
L 3431 531 
L 3431 0 
L 469 0 
L 469 531 
Q 828 903 1448 1529 
Q 2069 2156 2228 2338 
Q 2531 2678 2651 2914 
Q 2772 3150 2772 3378 
Q 2772 3750 2511 3984 
Q 2250 4219 1831 4219 
Q 1534 4219 1204 4116 
Q 875 4013 500 3803 
L 500 4441 
Q 881 4594 1212 4672 
Q 1544 4750 1819 4750 
Q 2544 4750 2975 4387 
Q 3406 4025 3406 3419 
Q 3406 3131 3298 2873 
Q 3191 2616 2906 2266 
Q 2828 2175 2409 1742 
Q 1991 1309 1228 531 
z
" transform="scale(0.015625)"/>
        </defs>
        <use xlink:href="#DejaVuSans-32"/>
        <use xlink:href="#DejaVuSans-30" transform="translate(63.623047 0)"/>
        <use xlink:href="#DejaVuSans-30" transform="translate(127.246094 0)"/>
        <use xlink:href="#DejaVuSans-30" transform="translate(190.869141 0)"/>
       </g>
      </g>
     </g>
     <g id="xtick_6">
      <g id="line2d_6">
       <g>
        <use xlink:href="#m6b9339b15c" x="510.206071" y="69.16" style="stroke: #000000; stroke-width: 0.8"/>
       </g>
      </g>
      <g id="text_6">
       <!-- 2500 -->
       <g transform="translate(497.481071 60.080313) scale(0.1 -0.1)">
        <use xlink:href="#DejaVuSans-32"/>
        <use xlink:href="#DejaVuSans-35" transform="translate(63.623047 0)"/>
        <use xlink:href="#DejaVuSans-30" transform="translate(127.246094 0)"/>
        <use xlink:href="#DejaVuSans-30" transform="translate(190.869141 0)"/>
       </g>
      </g>
     </g>
     <g id="xtick_7">
      <g id="line2d_7">
       <g>
        <use xlink:href="#m6b9339b15c" x="603.324286" y="69.16" style="stroke: #000000; stroke-width: 0.8"/>
       </g>
      </g>
      <g id="text_7">
       <!-- 3000 -->
       <g transform="translate(590.599286 60.080313) scale(0.1 -0.1)">
        <defs>
         <path id="DejaVuSans-33" d="M 2597 2516 
Q 3050 2419 3304 2112 
Q 3559 1806 3559 1356 
Q 3559 666 3084 287 
Q 2609 -91 1734 -91 
Q 1441 -91 1130 -33 
Q 819 25 488 141 
L 488 750 
Q 750 597 1062 519 
Q 1375 441 1716 441 
Q 2309 441 2620 675 
Q 2931 909 2931 1356 
Q 2931 1769 2642 2001 
Q 2353 2234 1838 2234 
L 1294 2234 
L 1294 2753 
L 1863 2753 
Q 2328 2753 2575 2939 
Q 2822 3125 2822 3475 
Q 2822 3834 2567 4026 
Q 2313 4219 1838 4219 
Q 1578 4219 1281 4162 
Q 984 4106 628 3988 
L 628 4550 
Q 988 4650 1302 4700 
Q 1616 4750 1894 4750 
Q 2613 4750 3031 4423 
Q 3450 4097 3450 3541 
Q 3450 3153 3228 2886 
Q 3006 2619 2597 2516 
z
" transform="scale(0.015625)"/>
        </defs>
        <use xlink:href="#DejaVuSans-33"/>
        <use xlink:href="#DejaVuSans-30" transform="translate(63.623047 0)"/>
        <use xlink:href="#DejaVuSans-30" transform="translate(127.246094 0)"/>
        <use xlink:href="#DejaVuSans-30" transform="translate(190.869141 0)"/>
       </g>
      </g>
     </g>
     <g id="xtick_8">
      <g id="line2d_8">
       <g>
        <use xlink:href="#m6b9339b15c" x="696.4425" y="69.16" style="stroke: #000000; stroke-width: 0.8"/>
       </g>
      </g>
      <g id="text_8">
       <!-- 3500 -->
       <g transform="translate(683.7175 60.080313) scale(0.1 -0.1)">
        <use xlink:href="#DejaVuSans-33"/>
        <use xlink:href="#DejaVuSans-35" transform="translate(63.623047 0)"/>
        <use xlink:href="#DejaVuSans-30" transform="translate(127.246094 0)"/>
        <use xlink:href="#DejaVuSans-30" transform="translate(190.869141 0)"/>
       </g>
      </g>
     </g>
     <g id="text_9">
      <!-- Time (hours) -->
      <g transform="translate(338.7475 48.481875) scale(0.1 -0.1)">
       <defs>
        <path id="DejaVuSans-54" d="M -19 4666 
L 3928 4666 
L 3928 4134 
L 2272 4134 
L 2272 0 
L 1638 0 
L 1638 4134 
L -19 4134 
L -19 4666 
z
" transform="scale(0.015625)"/>
        <path id="DejaVuSans-69" d="M 603 3500 
L 1178 3500 
L 1178 0 
L 603 0 
L 603 3500 
z
M 603 4863 
L 1178 4863 
L 1178 4134 
L 603 4134 
L 603 4863 
z
" transform="scale(0.015625)"/>
        <path id="DejaVuSans-6d" d="M 3328 2828 
Q 3544 3216 3844 3400 
Q 4144 3584 4550 3584 
Q 5097 3584 5394 3201 
Q 5691 2819 5691 2113 
L 5691 0 
L 5113 0 
L 5113 2094 
Q 5113 2597 4934 2840 
Q 4756 3084 4391 3084 
Q 3944 3084 3684 2787 
Q 3425 2491 3425 1978 
L 3425 0 
L 2847 0 
L 2847 2094 
Q 2847 2600 2669 2842 
Q 2491 3084 2119 3084 
Q 1678 3084 1418 2786 
Q 1159 2488 1159 1978 
L 1159 0 
L 581 0 
L 581 3500 
L 1159 3500 
L 1159 2956 
Q 1356 3278 1631 3431 
Q 1906 3584 2284 3584 
Q 2666 3584 2933 3390 
Q 3200 3197 3328 2828 
z
" transform="scale(0.015625)"/>
        <path id="DejaVuSans-65" d="M 3597 1894 
L 3597 1613 
L 953 1613 
Q 991 1019 1311 708 
Q 1631 397 2203 397 
Q 2534 397 2845 478 
Q 3156 559 3463 722 
L 3463 178 
Q 3153 47 2828 -22 
Q 2503 -91 2169 -91 
Q 1331 -91 842 396 
Q 353 884 353 1716 
Q 353 2575 817 3079 
Q 1281 3584 2069 3584 
Q 2775 3584 3186 3129 
Q 3597 2675 3597 1894 
z
M 3022 2063 
Q 3016 2534 2758 2815 
Q 2500 3097 2075 3097 
Q 1594 3097 1305 2825 
Q 1016 2553 972 2059 
L 3022 2063 
z
" transform="scale(0.015625)"/>
        <path id="DejaVuSans-20" transform="scale(0.015625)"/>
        <path id="DejaVuSans-28" d="M 1984 4856 
Q 1566 4138 1362 3434 
Q 1159 2731 1159 2009 
Q 1159 1288 1364 580 
Q 1569 -128 1984 -844 
L 1484 -844 
Q 1016 -109 783 600 
Q 550 1309 550 2009 
Q 550 2706 781 3412 
Q 1013 4119 1484 4856 
L 1984 4856 
z
" transform="scale(0.015625)"/>
        <path id="DejaVuSans-68" d="M 3513 2113 
L 3513 0 
L 2938 0 
L 2938 2094 
Q 2938 2591 2744 2837 
Q 2550 3084 2163 3084 
Q 1697 3084 1428 2787 
Q 1159 2491 1159 1978 
L 1159 0 
L 581 0 
L 581 4863 
L 1159 4863 
L 1159 2956 
Q 1366 3272 1645 3428 
Q 1925 3584 2291 3584 
Q 2894 3584 3203 3211 
Q 3513 2838 3513 2113 
z
" transform="scale(0.015625)"/>
        <path id="DejaVuSans-6f" d="M 1959 3097 
Q 1497 3097 1228 2736 
Q 959 2375 959 1747 
Q 959 1119 1226 758 
Q 1494 397 1959 397 
Q 2419 397 2687 759 
Q 2956 1122 2956 1747 
Q 2956 2369 2687 2733 
Q 2419 3097 1959 3097 
z
M 1959 3584 
Q 2709 3584 3137 3096 
Q 3566 2609 3566 1747 
Q 3566 888 3137 398 
Q 2709 -91 1959 -91 
Q 1206 -91 779 398 
Q 353 888 353 1747 
Q 353 2609 779 3096 
Q 1206 3584 1959 3584 
z
" transform="scale(0.015625)"/>
        <path id="DejaVuSans-75" d="M 544 1381 
L 544 3500 
L 1119 3500 
L 1119 1403 
Q 1119 906 1312 657 
Q 1506 409 1894 409 
Q 2359 409 2629 706 
Q 2900 1003 2900 1516 
L 2900 3500 
L 3475 3500 
L 3475 0 
L 2900 0 
L 2900 538 
Q 2691 219 2414 64 
Q 2138 -91 1772 -91 
Q 1169 -91 856 284 
Q 544 659 544 1381 
z
M 1991 3584 
L 1991 3584 
z
" transform="scale(0.015625)"/>
        <path id="DejaVuSans-72" d="M 2631 2963 
Q 2534 3019 2420 3045 
Q 2306 3072 2169 3072 
Q 1681 3072 1420 2755 
Q 1159 2438 1159 1844 
L 1159 0 
L 581 0 
L 581 3500 
L 1159 3500 
L 1159 2956 
Q 1341 3275 1631 3429 
Q 1922 3584 2338 3584 
Q 2397 3584 2469 3576 
Q 2541 3569 2628 3553 
L 2631 2963 
z
" transform="scale(0.015625)"/>
        <path id="DejaVuSans-73" d="M 2834 3397 
L 2834 2853 
Q 2591 2978 2328 3040 
Q 2066 3103 1784 3103 
Q 1356 3103 1142 2972 
Q 928 2841 928 2578 
Q 928 2378 1081 2264 
Q 1234 2150 1697 2047 
L 1894 2003 
Q 2506 1872 2764 1633 
Q 3022 1394 3022 966 
Q 3022 478 2636 193 
Q 2250 -91 1575 -91 
Q 1294 -91 989 -36 
Q 684 19 347 128 
L 347 722 
Q 666 556 975 473 
Q 1284 391 1588 391 
Q 1994 391 2212 530 
Q 2431 669 2431 922 
Q 2431 1156 2273 1281 
Q 2116 1406 1581 1522 
L 1381 1569 
Q 847 1681 609 1914 
Q 372 2147 372 2553 
Q 372 3047 722 3315 
Q 1072 3584 1716 3584 
Q 2034 3584 2315 3537 
Q 2597 3491 2834 3397 
z
" transform="scale(0.015625)"/>
        <path id="DejaVuSans-29" d="M 513 4856 
L 1013 4856 
Q 1481 4119 1714 3412 
Q 1947 2706 1947 2009 
Q 1947 1309 1714 600 
Q 1481 -109 1013 -844 
L 513 -844 
Q 928 -128 1133 580 
Q 1338 1288 1338 2009 
Q 1338 2731 1133 3434 
Q 928 4138 513 4856 
z
" transform="scale(0.015625)"/>
       </defs>
       <use xlink:href="#DejaVuSans-54"/>
       <use xlink:href="#DejaVuSans-69" transform="translate(57.958984 0)"/>
       <use xlink:href="#DejaVuSans-6d" transform="translate(85.742188 0)"/>
       <use xlink:href="#DejaVuSans-65" transform="translate(183.154297 0)"/>
       <use xlink:href="#DejaVuSans-20" transform="translate(244.677734 0)"/>
       <use xlink:href="#DejaVuSans-28" transform="translate(276.464844 0)"/>
       <use xlink:href="#DejaVuSans-68" transform="translate(315.478516 0)"/>
       <use xlink:href="#DejaVuSans-6f" transform="translate(378.857422 0)"/>
       <use xlink:href="#DejaVuSans-75" transform="translate(440.039062 0)"/>
       <use xlink:href="#DejaVuSans-72" transform="translate(503.417969 0)"/>
       <use xlink:href="#DejaVuSans-73" transform="translate(544.53125 0)"/>
       <use xlink:href="#DejaVuSans-29" transform="translate(596.630859 0)"/>
      </g>
     </g>
    </g>
    <g id="matplotlib.axis_2"/>
    <g id="patch_4">
     <path d="M 44.615 69.16 
L 696.4425 69.16 
" style="fill: none; stroke: #000000; stroke-width: 0.8; stroke-linejoin: miter; stroke-linecap: square"/>
    </g>
   </g>
   <g id="PathCollection_1">
    <defs>
     <path id="m43bf3f0637" d="M 0 2.236068 
C 0.593012 2.236068 1.161816 2.000462 1.581139 1.581139 
C 2.000462 1.161816 2.236068 0.593012 2.236068 0 
C 2.236068 -0.593012 2.000462 -1.161816 1.581139 -1.581139 
C 1.161816 -2.000462 0.593012 -2.236068 0 -2.236068 
C -0.593012 -2.236068 -1.161816 -2.000462 -1.581139 -1.581139 
C -2.000462 -1.161816 -2.236068 -0.593012 -2.236068 0 
C -2.236068 0.593012 -2.000462 1.161816 -1.581139 1.581139 
C -1.161816 2.000462 -0.593012 2.236068 0 2.236068 
z
" style="stroke: #1f77b4"/>
    </defs>
    <g clip-path="url(#pc6d8ee48b4)">
     <use xlink:href="#m43bf3f0637" x="46.042876" y="365.149599" style="fill: #1f77b4; stroke: #1f77b4"/>
     <use xlink:href="#m43bf3f0637" x="53.761917" y="374.100003" style="fill: #1f77b4; stroke: #1f77b4"/>
     <use xlink:href="#m43bf3f0637" x="64.015331" y="352.990406" style="fill: #1f77b4; stroke: #1f77b4"/>
     <use xlink:href="#m43bf3f0637" x="72.153271" y="368.686515" style="fill: #1f77b4; stroke: #1f77b4"/>
     <use xlink:href="#m43bf3f0637" x="73.820491" y="370.067373" style="fill: #1f77b4; stroke: #1f77b4"/>
     <use xlink:href="#m43bf3f0637" x="74.044363" y="374.570692" style="fill: #1f77b4; stroke: #1f77b4"/>
     <use xlink:href="#m43bf3f0637" x="74.09181" y="373.528955" style="fill: #1f77b4; stroke: #1f77b4"/>
     <use xlink:href="#m43bf3f0637" x="74.43008" y="372.604817" style="fill: #1f77b4; stroke: #1f77b4"/>
     <use xlink:href="#m43bf3f0637" x="74.959604" y="361.088803" style="fill: #1f77b4; stroke: #1f77b4"/>
     <use xlink:href="#m43bf3f0637" x="76.568689" y="367.078894" style="fill: #1f77b4; stroke: #1f77b4"/>
     <use xlink:href="#m43bf3f0637" x="77.01998" y="356.332447" style="fill: #1f77b4; stroke: #1f77b4"/>
     <use xlink:href="#m43bf3f0637" x="77.221439" y="355.400651" style="fill: #1f77b4; stroke: #1f77b4"/>
     <use xlink:href="#m43bf3f0637" x="82.046638" y="375.387533" style="fill: #1f77b4; stroke: #1f77b4"/>
     <use xlink:href="#m43bf3f0637" x="85.071017" y="324.349039" style="fill: #1f77b4; stroke: #1f77b4"/>
     <use xlink:href="#m43bf3f0637" x="85.18386" y="359.877776" style="fill: #1f77b4; stroke: #1f77b4"/>
     <use xlink:href="#m43bf3f0637" x="85.84649" y="366.805471" style="fill: #1f77b4; stroke: #1f77b4"/>
     <use xlink:href="#m43bf3f0637" x="86.593369" y="364.487946" style="fill: #1f77b4; stroke: #1f77b4"/>
     <use xlink:href="#m43bf3f0637" x="87.065261" y="363.54417" style="fill: #1f77b4; stroke: #1f77b4"/>
     <use xlink:href="#m43bf3f0637" x="87.163406" y="318.245688" style="fill: #1f77b4; stroke: #1f77b4"/>
     <use xlink:href="#m43bf3f0637" x="87.701313" y="321.834944" style="fill: #1f77b4; stroke: #1f77b4"/>
     <use xlink:href="#m43bf3f0637" x="89.667153" y="368.773323" style="fill: #1f77b4; stroke: #1f77b4"/>
     <use xlink:href="#m43bf3f0637" x="91.071428" y="371.406293" style="fill: #1f77b4; stroke: #1f77b4"/>
     <use xlink:href="#m43bf3f0637" x="91.651874" y="370.16754" style="fill: #1f77b4; stroke: #1f77b4"/>
     <use xlink:href="#m43bf3f0637" x="95.491367" y="372.339811" style="fill: #1f77b4; stroke: #1f77b4"/>
     <use xlink:href="#m43bf3f0637" x="112.096692" y="372.693846" style="fill: #1f77b4; stroke: #1f77b4"/>
     <use xlink:href="#m43bf3f0637" x="112.128321" y="374.947325" style="fill: #1f77b4; stroke: #1f77b4"/>
     <use xlink:href="#m43bf3f0637" x="112.192552" y="367.168449" style="fill: #1f77b4; stroke: #1f77b4"/>
     <use xlink:href="#m43bf3f0637" x="112.360793" y="357.025031" style="fill: #1f77b4; stroke: #1f77b4"/>
     <use xlink:href="#m43bf3f0637" x="112.579519" y="356.11656" style="fill: #1f77b4; stroke: #1f77b4"/>
     <use xlink:href="#m43bf3f0637" x="112.819569" y="375.145502" style="fill: #1f77b4; stroke: #1f77b4"/>
     <use xlink:href="#m43bf3f0637" x="112.913801" y="351.5749" style="fill: #1f77b4; stroke: #1f77b4"/>
     <use xlink:href="#m43bf3f0637" x="113.059887" y="347.692374" style="fill: #1f77b4; stroke: #1f77b4"/>
     <use xlink:href="#m43bf3f0637" x="113.328452" y="348.940663" style="fill: #1f77b4; stroke: #1f77b4"/>
     <use xlink:href="#m43bf3f0637" x="113.623537" y="365.142348" style="fill: #1f77b4; stroke: #1f77b4"/>
     <use xlink:href="#m43bf3f0637" x="113.704663" y="362.080563" style="fill: #1f77b4; stroke: #1f77b4"/>
     <use xlink:href="#m43bf3f0637" x="143.727368" y="372.971032" style="fill: #1f77b4; stroke: #1f77b4"/>
     <use xlink:href="#m43bf3f0637" x="144.670027" y="344.230906" style="fill: #1f77b4; stroke: #1f77b4"/>
     <use xlink:href="#m43bf3f0637" x="212.194409" y="356.542182" style="fill: #1f77b4; stroke: #1f77b4"/>
     <use xlink:href="#m43bf3f0637" x="341.987073" y="362.199878" style="fill: #1f77b4; stroke: #1f77b4"/>
     <use xlink:href="#m43bf3f0637" x="342.075402" y="359.580101" style="fill: #1f77b4; stroke: #1f77b4"/>
     <use xlink:href="#m43bf3f0637" x="517.353432" y="330.411981" style="fill: #1f77b4; stroke: #1f77b4"/>
     <use xlink:href="#m43bf3f0637" x="529.027872" y="328.883443" style="fill: #1f77b4; stroke: #1f77b4"/>
     <use xlink:href="#m43bf3f0637" x="529.049157" y="334.603576" style="fill: #1f77b4; stroke: #1f77b4"/>
     <use xlink:href="#m43bf3f0637" x="534.233208" y="340.509655" style="fill: #1f77b4; stroke: #1f77b4"/>
     <use xlink:href="#m43bf3f0637" x="573.286384" y="366.844183" style="fill: #1f77b4; stroke: #1f77b4"/>
     <use xlink:href="#m43bf3f0637" x="576.814506" y="351.21234" style="fill: #1f77b4; stroke: #1f77b4"/>
     <use xlink:href="#m43bf3f0637" x="602.050421" y="351.210105" style="fill: #1f77b4; stroke: #1f77b4"/>
     <use xlink:href="#m43bf3f0637" x="602.295155" y="370.340947" style="fill: #1f77b4; stroke: #1f77b4"/>
     <use xlink:href="#m43bf3f0637" x="614.612018" y="358.598445" style="fill: #1f77b4; stroke: #1f77b4"/>
     <use xlink:href="#m43bf3f0637" x="614.928686" y="372.404664" style="fill: #1f77b4; stroke: #1f77b4"/>
     <use xlink:href="#m43bf3f0637" x="634.248578" y="372.682858" style="fill: #1f77b4; stroke: #1f77b4"/>
    </g>
   </g>
   <g id="matplotlib.axis_3">
    <g id="xtick_9">
     <g id="line2d_9">
      <path d="M 44.615 390.04 
L 44.615 69.16 
" clip-path="url(#pc6d8ee48b4)" style="fill: none; stroke: #b0b0b0; stroke-width: 0.8; stroke-linecap: square"/>
     </g>
     <g id="line2d_10">
      <defs>
       <path id="m09b87d34cc" d="M 0 0 
L 0 3.5 
" style="stroke: #000000; stroke-width: 0.8"/>
      </defs>
      <g>
       <use xlink:href="#m09b87d34cc" x="44.615" y="390.04" style="stroke: #000000; stroke-width: 0.8"/>
      </g>
     </g>
     <g id="text_10">
      <!-- 0 -->
      <g transform="translate(41.43375 404.638438) scale(0.1 -0.1)">
       <use xlink:href="#DejaVuSans-30"/>
      </g>
     </g>
    </g>
    <g id="xtick_10">
     <g id="line2d_11">
      <path d="M 178.705229 390.04 
L 178.705229 69.16 
" clip-path="url(#pc6d8ee48b4)" style="fill: none; stroke: #b0b0b0; stroke-width: 0.8; stroke-linecap: square"/>
     </g>
     <g id="line2d_12">
      <g>
       <use xlink:href="#m09b87d34cc" x="178.705229" y="390.04" style="stroke: #000000; stroke-width: 0.8"/>
      </g>
     </g>
     <g id="text_11">
      <!-- 1 -->
      <g transform="translate(175.523979 404.638438) scale(0.1 -0.1)">
       <use xlink:href="#DejaVuSans-31"/>
      </g>
     </g>
    </g>
    <g id="xtick_11">
     <g id="line2d_13">
      <path d="M 312.795457 390.04 
L 312.795457 69.16 
" clip-path="url(#pc6d8ee48b4)" style="fill: none; stroke: #b0b0b0; stroke-width: 0.8; stroke-linecap: square"/>
     </g>
     <g id="line2d_14">
      <g>
       <use xlink:href="#m09b87d34cc" x="312.795457" y="390.04" style="stroke: #000000; stroke-width: 0.8"/>
      </g>
     </g>
     <g id="text_12">
      <!-- 2 -->
      <g transform="translate(309.614207 404.638438) scale(0.1 -0.1)">
       <use xlink:href="#DejaVuSans-32"/>
      </g>
     </g>
    </g>
    <g id="xtick_12">
     <g id="line2d_15">
      <path d="M 446.885686 390.04 
L 446.885686 69.16 
" clip-path="url(#pc6d8ee48b4)" style="fill: none; stroke: #b0b0b0; stroke-width: 0.8; stroke-linecap: square"/>
     </g>
     <g id="line2d_16">
      <g>
       <use xlink:href="#m09b87d34cc" x="446.885686" y="390.04" style="stroke: #000000; stroke-width: 0.8"/>
      </g>
     </g>
     <g id="text_13">
      <!-- 3 -->
      <g transform="translate(443.704436 404.638438) scale(0.1 -0.1)">
       <use xlink:href="#DejaVuSans-33"/>
      </g>
     </g>
    </g>
    <g id="xtick_13">
     <g id="line2d_17">
      <path d="M 580.975914 390.04 
L 580.975914 69.16 
" clip-path="url(#pc6d8ee48b4)" style="fill: none; stroke: #b0b0b0; stroke-width: 0.8; stroke-linecap: square"/>
     </g>
     <g id="line2d_18">
      <g>
       <use xlink:href="#m09b87d34cc" x="580.975914" y="390.04" style="stroke: #000000; stroke-width: 0.8"/>
      </g>
     </g>
     <g id="text_14">
      <!-- 4 -->
      <g transform="translate(577.794664 404.638438) scale(0.1 -0.1)">
       <defs>
        <path id="DejaVuSans-34" d="M 2419 4116 
L 825 1625 
L 2419 1625 
L 2419 4116 
z
M 2253 4666 
L 3047 4666 
L 3047 1625 
L 3713 1625 
L 3713 1100 
L 3047 1100 
L 3047 0 
L 2419 0 
L 2419 1100 
L 313 1100 
L 313 1709 
L 2253 4666 
z
" transform="scale(0.015625)"/>
       </defs>
       <use xlink:href="#DejaVuSans-34"/>
      </g>
     </g>
    </g>
    <g id="text_15">
     <!-- Time since effective reference (months) -->
     <g transform="translate(270.538906 418.316562) scale(0.1 -0.1)">
      <defs>
       <path id="DejaVuSans-6e" d="M 3513 2113 
L 3513 0 
L 2938 0 
L 2938 2094 
Q 2938 2591 2744 2837 
Q 2550 3084 2163 3084 
Q 1697 3084 1428 2787 
Q 1159 2491 1159 1978 
L 1159 0 
L 581 0 
L 581 3500 
L 1159 3500 
L 1159 2956 
Q 1366 3272 1645 3428 
Q 1925 3584 2291 3584 
Q 2894 3584 3203 3211 
Q 3513 2838 3513 2113 
z
" transform="scale(0.015625)"/>
       <path id="DejaVuSans-63" d="M 3122 3366 
L 3122 2828 
Q 2878 2963 2633 3030 
Q 2388 3097 2138 3097 
Q 1578 3097 1268 2742 
Q 959 2388 959 1747 
Q 959 1106 1268 751 
Q 1578 397 2138 397 
Q 2388 397 2633 464 
Q 2878 531 3122 666 
L 3122 134 
Q 2881 22 2623 -34 
Q 2366 -91 2075 -91 
Q 1284 -91 818 406 
Q 353 903 353 1747 
Q 353 2603 823 3093 
Q 1294 3584 2113 3584 
Q 2378 3584 2631 3529 
Q 2884 3475 3122 3366 
z
" transform="scale(0.015625)"/>
       <path id="DejaVuSans-66" d="M 2375 4863 
L 2375 4384 
L 1825 4384 
Q 1516 4384 1395 4259 
Q 1275 4134 1275 3809 
L 1275 3500 
L 2222 3500 
L 2222 3053 
L 1275 3053 
L 1275 0 
L 697 0 
L 697 3053 
L 147 3053 
L 147 3500 
L 697 3500 
L 697 3744 
Q 697 4328 969 4595 
Q 1241 4863 1831 4863 
L 2375 4863 
z
" transform="scale(0.015625)"/>
       <path id="DejaVuSans-74" d="M 1172 4494 
L 1172 3500 
L 2356 3500 
L 2356 3053 
L 1172 3053 
L 1172 1153 
Q 1172 725 1289 603 
Q 1406 481 1766 481 
L 2356 481 
L 2356 0 
L 1766 0 
Q 1100 0 847 248 
Q 594 497 594 1153 
L 594 3053 
L 172 3053 
L 172 3500 
L 594 3500 
L 594 4494 
L 1172 4494 
z
" transform="scale(0.015625)"/>
       <path id="DejaVuSans-76" d="M 191 3500 
L 800 3500 
L 1894 563 
L 2988 3500 
L 3597 3500 
L 2284 0 
L 1503 0 
L 191 3500 
z
" transform="scale(0.015625)"/>
      </defs>
      <use xlink:href="#DejaVuSans-54"/>
      <use xlink:href="#DejaVuSans-69" transform="translate(57.958984 0)"/>
      <use xlink:href="#DejaVuSans-6d" transform="translate(85.742188 0)"/>
      <use xlink:href="#DejaVuSans-65" transform="translate(183.154297 0)"/>
      <use xlink:href="#DejaVuSans-20" transform="translate(244.677734 0)"/>
      <use xlink:href="#DejaVuSans-73" transform="translate(276.464844 0)"/>
      <use xlink:href="#DejaVuSans-69" transform="translate(328.564453 0)"/>
      <use xlink:href="#DejaVuSans-6e" transform="translate(356.347656 0)"/>
      <use xlink:href="#DejaVuSans-63" transform="translate(419.726562 0)"/>
      <use xlink:href="#DejaVuSans-65" transform="translate(474.707031 0)"/>
      <use xlink:href="#DejaVuSans-20" transform="translate(536.230469 0)"/>
      <use xlink:href="#DejaVuSans-65" transform="translate(568.017578 0)"/>
      <use xlink:href="#DejaVuSans-66" transform="translate(629.541016 0)"/>
      <use xlink:href="#DejaVuSans-66" transform="translate(664.746094 0)"/>
      <use xlink:href="#DejaVuSans-65" transform="translate(699.951172 0)"/>
      <use xlink:href="#DejaVuSans-63" transform="translate(761.474609 0)"/>
      <use xlink:href="#DejaVuSans-74" transform="translate(816.455078 0)"/>
      <use xlink:href="#DejaVuSans-69" transform="translate(855.664062 0)"/>
      <use xlink:href="#DejaVuSans-76" transform="translate(883.447266 0)"/>
      <use xlink:href="#DejaVuSans-65" transform="translate(942.626953 0)"/>
      <use xlink:href="#DejaVuSans-20" transform="translate(1004.150391 0)"/>
      <use xlink:href="#DejaVuSans-72" transform="translate(1035.9375 0)"/>
      <use xlink:href="#DejaVuSans-65" transform="translate(1074.800781 0)"/>
      <use xlink:href="#DejaVuSans-66" transform="translate(1136.324219 0)"/>
      <use xlink:href="#DejaVuSans-65" transform="translate(1171.529297 0)"/>
      <use xlink:href="#DejaVuSans-72" transform="translate(1233.052734 0)"/>
      <use xlink:href="#DejaVuSans-65" transform="translate(1271.916016 0)"/>
      <use xlink:href="#DejaVuSans-6e" transform="translate(1333.439453 0)"/>
      <use xlink:href="#DejaVuSans-63" transform="translate(1396.818359 0)"/>
      <use xlink:href="#DejaVuSans-65" transform="translate(1451.798828 0)"/>
      <use xlink:href="#DejaVuSans-20" transform="translate(1513.322266 0)"/>
      <use xlink:href="#DejaVuSans-28" transform="translate(1545.109375 0)"/>
      <use xlink:href="#DejaVuSans-6d" transform="translate(1584.123047 0)"/>
      <use xlink:href="#DejaVuSans-6f" transform="translate(1681.535156 0)"/>
      <use xlink:href="#DejaVuSans-6e" transform="translate(1742.716797 0)"/>
      <use xlink:href="#DejaVuSans-74" transform="translate(1806.095703 0)"/>
      <use xlink:href="#DejaVuSans-68" transform="translate(1845.304688 0)"/>
      <use xlink:href="#DejaVuSans-73" transform="translate(1908.683594 0)"/>
      <use xlink:href="#DejaVuSans-29" transform="translate(1960.783203 0)"/>
     </g>
    </g>
   </g>
   <g id="matplotlib.axis_4">
    <g id="ytick_1">
     <g id="line2d_19">
      <path d="M 44.615 375.454545 
L 696.4425 375.454545 
" clip-path="url(#pc6d8ee48b4)" style="fill: none; stroke: #b0b0b0; stroke-width: 0.8; stroke-linecap: square"/>
     </g>
     <g id="line2d_20">
      <defs>
       <path id="m95ea144ec2" d="M 0 0 
L -3.5 0 
" style="stroke: #000000; stroke-width: 0.8"/>
      </defs>
      <g>
       <use xlink:href="#m95ea144ec2" x="44.615" y="375.454545" style="stroke: #000000; stroke-width: 0.8"/>
      </g>
     </g>
     <g id="text_16">
      <!-- 0 -->
      <g transform="translate(31.2525 379.253764) scale(0.1 -0.1)">
       <use xlink:href="#DejaVuSans-30"/>
      </g>
     </g>
    </g>
    <g id="ytick_2">
     <g id="line2d_21">
      <path d="M 44.615 328.008058 
L 696.4425 328.008058 
" clip-path="url(#pc6d8ee48b4)" style="fill: none; stroke: #b0b0b0; stroke-width: 0.8; stroke-linecap: square"/>
     </g>
     <g id="line2d_22">
      <g>
       <use xlink:href="#m95ea144ec2" x="44.615" y="328.008058" style="stroke: #000000; stroke-width: 0.8"/>
      </g>
     </g>
     <g id="text_17">
      <!-- 2 -->
      <g transform="translate(31.2525 331.807277) scale(0.1 -0.1)">
       <use xlink:href="#DejaVuSans-32"/>
      </g>
     </g>
    </g>
    <g id="ytick_3">
     <g id="line2d_23">
      <path d="M 44.615 280.561571 
L 696.4425 280.561571 
" clip-path="url(#pc6d8ee48b4)" style="fill: none; stroke: #b0b0b0; stroke-width: 0.8; stroke-linecap: square"/>
     </g>
     <g id="line2d_24">
      <g>
       <use xlink:href="#m95ea144ec2" x="44.615" y="280.561571" style="stroke: #000000; stroke-width: 0.8"/>
      </g>
     </g>
     <g id="text_18">
      <!-- 4 -->
      <g transform="translate(31.2525 284.36079) scale(0.1 -0.1)">
       <use xlink:href="#DejaVuSans-34"/>
      </g>
     </g>
    </g>
    <g id="ytick_4">
     <g id="line2d_25">
      <path d="M 44.615 233.115084 
L 696.4425 233.115084 
" clip-path="url(#pc6d8ee48b4)" style="fill: none; stroke: #b0b0b0; stroke-width: 0.8; stroke-linecap: square"/>
     </g>
     <g id="line2d_26">
      <g>
       <use xlink:href="#m95ea144ec2" x="44.615" y="233.115084" style="stroke: #000000; stroke-width: 0.8"/>
      </g>
     </g>
     <g id="text_19">
      <!-- 6 -->
      <g transform="translate(31.2525 236.914303) scale(0.1 -0.1)">
       <defs>
        <path id="DejaVuSans-36" d="M 2113 2584 
Q 1688 2584 1439 2293 
Q 1191 2003 1191 1497 
Q 1191 994 1439 701 
Q 1688 409 2113 409 
Q 2538 409 2786 701 
Q 3034 994 3034 1497 
Q 3034 2003 2786 2293 
Q 2538 2584 2113 2584 
z
M 3366 4563 
L 3366 3988 
Q 3128 4100 2886 4159 
Q 2644 4219 2406 4219 
Q 1781 4219 1451 3797 
Q 1122 3375 1075 2522 
Q 1259 2794 1537 2939 
Q 1816 3084 2150 3084 
Q 2853 3084 3261 2657 
Q 3669 2231 3669 1497 
Q 3669 778 3244 343 
Q 2819 -91 2113 -91 
Q 1303 -91 875 529 
Q 447 1150 447 2328 
Q 447 3434 972 4092 
Q 1497 4750 2381 4750 
Q 2619 4750 2861 4703 
Q 3103 4656 3366 4563 
z
" transform="scale(0.015625)"/>
       </defs>
       <use xlink:href="#DejaVuSans-36"/>
      </g>
     </g>
    </g>
    <g id="ytick_5">
     <g id="line2d_27">
      <path d="M 44.615 185.668597 
L 696.4425 185.668597 
" clip-path="url(#pc6d8ee48b4)" style="fill: none; stroke: #b0b0b0; stroke-width: 0.8; stroke-linecap: square"/>
     </g>
     <g id="line2d_28">
      <g>
       <use xlink:href="#m95ea144ec2" x="44.615" y="185.668597" style="stroke: #000000; stroke-width: 0.8"/>
      </g>
     </g>
     <g id="text_20">
      <!-- 8 -->
      <g transform="translate(31.2525 189.467815) scale(0.1 -0.1)">
       <defs>
        <path id="DejaVuSans-38" d="M 2034 2216 
Q 1584 2216 1326 1975 
Q 1069 1734 1069 1313 
Q 1069 891 1326 650 
Q 1584 409 2034 409 
Q 2484 409 2743 651 
Q 3003 894 3003 1313 
Q 3003 1734 2745 1975 
Q 2488 2216 2034 2216 
z
M 1403 2484 
Q 997 2584 770 2862 
Q 544 3141 544 3541 
Q 544 4100 942 4425 
Q 1341 4750 2034 4750 
Q 2731 4750 3128 4425 
Q 3525 4100 3525 3541 
Q 3525 3141 3298 2862 
Q 3072 2584 2669 2484 
Q 3125 2378 3379 2068 
Q 3634 1759 3634 1313 
Q 3634 634 3220 271 
Q 2806 -91 2034 -91 
Q 1263 -91 848 271 
Q 434 634 434 1313 
Q 434 1759 690 2068 
Q 947 2378 1403 2484 
z
M 1172 3481 
Q 1172 3119 1398 2916 
Q 1625 2713 2034 2713 
Q 2441 2713 2670 2916 
Q 2900 3119 2900 3481 
Q 2900 3844 2670 4047 
Q 2441 4250 2034 4250 
Q 1625 4250 1398 4047 
Q 1172 3844 1172 3481 
z
" transform="scale(0.015625)"/>
       </defs>
       <use xlink:href="#DejaVuSans-38"/>
      </g>
     </g>
    </g>
    <g id="ytick_6">
     <g id="line2d_29">
      <path d="M 44.615 138.22211 
L 696.4425 138.22211 
" clip-path="url(#pc6d8ee48b4)" style="fill: none; stroke: #b0b0b0; stroke-width: 0.8; stroke-linecap: square"/>
     </g>
     <g id="line2d_30">
      <g>
       <use xlink:href="#m95ea144ec2" x="44.615" y="138.22211" style="stroke: #000000; stroke-width: 0.8"/>
      </g>
     </g>
     <g id="text_21">
      <!-- 10 -->
      <g transform="translate(24.89 142.021328) scale(0.1 -0.1)">
       <use xlink:href="#DejaVuSans-31"/>
       <use xlink:href="#DejaVuSans-30" transform="translate(63.623047 0)"/>
      </g>
     </g>
    </g>
    <g id="ytick_7">
     <g id="line2d_31">
      <path d="M 44.615 90.775622 
L 696.4425 90.775622 
" clip-path="url(#pc6d8ee48b4)" style="fill: none; stroke: #b0b0b0; stroke-width: 0.8; stroke-linecap: square"/>
     </g>
     <g id="line2d_32">
      <g>
       <use xlink:href="#m95ea144ec2" x="44.615" y="90.775622" style="stroke: #000000; stroke-width: 0.8"/>
      </g>
     </g>
     <g id="text_22">
      <!-- 12 -->
      <g transform="translate(24.89 94.574841) scale(0.1 -0.1)">
       <use xlink:href="#DejaVuSans-31"/>
       <use xlink:href="#DejaVuSans-32" transform="translate(63.623047 0)"/>
      </g>
     </g>
    </g>
    <g id="text_23">
     <!-- Distance (km) -->
     <g transform="translate(18.810313 264.71875) rotate(-90) scale(0.1 -0.1)">
      <defs>
       <path id="DejaVuSans-44" d="M 1259 4147 
L 1259 519 
L 2022 519 
Q 2988 519 3436 956 
Q 3884 1394 3884 2338 
Q 3884 3275 3436 3711 
Q 2988 4147 2022 4147 
L 1259 4147 
z
M 628 4666 
L 1925 4666 
Q 3281 4666 3915 4102 
Q 4550 3538 4550 2338 
Q 4550 1131 3912 565 
Q 3275 0 1925 0 
L 628 0 
L 628 4666 
z
" transform="scale(0.015625)"/>
       <path id="DejaVuSans-61" d="M 2194 1759 
Q 1497 1759 1228 1600 
Q 959 1441 959 1056 
Q 959 750 1161 570 
Q 1363 391 1709 391 
Q 2188 391 2477 730 
Q 2766 1069 2766 1631 
L 2766 1759 
L 2194 1759 
z
M 3341 1997 
L 3341 0 
L 2766 0 
L 2766 531 
Q 2569 213 2275 61 
Q 1981 -91 1556 -91 
Q 1019 -91 701 211 
Q 384 513 384 1019 
Q 384 1609 779 1909 
Q 1175 2209 1959 2209 
L 2766 2209 
L 2766 2266 
Q 2766 2663 2505 2880 
Q 2244 3097 1772 3097 
Q 1472 3097 1187 3025 
Q 903 2953 641 2809 
L 641 3341 
Q 956 3463 1253 3523 
Q 1550 3584 1831 3584 
Q 2591 3584 2966 3190 
Q 3341 2797 3341 1997 
z
" transform="scale(0.015625)"/>
       <path id="DejaVuSans-6b" d="M 581 4863 
L 1159 4863 
L 1159 1991 
L 2875 3500 
L 3609 3500 
L 1753 1863 
L 3688 0 
L 2938 0 
L 1159 1709 
L 1159 0 
L 581 0 
L 581 4863 
z
" transform="scale(0.015625)"/>
      </defs>
      <use xlink:href="#DejaVuSans-44"/>
      <use xlink:href="#DejaVuSans-69" transform="translate(77.001953 0)"/>
      <use xlink:href="#DejaVuSans-73" transform="translate(104.785156 0)"/>
      <use xlink:href="#DejaVuSans-74" transform="translate(156.884766 0)"/>
      <use xlink:href="#DejaVuSans-61" transform="translate(196.09375 0)"/>
      <use xlink:href="#DejaVuSans-6e" transform="translate(257.373047 0)"/>
      <use xlink:href="#DejaVuSans-63" transform="translate(320.751953 0)"/>
      <use xlink:href="#DejaVuSans-65" transform="translate(375.732422 0)"/>
      <use xlink:href="#DejaVuSans-20" transform="translate(437.255859 0)"/>
      <use xlink:href="#DejaVuSans-28" transform="translate(469.042969 0)"/>
      <use xlink:href="#DejaVuSans-6b" transform="translate(508.056641 0)"/>
      <use xlink:href="#DejaVuSans-6d" transform="translate(565.966797 0)"/>
      <use xlink:href="#DejaVuSans-29" transform="translate(663.378906 0)"/>
     </g>
    </g>
   </g>
   <g id="line2d_33">
    <path d="M 44.615 375.454545 
L 46.248653 374.611399 
L 49.515959 373.994173 
L 54.416917 373.389267 
L 62.585182 372.658146 
L 74.020752 371.877379 
L 90.357281 370.993035 
L 113.228421 369.990334 
L 144.267826 368.869363 
L 185.109148 367.635529 
L 237.38604 366.295633 
L 302.732155 364.856362 
L 382.781147 363.323784 
L 480.80032 361.677423 
L 598.423327 359.930577 
L 696.4425 358.612713 
L 696.4425 358.612713 
" clip-path="url(#pc6d8ee48b4)" style="fill: none; stroke-dasharray: 6.66,2.88; stroke-dashoffset: 0; stroke: #1f77b4; stroke-width: 1.8"/>
   </g>
   <g id="line2d_34">
    <path d="M 44.615 375.454545 
L 46.015274 372.986066 
L 47.415548 371.963589 
L 50.216096 370.517587 
L 53.016643 369.408031 
L 57.217465 368.049107 
L 62.818561 366.554317 
L 69.81993 364.981675 
L 78.221574 363.361516 
L 88.023491 361.710634 
L 100.625956 359.842511 
L 114.628695 357.999761 
L 131.431982 356.01772 
L 151.035816 353.934842 
L 173.440199 351.777724 
L 200.045403 349.447502 
L 230.851429 346.986653 
L 265.858276 344.426241 
L 305.065945 341.788976 
L 349.87471 339.007885 
L 398.884296 336.190978 
L 454.895252 333.200986 
L 516.507304 330.139289 
L 585.120725 326.956622 
L 603.324286 326.14671 
L 603.324286 326.14671 
" clip-path="url(#pc6d8ee48b4)" style="fill: none; stroke: #ff7f0e; stroke-width: 1.8; stroke-linecap: square"/>
   </g>
   <g id="line2d_35">
    <path d="M 44.615 375.454545 
L 45.081758 372.986066 
L 46.015274 371.179014 
L 46.94879 369.934858 
L 48.349064 368.472632 
L 50.216096 366.903482 
L 52.549885 365.276744 
L 55.350433 363.616135 
L 58.617739 361.934127 
L 62.818561 360.038897 
L 67.48614 358.17519 
L 73.087236 356.175106 
L 79.621847 354.076887 
L 87.556733 351.777724 
L 96.425134 349.447502 
L 106.69381 346.986653 
L 118.362759 344.426241 
L 131.431982 341.788976 
L 146.368237 339.007885 
L 163.171523 336.113459 
L 181.841842 333.128942 
L 202.379193 330.072105 
L 225.250333 326.893841 
L 230.851429 326.14671 
L 230.851429 326.14671 
" clip-path="url(#pc6d8ee48b4)" style="fill: none; stroke: #2ca02c; stroke-width: 1.8; stroke-linecap: square"/>
   </g>
   <g id="line2d_36">
    <path d="M 44.615 375.454545 
L 44.941731 370.538201 
L 45.595192 366.939186 
L 46.575383 363.412009 
L 47.555575 360.705511 
L 48.862497 357.728412 
L 50.49615 354.59626 
L 52.456534 351.369472 
L 54.743648 348.081495 
L 57.357492 344.751981 
L 60.298068 341.393108 
L 63.565373 338.012778 
L 67.15941 334.616317 
L 71.080177 331.207441 
L 75.654405 327.535942 
L 80.555363 323.891485 
L 86.109783 320.050152 
L 91.990934 316.253913 
L 98.525545 312.302951 
L 105.713618 308.224539 
L 113.555152 304.04051 
L 122.050147 299.768377 
L 131.198603 295.422248 
L 141.00052 291.013548 
L 151.782629 286.415751 
L 163.218199 281.785594 
L 174.9805 277.250632 
L 174.9805 277.250632 
" clip-path="url(#pc6d8ee48b4)" style="fill: none; stroke: #d62728; stroke-width: 1.8; stroke-linecap: square"/>
   </g>
   <g id="line2d_37">
    <path d="M 44.615 375.454545 
L 46.248653 360.850825 
L 47.882306 354.801766 
L 49.515959 350.160159 
L 51.149612 346.247104 
L 52.783264 342.799633 
L 54.416917 339.682882 
L 57.684223 334.148986 
L 60.951529 329.273526 
L 64.218835 324.865773 
L 67.48614 320.812426 
L 70.753446 317.039663 
L 75.654405 311.798403 
L 80.555363 306.957024 
L 85.456322 302.435942 
L 90.357281 298.17892 
L 96.891892 292.843426 
L 103.426504 287.832222 
L 109.961115 283.092507 
L 118.12938 277.489809 
L 126.297644 272.190647 
L 134.465909 267.150455 
L 144.267826 261.395841 
L 154.069743 255.91794 
L 163.87166 250.680302 
L 175.307231 244.834897 
L 186.742801 239.240108 
L 199.812024 233.115084 
L 212.881247 227.242968 
L 227.584123 220.903294 
L 242.286999 214.813619 
L 258.623528 208.307323 
L 274.960056 202.044971 
L 292.930238 195.407786 
L 310.90042 189.006722 
L 330.504254 182.265481 
L 350.108089 175.75167 
L 371.345576 168.926748 
L 394.216717 161.82053 
L 417.087857 154.9432 
L 441.59265 147.805071 
L 467.731096 140.429904 
L 495.503195 132.839317 
L 523.275294 125.479114 
L 552.681046 117.915127 
L 583.720451 110.164786 
L 616.393509 102.24395 
L 650.700219 94.167021 
L 685.00693 86.315629 
L 696.4425 83.745455 
L 696.4425 83.745455 
" clip-path="url(#pc6d8ee48b4)" style="fill: none; stroke-dasharray: 6.66,2.88; stroke-dashoffset: 0; stroke: #9467bd; stroke-width: 1.8"/>
   </g>
   <g id="patch_5">
    <path d="M 44.615 390.04 
L 44.615 69.16 
" style="fill: none; stroke: #000000; stroke-width: 0.8; stroke-linejoin: miter; stroke-linecap: square"/>
   </g>
   <g id="patch_6">
    <path d="M 696.4425 390.04 
L 696.4425 69.16 
" style="fill: none; stroke: #000000; stroke-width: 0.8; stroke-linejoin: miter; stroke-linecap: square"/>
   </g>
   <g id="patch_7">
    <path d="M 44.615 390.04 
L 696.4425 390.04 
" style="fill: none; stroke: #000000; stroke-width: 0.8; stroke-linejoin: miter; stroke-linecap: square"/>
   </g>
   <g id="patch_8">
    <path d="M 44.615 69.16 
L 696.4425 69.16 
" style="fill: none; stroke: #000000; stroke-width: 0.8; stroke-linejoin: miter; stroke-linecap: square"/>
   </g>
   <g id="text_24">
    <!-- Apparent diffusion regimes (0 ≤ t ≤ 3500 h, ref=rain, delay=13.0 d) -->
    <g transform="translate(164.883438 20.883438) scale(0.12 -0.12)">
     <defs>
      <path id="DejaVuSans-41" d="M 2188 4044 
L 1331 1722 
L 3047 1722 
L 2188 4044 
z
M 1831 4666 
L 2547 4666 
L 4325 0 
L 3669 0 
L 3244 1197 
L 1141 1197 
L 716 0 
L 50 0 
L 1831 4666 
z
" transform="scale(0.015625)"/>
      <path id="DejaVuSans-70" d="M 1159 525 
L 1159 -1331 
L 581 -1331 
L 581 3500 
L 1159 3500 
L 1159 2969 
Q 1341 3281 1617 3432 
Q 1894 3584 2278 3584 
Q 2916 3584 3314 3078 
Q 3713 2572 3713 1747 
Q 3713 922 3314 415 
Q 2916 -91 2278 -91 
Q 1894 -91 1617 61 
Q 1341 213 1159 525 
z
M 3116 1747 
Q 3116 2381 2855 2742 
Q 2594 3103 2138 3103 
Q 1681 3103 1420 2742 
Q 1159 2381 1159 1747 
Q 1159 1113 1420 752 
Q 1681 391 2138 391 
Q 2594 391 2855 752 
Q 3116 1113 3116 1747 
z
" transform="scale(0.015625)"/>
      <path id="DejaVuSans-64" d="M 2906 2969 
L 2906 4863 
L 3481 4863 
L 3481 0 
L 2906 0 
L 2906 525 
Q 2725 213 2448 61 
Q 2172 -91 1784 -91 
Q 1150 -91 751 415 
Q 353 922 353 1747 
Q 353 2572 751 3078 
Q 1150 3584 1784 3584 
Q 2172 3584 2448 3432 
Q 2725 3281 2906 2969 
z
M 947 1747 
Q 947 1113 1208 752 
Q 1469 391 1925 391 
Q 2381 391 2643 752 
Q 2906 1113 2906 1747 
Q 2906 2381 2643 2742 
Q 2381 3103 1925 3103 
Q 1469 3103 1208 2742 
Q 947 2381 947 1747 
z
" transform="scale(0.015625)"/>
      <path id="DejaVuSans-67" d="M 2906 1791 
Q 2906 2416 2648 2759 
Q 2391 3103 1925 3103 
Q 1463 3103 1205 2759 
Q 947 2416 947 1791 
Q 947 1169 1205 825 
Q 1463 481 1925 481 
Q 2391 481 2648 825 
Q 2906 1169 2906 1791 
z
M 3481 434 
Q 3481 -459 3084 -895 
Q 2688 -1331 1869 -1331 
Q 1566 -1331 1297 -1286 
Q 1028 -1241 775 -1147 
L 775 -588 
Q 1028 -725 1275 -790 
Q 1522 -856 1778 -856 
Q 2344 -856 2625 -561 
Q 2906 -266 2906 331 
L 2906 616 
Q 2728 306 2450 153 
Q 2172 0 1784 0 
Q 1141 0 747 490 
Q 353 981 353 1791 
Q 353 2603 747 3093 
Q 1141 3584 1784 3584 
Q 2172 3584 2450 3431 
Q 2728 3278 2906 2969 
L 2906 3500 
L 3481 3500 
L 3481 434 
z
" transform="scale(0.015625)"/>
      <path id="DejaVuSans-2264" d="M 4684 3175 
L 1684 2309 
L 4684 1453 
L 4684 897 
L 678 2047 
L 678 2578 
L 4684 3725 
L 4684 3175 
z
M 678 531 
L 4684 531 
L 4684 0 
L 678 0 
L 678 531 
z
" transform="scale(0.015625)"/>
      <path id="DejaVuSans-2c" d="M 750 794 
L 1409 794 
L 1409 256 
L 897 -744 
L 494 -744 
L 750 256 
L 750 794 
z
" transform="scale(0.015625)"/>
      <path id="DejaVuSans-3d" d="M 678 2906 
L 4684 2906 
L 4684 2381 
L 678 2381 
L 678 2906 
z
M 678 1631 
L 4684 1631 
L 4684 1100 
L 678 1100 
L 678 1631 
z
" transform="scale(0.015625)"/>
      <path id="DejaVuSans-6c" d="M 603 4863 
L 1178 4863 
L 1178 0 
L 603 0 
L 603 4863 
z
" transform="scale(0.015625)"/>
      <path id="DejaVuSans-79" d="M 2059 -325 
Q 1816 -950 1584 -1140 
Q 1353 -1331 966 -1331 
L 506 -1331 
L 506 -850 
L 844 -850 
Q 1081 -850 1212 -737 
Q 1344 -625 1503 -206 
L 1606 56 
L 191 3500 
L 800 3500 
L 1894 763 
L 2988 3500 
L 3597 3500 
L 2059 -325 
z
" transform="scale(0.015625)"/>
      <path id="DejaVuSans-2e" d="M 684 794 
L 1344 794 
L 1344 0 
L 684 0 
L 684 794 
z
" transform="scale(0.015625)"/>
     </defs>
     <use xlink:href="#DejaVuSans-41"/>
     <use xlink:href="#DejaVuSans-70" transform="translate(68.408203 0)"/>
     <use xlink:href="#DejaVuSans-70" transform="translate(131.884766 0)"/>
     <use xlink:href="#DejaVuSans-61" transform="translate(195.361328 0)"/>
     <use xlink:href="#DejaVuSans-72" transform="translate(256.640625 0)"/>
     <use xlink:href="#DejaVuSans-65" transform="translate(295.503906 0)"/>
     <use xlink:href="#DejaVuSans-6e" transform="translate(357.027344 0)"/>
     <use xlink:href="#DejaVuSans-74" transform="translate(420.40625 0)"/>
     <use xlink:href="#DejaVuSans-20" transform="translate(459.615234 0)"/>
     <use xlink:href="#DejaVuSans-64" transform="translate(491.402344 0)"/>
     <use xlink:href="#DejaVuSans-69" transform="translate(554.878906 0)"/>
     <use xlink:href="#DejaVuSans-66" transform="translate(582.662109 0)"/>
     <use xlink:href="#DejaVuSans-66" transform="translate(617.867188 0)"/>
     <use xlink:href="#DejaVuSans-75" transform="translate(653.072266 0)"/>
     <use xlink:href="#DejaVuSans-73" transform="translate(716.451172 0)"/>
     <use xlink:href="#DejaVuSans-69" transform="translate(768.550781 0)"/>
     <use xlink:href="#DejaVuSans-6f" transform="translate(796.333984 0)"/>
     <use xlink:href="#DejaVuSans-6e" transform="translate(857.515625 0)"/>
     <use xlink:href="#DejaVuSans-20" transform="translate(920.894531 0)"/>
     <use xlink:href="#DejaVuSans-72" transform="translate(952.681641 0)"/>
     <use xlink:href="#DejaVuSans-65" transform="translate(991.544922 0)"/>
     <use xlink:href="#DejaVuSans-67" transform="translate(1053.068359 0)"/>
     <use xlink:href="#DejaVuSans-69" transform="translate(1116.544922 0)"/>
     <use xlink:href="#DejaVuSans-6d" transform="translate(1144.328125 0)"/>
     <use xlink:href="#DejaVuSans-65" transform="translate(1241.740234 0)"/>
     <use xlink:href="#DejaVuSans-73" transform="translate(1303.263672 0)"/>
     <use xlink:href="#DejaVuSans-20" transform="translate(1355.363281 0)"/>
     <use xlink:href="#DejaVuSans-28" transform="translate(1387.150391 0)"/>
     <use xlink:href="#DejaVuSans-30" transform="translate(1426.164062 0)"/>
     <use xlink:href="#DejaVuSans-20" transform="translate(1489.787109 0)"/>
     <use xlink:href="#DejaVuSans-2264" transform="translate(1521.574219 0)"/>
     <use xlink:href="#DejaVuSans-20" transform="translate(1605.363281 0)"/>
     <use xlink:href="#DejaVuSans-74" transform="translate(1637.150391 0)"/>
     <use xlink:href="#DejaVuSans-20" transform="translate(1676.359375 0)"/>
     <use xlink:href="#DejaVuSans-2264" transform="translate(1708.146484 0)"/>
     <use xlink:href="#DejaVuSans-20" transform="translate(1791.935547 0)"/>
     <use xlink:href="#DejaVuSans-33" transform="translate(1823.722656 0)"/>
     <use xlink:href="#DejaVuSans-35" transform="translate(1887.345703 0)"/>
     <use xlink:href="#DejaVuSans-30" transform="translate(1950.96875 0)"/>
     <use xlink:href="#DejaVuSans-30" transform="translate(2014.591797 0)"/>
     <use xlink:href="#DejaVuSans-20" transform="translate(2078.214844 0)"/>
     <use xlink:href="#DejaVuSans-68" transform="translate(2110.001953 0)"/>
     <use xlink:href="#DejaVuSans-2c" transform="translate(2173.380859 0)"/>
     <use xlink:href="#DejaVuSans-20" transform="translate(2205.167969 0)"/>
     <use xlink:href="#DejaVuSans-72" transform="translate(2236.955078 0)"/>
     <use xlink:href="#DejaVuSans-65" transform="translate(2275.818359 0)"/>
     <use xlink:href="#DejaVuSans-66" transform="translate(2337.341797 0)"/>
     <use xlink:href="#DejaVuSans-3d" transform="translate(2372.546875 0)"/>
     <use xlink:href="#DejaVuSans-72" transform="translate(2456.335938 0)"/>
     <use xlink:href="#DejaVuSans-61" transform="translate(2497.449219 0)"/>
     <use xlink:href="#DejaVuSans-69" transform="translate(2558.728516 0)"/>
     <use xlink:href="#DejaVuSans-6e" transform="translate(2586.511719 0)"/>
     <use xlink:href="#DejaVuSans-2c" transform="translate(2649.890625 0)"/>
     <use xlink:href="#DejaVuSans-20" transform="translate(2681.677734 0)"/>
     <use xlink:href="#DejaVuSans-64" transform="translate(2713.464844 0)"/>
     <use xlink:href="#DejaVuSans-65" transform="translate(2776.941406 0)"/>
     <use xlink:href="#DejaVuSans-6c" transform="translate(2838.464844 0)"/>
     <use xlink:href="#DejaVuSans-61" transform="translate(2866.248047 0)"/>
     <use xlink:href="#DejaVuSans-79" transform="translate(2927.527344 0)"/>
     <use xlink:href="#DejaVuSans-3d" transform="translate(2986.707031 0)"/>
     <use xlink:href="#DejaVuSans-31" transform="translate(3070.496094 0)"/>
     <use xlink:href="#DejaVuSans-33" transform="translate(3134.119141 0)"/>
     <use xlink:href="#DejaVuSans-2e" transform="translate(3197.742188 0)"/>
     <use xlink:href="#DejaVuSans-30" transform="translate(3229.529297 0)"/>
     <use xlink:href="#DejaVuSans-20" transform="translate(3293.152344 0)"/>
     <use xlink:href="#DejaVuSans-64" transform="translate(3324.939453 0)"/>
     <use xlink:href="#DejaVuSans-29" transform="translate(3388.416016 0)"/>
    </g>
   </g>
   <g id="legend_1">
    <g id="patch_9">
     <path d="M 51.615 179.906875 
L 153.822812 179.906875 
Q 155.822812 179.906875 155.822812 177.906875 
L 155.822812 76.16 
Q 155.822812 74.16 153.822812 74.16 
L 51.615 74.16 
Q 49.615 74.16 49.615 76.16 
L 49.615 177.906875 
Q 49.615 179.906875 51.615 179.906875 
z
" style="fill: #ffffff; opacity: 0.8; stroke: #cccccc; stroke-linejoin: miter"/>
    </g>
    <g id="text_25">
     <!-- Reference curves -->
     <g transform="translate(59.339219 85.758438) scale(0.1 -0.1)">
      <defs>
       <path id="DejaVuSans-52" d="M 2841 2188 
Q 3044 2119 3236 1894 
Q 3428 1669 3622 1275 
L 4263 0 
L 3584 0 
L 2988 1197 
Q 2756 1666 2539 1819 
Q 2322 1972 1947 1972 
L 1259 1972 
L 1259 0 
L 628 0 
L 628 4666 
L 2053 4666 
Q 2853 4666 3247 4331 
Q 3641 3997 3641 3322 
Q 3641 2881 3436 2590 
Q 3231 2300 2841 2188 
z
M 1259 4147 
L 1259 2491 
L 2053 2491 
Q 2509 2491 2742 2702 
Q 2975 2913 2975 3322 
Q 2975 3731 2742 3939 
Q 2509 4147 2053 4147 
L 1259 4147 
z
" transform="scale(0.015625)"/>
      </defs>
      <use xlink:href="#DejaVuSans-52"/>
      <use xlink:href="#DejaVuSans-65" transform="translate(64.982422 0)"/>
      <use xlink:href="#DejaVuSans-66" transform="translate(126.505859 0)"/>
      <use xlink:href="#DejaVuSans-65" transform="translate(161.710938 0)"/>
      <use xlink:href="#DejaVuSans-72" transform="translate(223.234375 0)"/>
      <use xlink:href="#DejaVuSans-65" transform="translate(262.097656 0)"/>
      <use xlink:href="#DejaVuSans-6e" transform="translate(323.621094 0)"/>
      <use xlink:href="#DejaVuSans-63" transform="translate(387 0)"/>
      <use xlink:href="#DejaVuSans-65" transform="translate(441.980469 0)"/>
      <use xlink:href="#DejaVuSans-20" transform="translate(503.503906 0)"/>
      <use xlink:href="#DejaVuSans-63" transform="translate(535.291016 0)"/>
      <use xlink:href="#DejaVuSans-75" transform="translate(590.271484 0)"/>
      <use xlink:href="#DejaVuSans-72" transform="translate(653.650391 0)"/>
      <use xlink:href="#DejaVuSans-76" transform="translate(694.763672 0)"/>
      <use xlink:href="#DejaVuSans-65" transform="translate(753.943359 0)"/>
      <use xlink:href="#DejaVuSans-73" transform="translate(815.466797 0)"/>
     </g>
    </g>
    <g id="PathCollection_2">
     <g>
      <use xlink:href="#m43bf3f0637" x="63.615" y="97.811563" style="fill: #1f77b4; stroke: #1f77b4"/>
     </g>
    </g>
    <g id="text_26">
     <!-- Earthquakes -->
     <g transform="translate(81.615 100.436563) scale(0.1 -0.1)">
      <defs>
       <path id="DejaVuSans-45" d="M 628 4666 
L 3578 4666 
L 3578 4134 
L 1259 4134 
L 1259 2753 
L 3481 2753 
L 3481 2222 
L 1259 2222 
L 1259 531 
L 3634 531 
L 3634 0 
L 628 0 
L 628 4666 
z
" transform="scale(0.015625)"/>
       <path id="DejaVuSans-71" d="M 947 1747 
Q 947 1113 1208 752 
Q 1469 391 1925 391 
Q 2381 391 2643 752 
Q 2906 1113 2906 1747 
Q 2906 2381 2643 2742 
Q 2381 3103 1925 3103 
Q 1469 3103 1208 2742 
Q 947 2381 947 1747 
z
M 2906 525 
Q 2725 213 2448 61 
Q 2172 -91 1784 -91 
Q 1150 -91 751 415 
Q 353 922 353 1747 
Q 353 2572 751 3078 
Q 1150 3584 1784 3584 
Q 2172 3584 2448 3432 
Q 2725 3281 2906 2969 
L 2906 3500 
L 3481 3500 
L 3481 -1331 
L 2906 -1331 
L 2906 525 
z
" transform="scale(0.015625)"/>
      </defs>
      <use xlink:href="#DejaVuSans-45"/>
      <use xlink:href="#DejaVuSans-61" transform="translate(63.183594 0)"/>
      <use xlink:href="#DejaVuSans-72" transform="translate(124.462891 0)"/>
      <use xlink:href="#DejaVuSans-74" transform="translate(165.576172 0)"/>
      <use xlink:href="#DejaVuSans-68" transform="translate(204.785156 0)"/>
      <use xlink:href="#DejaVuSans-71" transform="translate(268.164062 0)"/>
      <use xlink:href="#DejaVuSans-75" transform="translate(331.640625 0)"/>
      <use xlink:href="#DejaVuSans-61" transform="translate(395.019531 0)"/>
      <use xlink:href="#DejaVuSans-6b" transform="translate(456.298828 0)"/>
      <use xlink:href="#DejaVuSans-65" transform="translate(510.583984 0)"/>
      <use xlink:href="#DejaVuSans-73" transform="translate(572.107422 0)"/>
     </g>
    </g>
    <g id="line2d_38">
     <path d="M 53.615 111.614688 
L 63.615 111.614688 
L 73.615 111.614688 
" style="fill: none; stroke-dasharray: 6.66,2.88; stroke-dashoffset: 0; stroke: #1f77b4; stroke-width: 1.8"/>
    </g>
    <g id="text_27">
     <!-- D = 0.01 m²/s -->
     <g transform="translate(81.615 115.114688) scale(0.1 -0.1)">
      <defs>
       <path id="DejaVuSans-b2" d="M 838 2444 
L 2163 2444 
L 2163 2088 
L 294 2088 
L 294 2431 
Q 400 2528 597 2703 
Q 1672 3656 1672 3950 
Q 1672 4156 1509 4282 
Q 1347 4409 1081 4409 
Q 919 4409 728 4354 
Q 538 4300 313 4191 
L 313 4575 
Q 553 4663 761 4706 
Q 969 4750 1147 4750 
Q 1600 4750 1872 4544 
Q 2144 4338 2144 4000 
Q 2144 3566 1109 2678 
Q 934 2528 838 2444 
z
" transform="scale(0.015625)"/>
       <path id="DejaVuSans-2f" d="M 1625 4666 
L 2156 4666 
L 531 -594 
L 0 -594 
L 1625 4666 
z
" transform="scale(0.015625)"/>
      </defs>
      <use xlink:href="#DejaVuSans-44"/>
      <use xlink:href="#DejaVuSans-20" transform="translate(77.001953 0)"/>
      <use xlink:href="#DejaVuSans-3d" transform="translate(108.789062 0)"/>
      <use xlink:href="#DejaVuSans-20" transform="translate(192.578125 0)"/>
      <use xlink:href="#DejaVuSans-30" transform="translate(224.365234 0)"/>
      <use xlink:href="#DejaVuSans-2e" transform="translate(287.988281 0)"/>
      <use xlink:href="#DejaVuSans-30" transform="translate(319.775391 0)"/>
      <use xlink:href="#DejaVuSans-31" transform="translate(383.398438 0)"/>
      <use xlink:href="#DejaVuSans-20" transform="translate(447.021484 0)"/>
      <use xlink:href="#DejaVuSans-6d" transform="translate(478.808594 0)"/>
      <use xlink:href="#DejaVuSans-b2" transform="translate(576.220703 0)"/>
      <use xlink:href="#DejaVuSans-2f" transform="translate(616.308594 0)"/>
      <use xlink:href="#DejaVuSans-73" transform="translate(650 0)"/>
     </g>
    </g>
    <g id="line2d_39">
     <path d="M 53.615 126.292813 
L 63.615 126.292813 
L 73.615 126.292813 
" style="fill: none; stroke: #ff7f0e; stroke-width: 1.8; stroke-linecap: square"/>
    </g>
    <g id="text_28">
     <!-- D = 0.1 m²/s -->
     <g transform="translate(81.615 129.792813) scale(0.1 -0.1)">
      <use xlink:href="#DejaVuSans-44"/>
      <use xlink:href="#DejaVuSans-20" transform="translate(77.001953 0)"/>
      <use xlink:href="#DejaVuSans-3d" transform="translate(108.789062 0)"/>
      <use xlink:href="#DejaVuSans-20" transform="translate(192.578125 0)"/>
      <use xlink:href="#DejaVuSans-30" transform="translate(224.365234 0)"/>
      <use xlink:href="#DejaVuSans-2e" transform="translate(287.988281 0)"/>
      <use xlink:href="#DejaVuSans-31" transform="translate(319.775391 0)"/>
      <use xlink:href="#DejaVuSans-20" transform="translate(383.398438 0)"/>
      <use xlink:href="#DejaVuSans-6d" transform="translate(415.185547 0)"/>
      <use xlink:href="#DejaVuSans-b2" transform="translate(512.597656 0)"/>
      <use xlink:href="#DejaVuSans-2f" transform="translate(552.685547 0)"/>
      <use xlink:href="#DejaVuSans-73" transform="translate(586.376953 0)"/>
     </g>
    </g>
    <g id="line2d_40">
     <path d="M 53.615 140.970938 
L 63.615 140.970938 
L 73.615 140.970938 
" style="fill: none; stroke: #2ca02c; stroke-width: 1.8; stroke-linecap: square"/>
    </g>
    <g id="text_29">
     <!-- D = 0.3 m²/s -->
     <g transform="translate(81.615 144.470938) scale(0.1 -0.1)">
      <use xlink:href="#DejaVuSans-44"/>
      <use xlink:href="#DejaVuSans-20" transform="translate(77.001953 0)"/>
      <use xlink:href="#DejaVuSans-3d" transform="translate(108.789062 0)"/>
      <use xlink:href="#DejaVuSans-20" transform="translate(192.578125 0)"/>
      <use xlink:href="#DejaVuSans-30" transform="translate(224.365234 0)"/>
      <use xlink:href="#DejaVuSans-2e" transform="translate(287.988281 0)"/>
      <use xlink:href="#DejaVuSans-33" transform="translate(319.775391 0)"/>
      <use xlink:href="#DejaVuSans-20" transform="translate(383.398438 0)"/>
      <use xlink:href="#DejaVuSans-6d" transform="translate(415.185547 0)"/>
      <use xlink:href="#DejaVuSans-b2" transform="translate(512.597656 0)"/>
      <use xlink:href="#DejaVuSans-2f" transform="translate(552.685547 0)"/>
      <use xlink:href="#DejaVuSans-73" transform="translate(586.376953 0)"/>
     </g>
    </g>
    <g id="line2d_41">
     <path d="M 53.615 155.649063 
L 63.615 155.649063 
L 73.615 155.649063 
" style="fill: none; stroke: #d62728; stroke-width: 1.8; stroke-linecap: square"/>
    </g>
    <g id="text_30">
     <!-- D = 1.7 m²/s -->
     <g transform="translate(81.615 159.149063) scale(0.1 -0.1)">
      <defs>
       <path id="DejaVuSans-37" d="M 525 4666 
L 3525 4666 
L 3525 4397 
L 1831 0 
L 1172 0 
L 2766 4134 
L 525 4134 
L 525 4666 
z
" transform="scale(0.015625)"/>
      </defs>
      <use xlink:href="#DejaVuSans-44"/>
      <use xlink:href="#DejaVuSans-20" transform="translate(77.001953 0)"/>
      <use xlink:href="#DejaVuSans-3d" transform="translate(108.789062 0)"/>
      <use xlink:href="#DejaVuSans-20" transform="translate(192.578125 0)"/>
      <use xlink:href="#DejaVuSans-31" transform="translate(224.365234 0)"/>
      <use xlink:href="#DejaVuSans-2e" transform="translate(287.988281 0)"/>
      <use xlink:href="#DejaVuSans-37" transform="translate(319.775391 0)"/>
      <use xlink:href="#DejaVuSans-20" transform="translate(383.398438 0)"/>
      <use xlink:href="#DejaVuSans-6d" transform="translate(415.185547 0)"/>
      <use xlink:href="#DejaVuSans-b2" transform="translate(512.597656 0)"/>
      <use xlink:href="#DejaVuSans-2f" transform="translate(552.685547 0)"/>
      <use xlink:href="#DejaVuSans-73" transform="translate(586.376953 0)"/>
     </g>
    </g>
    <g id="line2d_42">
     <path d="M 53.615 170.327188 
L 63.615 170.327188 
L 73.615 170.327188 
" style="fill: none; stroke-dasharray: 6.66,2.88; stroke-dashoffset: 0; stroke: #9467bd; stroke-width: 1.8"/>
    </g>
    <g id="text_31">
     <!-- D = 3.0 m²/s -->
     <g transform="translate(81.615 173.827188) scale(0.1 -0.1)">
      <use xlink:href="#DejaVuSans-44"/>
      <use xlink:href="#DejaVuSans-20" transform="translate(77.001953 0)"/>
      <use xlink:href="#DejaVuSans-3d" transform="translate(108.789062 0)"/>
      <use xlink:href="#DejaVuSans-20" transform="translate(192.578125 0)"/>
      <use xlink:href="#DejaVuSans-33" transform="translate(224.365234 0)"/>
      <use xlink:href="#DejaVuSans-2e" transform="translate(287.988281 0)"/>
      <use xlink:href="#DejaVuSans-30" transform="translate(319.775391 0)"/>
      <use xlink:href="#DejaVuSans-20" transform="translate(383.398438 0)"/>
      <use xlink:href="#DejaVuSans-6d" transform="translate(415.185547 0)"/>
      <use xlink:href="#DejaVuSans-b2" transform="translate(512.597656 0)"/>
      <use xlink:href="#DejaVuSans-2f" transform="translate(552.685547 0)"/>
      <use xlink:href="#DejaVuSans-73" transform="translate(586.376953 0)"/>
     </g>
    </g>
   </g>
  </g>
 </g>
 <defs>
  <clipPath id="pc6d8ee48b4">
   <rect x="44.615" y="69.16" width="651.8275" height="320.88"/>
  </clipPath>
 </defs>
</svg>
