<?xml version="1.0" encoding="utf-8" standalone="no"?>
<!DOCTYPE svg PUBLIC "-//W3C//DTD SVG 1.1//EN"
  "http://www.w3.org/Graphics/SVG/1.1/DTD/svg11.dtd">
<svg xmlns:xlink="http://www.w3.org/1999/xlink" width="720pt" height="432pt" viewBox="0 0 720 432" xmlns="http://www.w3.org/2000/svg" version="1.1">
 <metadata>
  <rdf:RDF xmlns:dc="http://purl.org/dc/elements/1.1/" xmlns:cc="http://creativecommons.org/ns#" xmlns:rdf="http://www.w3.org/1999/02/22-rdf-syntax-ns#">
   <cc:Work>
    <dc:type rdf:resource="http://purl.org/dc/dcmitype/StillImage"/>
    <dc:date>2026-03-29T12:17:01.635227</dc:date>
    <dc:format>image/svg+xml</dc:format>
    <dc:creator>
     <cc:Agent>
      <dc:title>Matplotlib v3.10.3, https://matplotlib.org/</dc:title>
     </cc:Agent>
    </dc:creator>
   </cc:Work>
  </rdf:RDF>
 </metadata>
 <defs>
  <style type="text/css">*{stroke-linejoin: round; stroke-linecap: butt}</style>
 </defs>
 <g id="figure_1">
  <g id="patch_1">
   <path d="M 0 432 
L 720 432 
L 720 0 
L 0 0 
z
" style="fill: #ffffff"/>
  </g>
  <g id="axes_1">
   <g id="patch_2">
    <path d="M 44.615 390.04 
L 709.2 390.04 
L 709.2 26.16 
L 44.615 26.16 
z
" style="fill: #ffffff"/>
   </g>
   <g id="PathCollection_1">
    <defs>
     <path id="m7cad6af7b8" d="M 0 3 
C 0.795609 3 1.55874 2.683901 2.12132 2.12132 
C 2.683901 1.55874 3 0.795609 3 0 
C 3 -0.795609 2.683901 -1.55874 2.12132 -2.12132 
C 1.55874 -2.683901 0.795609 -3 0 -3 
C -0.795609 -3 -1.55874 -2.683901 -2.12132 -2.12132 
C -2.683901 -1.55874 -3 -0.795609 -3 0 
C -3 0.795609 -2.683901 1.55874 -2.12132 2.12132 
C -1.55874 2.683901 -0.795609 3 0 3 
z
" style="stroke: #1f77b4"/>
    </defs>
    <g clip-path="url(#pb4c05727a8)">
     <use xlink:href="#m7cad6af7b8" x="76.146884" y="361.814124" style="fill: #1f77b4; stroke: #1f77b4"/>
     <use xlink:href="#m7cad6af7b8" x="83.301536" y="371.96394" style="fill: #1f77b4; stroke: #1f77b4"/>
     <use xlink:href="#m7cad6af7b8" x="92.805257" y="348.02552" style="fill: #1f77b4; stroke: #1f77b4"/>
     <use xlink:href="#m7cad6af7b8" x="100.348179" y="365.825009" style="fill: #1f77b4; stroke: #1f77b4"/>
     <use xlink:href="#m7cad6af7b8" x="101.893498" y="367.390912" style="fill: #1f77b4; stroke: #1f77b4"/>
     <use xlink:href="#m7cad6af7b8" x="102.101002" y="372.497705" style="fill: #1f77b4; stroke: #1f77b4"/>
     <use xlink:href="#m7cad6af7b8" x="102.144979" y="371.316368" style="fill: #1f77b4; stroke: #1f77b4"/>
     <use xlink:href="#m7cad6af7b8" x="102.458516" y="370.268389" style="fill: #1f77b4; stroke: #1f77b4"/>
     <use xlink:href="#m7cad6af7b8" x="102.949323" y="357.209155" style="fill: #1f77b4; stroke: #1f77b4"/>
     <use xlink:href="#m7cad6af7b8" x="104.440757" y="364.001957" style="fill: #1f77b4; stroke: #1f77b4"/>
     <use xlink:href="#m7cad6af7b8" x="104.859051" y="351.815417" style="fill: #1f77b4; stroke: #1f77b4"/>
     <use xlink:href="#m7cad6af7b8" x="105.045781" y="350.758753" style="fill: #1f77b4; stroke: #1f77b4"/>
     <use xlink:href="#m7cad6af7b8" x="109.518178" y="373.424008" style="fill: #1f77b4; stroke: #1f77b4"/>
     <use xlink:href="#m7cad6af7b8" x="112.321425" y="315.546025" style="fill: #1f77b4; stroke: #1f77b4"/>
     <use xlink:href="#m7cad6af7b8" x="112.426018" y="355.835843" style="fill: #1f77b4; stroke: #1f77b4"/>
     <use xlink:href="#m7cad6af7b8" x="113.040198" y="363.691894" style="fill: #1f77b4; stroke: #1f77b4"/>
     <use xlink:href="#m7cad6af7b8" x="113.732468" y="361.063805" style="fill: #1f77b4; stroke: #1f77b4"/>
     <use xlink:href="#m7cad6af7b8" x="114.169858" y="359.993557" style="fill: #1f77b4; stroke: #1f77b4"/>
     <use xlink:href="#m7cad6af7b8" x="114.260827" y="308.624784" style="fill: #1f77b4; stroke: #1f77b4"/>
     <use xlink:href="#m7cad6af7b8" x="114.759403" y="312.695024" style="fill: #1f77b4; stroke: #1f77b4"/>
     <use xlink:href="#m7cad6af7b8" x="116.581509" y="365.92345" style="fill: #1f77b4; stroke: #1f77b4"/>
     <use xlink:href="#m7cad6af7b8" x="117.883108" y="368.909255" style="fill: #1f77b4; stroke: #1f77b4"/>
     <use xlink:href="#m7cad6af7b8" x="118.421113" y="367.504502" style="fill: #1f77b4; stroke: #1f77b4"/>
     <use xlink:href="#m7cad6af7b8" x="121.979876" y="369.967871" style="fill: #1f77b4; stroke: #1f77b4"/>
     <use xlink:href="#m7cad6af7b8" x="137.371079" y="370.369348" style="fill: #1f77b4; stroke: #1f77b4"/>
     <use xlink:href="#m7cad6af7b8" x="137.400395" y="372.924809" style="fill: #1f77b4; stroke: #1f77b4"/>
     <use xlink:href="#m7cad6af7b8" x="137.45993" y="364.103513" style="fill: #1f77b4; stroke: #1f77b4"/>
     <use xlink:href="#m7cad6af7b8" x="137.615869" y="352.600811" style="fill: #1f77b4; stroke: #1f77b4"/>
     <use xlink:href="#m7cad6af7b8" x="137.818603" y="351.570599" style="fill: #1f77b4; stroke: #1f77b4"/>
     <use xlink:href="#m7cad6af7b8" x="138.041102" y="373.149542" style="fill: #1f77b4; stroke: #1f77b4"/>
     <use xlink:href="#m7cad6af7b8" x="138.128444" y="346.420327" style="fill: #1f77b4; stroke: #1f77b4"/>
     <use xlink:href="#m7cad6af7b8" x="138.263848" y="342.017517" style="fill: #1f77b4; stroke: #1f77b4"/>
     <use xlink:href="#m7cad6af7b8" x="138.512777" y="343.433086" style="fill: #1f77b4; stroke: #1f77b4"/>
     <use xlink:href="#m7cad6af7b8" x="138.786286" y="361.805901" style="fill: #1f77b4; stroke: #1f77b4"/>
     <use xlink:href="#m7cad6af7b8" x="138.861481" y="358.333817" style="fill: #1f77b4; stroke: #1f77b4"/>
     <use xlink:href="#m7cad6af7b8" x="166.689032" y="370.68368" style="fill: #1f77b4; stroke: #1f77b4"/>
     <use xlink:href="#m7cad6af7b8" x="167.562767" y="338.092191" style="fill: #1f77b4; stroke: #1f77b4"/>
     <use xlink:href="#m7cad6af7b8" x="230.150005" y="352.053257" style="fill: #1f77b4; stroke: #1f77b4"/>
     <use xlink:href="#m7cad6af7b8" x="350.452689" y="358.469121" style="fill: #1f77b4; stroke: #1f77b4"/>
     <use xlink:href="#m7cad6af7b8" x="350.53456" y="355.498277" style="fill: #1f77b4; stroke: #1f77b4"/>
     <use xlink:href="#m7cad6af7b8" x="512.996882" y="322.42144" style="fill: #1f77b4; stroke: #1f77b4"/>
     <use xlink:href="#m7cad6af7b8" x="523.817727" y="320.688068" style="fill: #1f77b4; stroke: #1f77b4"/>
     <use xlink:href="#m7cad6af7b8" x="523.837456" y="327.174736" style="fill: #1f77b4; stroke: #1f77b4"/>
     <use xlink:href="#m7cad6af7b8" x="528.642468" y="333.872267" style="fill: #1f77b4; stroke: #1f77b4"/>
     <use xlink:href="#m7cad6af7b8" x="564.840214" y="363.735793" style="fill: #1f77b4; stroke: #1f77b4"/>
     <use xlink:href="#m7cad6af7b8" x="568.110372" y="346.009182" style="fill: #1f77b4; stroke: #1f77b4"/>
     <use xlink:href="#m7cad6af7b8" x="591.501127" y="346.006647" style="fill: #1f77b4; stroke: #1f77b4"/>
     <use xlink:href="#m7cad6af7b8" x="591.727966" y="367.701146" style="fill: #1f77b4; stroke: #1f77b4"/>
     <use xlink:href="#m7cad6af7b8" x="603.144264" y="354.385072" style="fill: #1f77b4; stroke: #1f77b4"/>
     <use xlink:href="#m7cad6af7b8" x="603.437779" y="370.041414" style="fill: #1f77b4; stroke: #1f77b4"/>
     <use xlink:href="#m7cad6af7b8" x="621.345068" y="370.356889" style="fill: #1f77b4; stroke: #1f77b4"/>
    </g>
   </g>
   <g id="matplotlib.axis_1">
    <g id="xtick_1">
     <g id="line2d_1">
      <path d="M 74.823409 390.04 
L 74.823409 26.16 
" clip-path="url(#pb4c05727a8)" style="fill: none; stroke: #b0b0b0; stroke-width: 0.8; stroke-linecap: square"/>
     </g>
     <g id="line2d_2">
      <defs>
       <path id="m5c29eee0a2" d="M 0 0 
L 0 3.5 
" style="stroke: #000000; stroke-width: 0.8"/>
      </defs>
      <g>
       <use xlink:href="#m5c29eee0a2" x="74.823409" y="390.04" style="stroke: #000000; stroke-width: 0.8"/>
      </g>
     </g>
     <g id="text_1">
      <!-- 0 -->
      <g transform="translate(71.642159 404.638438) scale(0.1 -0.1)">
       <defs>
        <path id="DejaVuSans-30" d="M 2034 4250 
Q 1547 4250 1301 3770 
Q 1056 3291 1056 2328 
Q 1056 1369 1301 889 
Q 1547 409 2034 409 
Q 2525 409 2770 889 
Q 3016 1369 3016 2328 
Q 3016 3291 2770 3770 
Q 2525 4250 2034 4250 
z
M 2034 4750 
Q 2819 4750 3233 4129 
Q 3647 3509 3647 2328 
Q 3647 1150 3233 529 
Q 2819 -91 2034 -91 
Q 1250 -91 836 529 
Q 422 1150 422 2328 
Q 422 3509 836 4129 
Q 1250 4750 2034 4750 
z
" transform="scale(0.015625)"/>
       </defs>
       <use xlink:href="#DejaVuSans-30"/>
      </g>
     </g>
    </g>
    <g id="xtick_2">
     <g id="line2d_3">
      <path d="M 161.133149 390.04 
L 161.133149 26.16 
" clip-path="url(#pb4c05727a8)" style="fill: none; stroke: #b0b0b0; stroke-width: 0.8; stroke-linecap: square"/>
     </g>
     <g id="line2d_4">
      <g>
       <use xlink:href="#m5c29eee0a2" x="161.133149" y="390.04" style="stroke: #000000; stroke-width: 0.8"/>
      </g>
     </g>
     <g id="text_2">
      <!-- 500 -->
      <g transform="translate(151.589399 404.638438) scale(0.1 -0.1)">
       <defs>
        <path id="DejaVuSans-35" d="M 691 4666 
L 3169 4666 
L 3169 4134 
L 1269 4134 
L 1269 2991 
Q 1406 3038 1543 3061 
Q 1681 3084 1819 3084 
Q 2600 3084 3056 2656 
Q 3513 2228 3513 1497 
Q 3513 744 3044 326 
Q 2575 -91 1722 -91 
Q 1428 -91 1123 -41 
Q 819 9 494 109 
L 494 744 
Q 775 591 1075 516 
Q 1375 441 1709 441 
Q 2250 441 2565 725 
Q 2881 1009 2881 1497 
Q 2881 1984 2565 2268 
Q 2250 2553 1709 2553 
Q 1456 2553 1204 2497 
Q 953 2441 691 2322 
L 691 4666 
z
" transform="scale(0.015625)"/>
       </defs>
       <use xlink:href="#DejaVuSans-35"/>
       <use xlink:href="#DejaVuSans-30" transform="translate(63.623047 0)"/>
       <use xlink:href="#DejaVuSans-30" transform="translate(127.246094 0)"/>
      </g>
     </g>
    </g>
    <g id="xtick_3">
     <g id="line2d_5">
      <path d="M 247.44289 390.04 
L 247.44289 26.16 
" clip-path="url(#pb4c05727a8)" style="fill: none; stroke: #b0b0b0; stroke-width: 0.8; stroke-linecap: square"/>
     </g>
     <g id="line2d_6">
      <g>
       <use xlink:href="#m5c29eee0a2" x="247.44289" y="390.04" style="stroke: #000000; stroke-width: 0.8"/>
      </g>
     </g>
     <g id="text_3">
      <!-- 1000 -->
      <g transform="translate(234.71789 404.638438) scale(0.1 -0.1)">
       <defs>
        <path id="DejaVuSans-31" d="M 794 531 
L 1825 531 
L 1825 4091 
L 703 3866 
L 703 4441 
L 1819 4666 
L 2450 4666 
L 2450 531 
L 3481 531 
L 3481 0 
L 794 0 
L 794 531 
z
" transform="scale(0.015625)"/>
       </defs>
       <use xlink:href="#DejaVuSans-31"/>
       <use xlink:href="#DejaVuSans-30" transform="translate(63.623047 0)"/>
       <use xlink:href="#DejaVuSans-30" transform="translate(127.246094 0)"/>
       <use xlink:href="#DejaVuSans-30" transform="translate(190.869141 0)"/>
      </g>
     </g>
    </g>
    <g id="xtick_4">
     <g id="line2d_7">
      <path d="M 333.75263 390.04 
L 333.75263 26.16 
" clip-path="url(#pb4c05727a8)" style="fill: none; stroke: #b0b0b0; stroke-width: 0.8; stroke-linecap: square"/>
     </g>
     <g id="line2d_8">
      <g>
       <use xlink:href="#m5c29eee0a2" x="333.75263" y="390.04" style="stroke: #000000; stroke-width: 0.8"/>
      </g>
     </g>
     <g id="text_4">
      <!-- 1500 -->
      <g transform="translate(321.02763 404.638438) scale(0.1 -0.1)">
       <use xlink:href="#DejaVuSans-31"/>
       <use xlink:href="#DejaVuSans-35" transform="translate(63.623047 0)"/>
       <use xlink:href="#DejaVuSans-30" transform="translate(127.246094 0)"/>
       <use xlink:href="#DejaVuSans-30" transform="translate(190.869141 0)"/>
      </g>
     </g>
    </g>
    <g id="xtick_5">
     <g id="line2d_9">
      <path d="M 420.06237 390.04 
L 420.06237 26.16 
" clip-path="url(#pb4c05727a8)" style="fill: none; stroke: #b0b0b0; stroke-width: 0.8; stroke-linecap: square"/>
     </g>
     <g id="line2d_10">
      <g>
       <use xlink:href="#m5c29eee0a2" x="420.06237" y="390.04" style="stroke: #000000; stroke-width: 0.8"/>
      </g>
     </g>
     <g id="text_5">
      <!-- 2000 -->
      <g transform="translate(407.33737 404.638438) scale(0.1 -0.1)">
       <defs>
        <path id="DejaVuSans-32" d="M 1228 531 
L 3431 531 
L 3431 0 
L 469 0 
L 469 531 
Q 828 903 1448 1529 
Q 2069 2156 2228 2338 
Q 2531 2678 2651 2914 
Q 2772 3150 2772 3378 
Q 2772 3750 2511 3984 
Q 2250 4219 1831 4219 
Q 1534 4219 1204 4116 
Q 875 4013 500 3803 
L 500 4441 
Q 881 4594 1212 4672 
Q 1544 4750 1819 4750 
Q 2544 4750 2975 4387 
Q 3406 4025 3406 3419 
Q 3406 3131 3298 2873 
Q 3191 2616 2906 2266 
Q 2828 2175 2409 1742 
Q 1991 1309 1228 531 
z
" transform="scale(0.015625)"/>
       </defs>
       <use xlink:href="#DejaVuSans-32"/>
       <use xlink:href="#DejaVuSans-30" transform="translate(63.623047 0)"/>
       <use xlink:href="#DejaVuSans-30" transform="translate(127.246094 0)"/>
       <use xlink:href="#DejaVuSans-30" transform="translate(190.869141 0)"/>
      </g>
     </g>
    </g>
    <g id="xtick_6">
     <g id="line2d_11">
      <path d="M 506.37211 390.04 
L 506.37211 26.16 
" clip-path="url(#pb4c05727a8)" style="fill: none; stroke: #b0b0b0; stroke-width: 0.8; stroke-linecap: square"/>
     </g>
     <g id="line2d_12">
      <g>
       <use xlink:href="#m5c29eee0a2" x="506.37211" y="390.04" style="stroke: #000000; stroke-width: 0.8"/>
      </g>
     </g>
     <g id="text_6">
      <!-- 2500 -->
      <g transform="translate(493.64711 404.638438) scale(0.1 -0.1)">
       <use xlink:href="#DejaVuSans-32"/>
       <use xlink:href="#DejaVuSans-35" transform="translate(63.623047 0)"/>
       <use xlink:href="#DejaVuSans-30" transform="translate(127.246094 0)"/>
       <use xlink:href="#DejaVuSans-30" transform="translate(190.869141 0)"/>
      </g>
     </g>
    </g>
    <g id="xtick_7">
     <g id="line2d_13">
      <path d="M 592.681851 390.04 
L 592.681851 26.16 
" clip-path="url(#pb4c05727a8)" style="fill: none; stroke: #b0b0b0; stroke-width: 0.8; stroke-linecap: square"/>
     </g>
     <g id="line2d_14">
      <g>
       <use xlink:href="#m5c29eee0a2" x="592.681851" y="390.04" style="stroke: #000000; stroke-width: 0.8"/>
      </g>
     </g>
     <g id="text_7">
      <!-- 3000 -->
      <g transform="translate(579.956851 404.638438) scale(0.1 -0.1)">
       <defs>
        <path id="DejaVuSans-33" d="M 2597 2516 
Q 3050 2419 3304 2112 
Q 3559 1806 3559 1356 
Q 3559 666 3084 287 
Q 2609 -91 1734 -91 
Q 1441 -91 1130 -33 
Q 819 25 488 141 
L 488 750 
Q 750 597 1062 519 
Q 1375 441 1716 441 
Q 2309 441 2620 675 
Q 2931 909 2931 1356 
Q 2931 1769 2642 2001 
Q 2353 2234 1838 2234 
L 1294 2234 
L 1294 2753 
L 1863 2753 
Q 2328 2753 2575 2939 
Q 2822 3125 2822 3475 
Q 2822 3834 2567 4026 
Q 2313 4219 1838 4219 
Q 1578 4219 1281 4162 
Q 984 4106 628 3988 
L 628 4550 
Q 988 4650 1302 4700 
Q 1616 4750 1894 4750 
Q 2613 4750 3031 4423 
Q 3450 4097 3450 3541 
Q 3450 3153 3228 2886 
Q 3006 2619 2597 2516 
z
" transform="scale(0.015625)"/>
       </defs>
       <use xlink:href="#DejaVuSans-33"/>
       <use xlink:href="#DejaVuSans-30" transform="translate(63.623047 0)"/>
       <use xlink:href="#DejaVuSans-30" transform="translate(127.246094 0)"/>
       <use xlink:href="#DejaVuSans-30" transform="translate(190.869141 0)"/>
      </g>
     </g>
    </g>
    <g id="xtick_8">
     <g id="line2d_15">
      <path d="M 678.991591 390.04 
L 678.991591 26.16 
" clip-path="url(#pb4c05727a8)" style="fill: none; stroke: #b0b0b0; stroke-width: 0.8; stroke-linecap: square"/>
     </g>
     <g id="line2d_16">
      <g>
       <use xlink:href="#m5c29eee0a2" x="678.991591" y="390.04" style="stroke: #000000; stroke-width: 0.8"/>
      </g>
     </g>
     <g id="text_8">
      <!-- 3500 -->
      <g transform="translate(666.266591 404.638438) scale(0.1 -0.1)">
       <use xlink:href="#DejaVuSans-33"/>
       <use xlink:href="#DejaVuSans-35" transform="translate(63.623047 0)"/>
       <use xlink:href="#DejaVuSans-30" transform="translate(127.246094 0)"/>
       <use xlink:href="#DejaVuSans-30" transform="translate(190.869141 0)"/>
      </g>
     </g>
    </g>
    <g id="text_9">
     <!-- Time since effective reference (hours) -->
     <g transform="translate(281.692656 418.316562) scale(0.1 -0.1)">
      <defs>
       <path id="DejaVuSans-54" d="M -19 4666 
L 3928 4666 
L 3928 4134 
L 2272 4134 
L 2272 0 
L 1638 0 
L 1638 4134 
L -19 4134 
L -19 4666 
z
" transform="scale(0.015625)"/>
       <path id="DejaVuSans-69" d="M 603 3500 
L 1178 3500 
L 1178 0 
L 603 0 
L 603 3500 
z
M 603 4863 
L 1178 4863 
L 1178 4134 
L 603 4134 
L 603 4863 
z
" transform="scale(0.015625)"/>
       <path id="DejaVuSans-6d" d="M 3328 2828 
Q 3544 3216 3844 3400 
Q 4144 3584 4550 3584 
Q 5097 3584 5394 3201 
Q 5691 2819 5691 2113 
L 5691 0 
L 5113 0 
L 5113 2094 
Q 5113 2597 4934 2840 
Q 4756 3084 4391 3084 
Q 3944 3084 3684 2787 
Q 3425 2491 3425 1978 
L 3425 0 
L 2847 0 
L 2847 2094 
Q 2847 2600 2669 2842 
Q 2491 3084 2119 3084 
Q 1678 3084 1418 2786 
Q 1159 2488 1159 1978 
L 1159 0 
L 581 0 
L 581 3500 
L 1159 3500 
L 1159 2956 
Q 1356 3278 1631 3431 
Q 1906 3584 2284 3584 
Q 2666 3584 2933 3390 
Q 3200 3197 3328 2828 
z
" transform="scale(0.015625)"/>
       <path id="DejaVuSans-65" d="M 3597 1894 
L 3597 1613 
L 953 1613 
Q 991 1019 1311 708 
Q 1631 397 2203 397 
Q 2534 397 2845 478 
Q 3156 559 3463 722 
L 3463 178 
Q 3153 47 2828 -22 
Q 2503 -91 2169 -91 
Q 1331 -91 842 396 
Q 353 884 353 1716 
Q 353 2575 817 3079 
Q 1281 3584 2069 3584 
Q 2775 3584 3186 3129 
Q 3597 2675 3597 1894 
z
M 3022 2063 
Q 3016 2534 2758 2815 
Q 2500 3097 2075 3097 
Q 1594 3097 1305 2825 
Q 1016 2553 972 2059 
L 3022 2063 
z
" transform="scale(0.015625)"/>
       <path id="DejaVuSans-20" transform="scale(0.015625)"/>
       <path id="DejaVuSans-73" d="M 2834 3397 
L 2834 2853 
Q 2591 2978 2328 3040 
Q 2066 3103 1784 3103 
Q 1356 3103 1142 2972 
Q 928 2841 928 2578 
Q 928 2378 1081 2264 
Q 1234 2150 1697 2047 
L 1894 2003 
Q 2506 1872 2764 1633 
Q 3022 1394 3022 966 
Q 3022 478 2636 193 
Q 2250 -91 1575 -91 
Q 1294 -91 989 -36 
Q 684 19 347 128 
L 347 722 
Q 666 556 975 473 
Q 1284 391 1588 391 
Q 1994 391 2212 530 
Q 2431 669 2431 922 
Q 2431 1156 2273 1281 
Q 2116 1406 1581 1522 
L 1381 1569 
Q 847 1681 609 1914 
Q 372 2147 372 2553 
Q 372 3047 722 3315 
Q 1072 3584 1716 3584 
Q 2034 3584 2315 3537 
Q 2597 3491 2834 3397 
z
" transform="scale(0.015625)"/>
       <path id="DejaVuSans-6e" d="M 3513 2113 
L 3513 0 
L 2938 0 
L 2938 2094 
Q 2938 2591 2744 2837 
Q 2550 3084 2163 3084 
Q 1697 3084 1428 2787 
Q 1159 2491 1159 1978 
L 1159 0 
L 581 0 
L 581 3500 
L 1159 3500 
L 1159 2956 
Q 1366 3272 1645 3428 
Q 1925 3584 2291 3584 
Q 2894 3584 3203 3211 
Q 3513 2838 3513 2113 
z
" transform="scale(0.015625)"/>
       <path id="DejaVuSans-63" d="M 3122 3366 
L 3122 2828 
Q 2878 2963 2633 3030 
Q 2388 3097 2138 3097 
Q 1578 3097 1268 2742 
Q 959 2388 959 1747 
Q 959 1106 1268 751 
Q 1578 397 2138 397 
Q 2388 397 2633 464 
Q 2878 531 3122 666 
L 3122 134 
Q 2881 22 2623 -34 
Q 2366 -91 2075 -91 
Q 1284 -91 818 406 
Q 353 903 353 1747 
Q 353 2603 823 3093 
Q 1294 3584 2113 3584 
Q 2378 3584 2631 3529 
Q 2884 3475 3122 3366 
z
" transform="scale(0.015625)"/>
       <path id="DejaVuSans-66" d="M 2375 4863 
L 2375 4384 
L 1825 4384 
Q 1516 4384 1395 4259 
Q 1275 4134 1275 3809 
L 1275 3500 
L 2222 3500 
L 2222 3053 
L 1275 3053 
L 1275 0 
L 697 0 
L 697 3053 
L 147 3053 
L 147 3500 
L 697 3500 
L 697 3744 
Q 697 4328 969 4595 
Q 1241 4863 1831 4863 
L 2375 4863 
z
" transform="scale(0.015625)"/>
       <path id="DejaVuSans-74" d="M 1172 4494 
L 1172 3500 
L 2356 3500 
L 2356 3053 
L 1172 3053 
L 1172 1153 
Q 1172 725 1289 603 
Q 1406 481 1766 481 
L 2356 481 
L 2356 0 
L 1766 0 
Q 1100 0 847 248 
Q 594 497 594 1153 
L 594 3053 
L 172 3053 
L 172 3500 
L 594 3500 
L 594 4494 
L 1172 4494 
z
" transform="scale(0.015625)"/>
       <path id="DejaVuSans-76" d="M 191 3500 
L 800 3500 
L 1894 563 
L 2988 3500 
L 3597 3500 
L 2284 0 
L 1503 0 
L 191 3500 
z
" transform="scale(0.015625)"/>
       <path id="DejaVuSans-72" d="M 2631 2963 
Q 2534 3019 2420 3045 
Q 2306 3072 2169 3072 
Q 1681 3072 1420 2755 
Q 1159 2438 1159 1844 
L 1159 0 
L 581 0 
L 581 3500 
L 1159 3500 
L 1159 2956 
Q 1341 3275 1631 3429 
Q 1922 3584 2338 3584 
Q 2397 3584 2469 3576 
Q 2541 3569 2628 3553 
L 2631 2963 
z
" transform="scale(0.015625)"/>
       <path id="DejaVuSans-28" d="M 1984 4856 
Q 1566 4138 1362 3434 
Q 1159 2731 1159 2009 
Q 1159 1288 1364 580 
Q 1569 -128 1984 -844 
L 1484 -844 
Q 1016 -109 783 600 
Q 550 1309 550 2009 
Q 550 2706 781 3412 
Q 1013 4119 1484 4856 
L 1984 4856 
z
" transform="scale(0.015625)"/>
       <path id="DejaVuSans-68" d="M 3513 2113 
L 3513 0 
L 2938 0 
L 2938 2094 
Q 2938 2591 2744 2837 
Q 2550 3084 2163 3084 
Q 1697 3084 1428 2787 
Q 1159 2491 1159 1978 
L 1159 0 
L 581 0 
L 581 4863 
L 1159 4863 
L 1159 2956 
Q 1366 3272 1645 3428 
Q 1925 3584 2291 3584 
Q 2894 3584 3203 3211 
Q 3513 2838 3513 2113 
z
" transform="scale(0.015625)"/>
       <path id="DejaVuSans-6f" d="M 1959 3097 
Q 1497 3097 1228 2736 
Q 959 2375 959 1747 
Q 959 1119 1226 758 
Q 1494 397 1959 397 
Q 2419 397 2687 759 
Q 2956 1122 2956 1747 
Q 2956 2369 2687 2733 
Q 2419 3097 1959 3097 
z
M 1959 3584 
Q 2709 3584 3137 3096 
Q 3566 2609 3566 1747 
Q 3566 888 3137 398 
Q 2709 -91 1959 -91 
Q 1206 -91 779 398 
Q 353 888 353 1747 
Q 353 2609 779 3096 
Q 1206 3584 1959 3584 
z
" transform="scale(0.015625)"/>
       <path id="DejaVuSans-75" d="M 544 1381 
L 544 3500 
L 1119 3500 
L 1119 1403 
Q 1119 906 1312 657 
Q 1506 409 1894 409 
Q 2359 409 2629 706 
Q 2900 1003 2900 1516 
L 2900 3500 
L 3475 3500 
L 3475 0 
L 2900 0 
L 2900 538 
Q 2691 219 2414 64 
Q 2138 -91 1772 -91 
Q 1169 -91 856 284 
Q 544 659 544 1381 
z
M 1991 3584 
L 1991 3584 
z
" transform="scale(0.015625)"/>
       <path id="DejaVuSans-29" d="M 513 4856 
L 1013 4856 
Q 1481 4119 1714 3412 
Q 1947 2706 1947 2009 
Q 1947 1309 1714 600 
Q 1481 -109 1013 -844 
L 513 -844 
Q 928 -128 1133 580 
Q 1338 1288 1338 2009 
Q 1338 2731 1133 3434 
Q 928 4138 513 4856 
z
" transform="scale(0.015625)"/>
      </defs>
      <use xlink:href="#DejaVuSans-54"/>
      <use xlink:href="#DejaVuSans-69" transform="translate(57.958984 0)"/>
      <use xlink:href="#DejaVuSans-6d" transform="translate(85.742188 0)"/>
      <use xlink:href="#DejaVuSans-65" transform="translate(183.154297 0)"/>
      <use xlink:href="#DejaVuSans-20" transform="translate(244.677734 0)"/>
      <use xlink:href="#DejaVuSans-73" transform="translate(276.464844 0)"/>
      <use xlink:href="#DejaVuSans-69" transform="translate(328.564453 0)"/>
      <use xlink:href="#DejaVuSans-6e" transform="translate(356.347656 0)"/>
      <use xlink:href="#DejaVuSans-63" transform="translate(419.726562 0)"/>
      <use xlink:href="#DejaVuSans-65" transform="translate(474.707031 0)"/>
      <use xlink:href="#DejaVuSans-20" transform="translate(536.230469 0)"/>
      <use xlink:href="#DejaVuSans-65" transform="translate(568.017578 0)"/>
      <use xlink:href="#DejaVuSans-66" transform="translate(629.541016 0)"/>
      <use xlink:href="#DejaVuSans-66" transform="translate(664.746094 0)"/>
      <use xlink:href="#DejaVuSans-65" transform="translate(699.951172 0)"/>
      <use xlink:href="#DejaVuSans-63" transform="translate(761.474609 0)"/>
      <use xlink:href="#DejaVuSans-74" transform="translate(816.455078 0)"/>
      <use xlink:href="#DejaVuSans-69" transform="translate(855.664062 0)"/>
      <use xlink:href="#DejaVuSans-76" transform="translate(883.447266 0)"/>
      <use xlink:href="#DejaVuSans-65" transform="translate(942.626953 0)"/>
      <use xlink:href="#DejaVuSans-20" transform="translate(1004.150391 0)"/>
      <use xlink:href="#DejaVuSans-72" transform="translate(1035.9375 0)"/>
      <use xlink:href="#DejaVuSans-65" transform="translate(1074.800781 0)"/>
      <use xlink:href="#DejaVuSans-66" transform="translate(1136.324219 0)"/>
      <use xlink:href="#DejaVuSans-65" transform="translate(1171.529297 0)"/>
      <use xlink:href="#DejaVuSans-72" transform="translate(1233.052734 0)"/>
      <use xlink:href="#DejaVuSans-65" transform="translate(1271.916016 0)"/>
      <use xlink:href="#DejaVuSans-6e" transform="translate(1333.439453 0)"/>
      <use xlink:href="#DejaVuSans-63" transform="translate(1396.818359 0)"/>
      <use xlink:href="#DejaVuSans-65" transform="translate(1451.798828 0)"/>
      <use xlink:href="#DejaVuSans-20" transform="translate(1513.322266 0)"/>
      <use xlink:href="#DejaVuSans-28" transform="translate(1545.109375 0)"/>
      <use xlink:href="#DejaVuSans-68" transform="translate(1584.123047 0)"/>
      <use xlink:href="#DejaVuSans-6f" transform="translate(1647.501953 0)"/>
      <use xlink:href="#DejaVuSans-75" transform="translate(1708.683594 0)"/>
      <use xlink:href="#DejaVuSans-72" transform="translate(1772.0625 0)"/>
      <use xlink:href="#DejaVuSans-73" transform="translate(1813.175781 0)"/>
      <use xlink:href="#DejaVuSans-29" transform="translate(1865.275391 0)"/>
     </g>
    </g>
   </g>
   <g id="matplotlib.axis_2">
    <g id="ytick_1">
     <g id="line2d_17">
      <path d="M 44.615 373.5 
L 709.2 373.5 
" clip-path="url(#pb4c05727a8)" style="fill: none; stroke: #b0b0b0; stroke-width: 0.8; stroke-linecap: square"/>
     </g>
     <g id="line2d_18">
      <defs>
       <path id="me8f9e50ee8" d="M 0 0 
L -3.5 0 
" style="stroke: #000000; stroke-width: 0.8"/>
      </defs>
      <g>
       <use xlink:href="#me8f9e50ee8" x="44.615" y="373.5" style="stroke: #000000; stroke-width: 0.8"/>
      </g>
     </g>
     <g id="text_10">
      <!-- 0 -->
      <g transform="translate(31.2525 377.299219) scale(0.1 -0.1)">
       <use xlink:href="#DejaVuSans-30"/>
      </g>
     </g>
    </g>
    <g id="ytick_2">
     <g id="line2d_19">
      <path d="M 44.615 319.695376 
L 709.2 319.695376 
" clip-path="url(#pb4c05727a8)" style="fill: none; stroke: #b0b0b0; stroke-width: 0.8; stroke-linecap: square"/>
     </g>
     <g id="line2d_20">
      <g>
       <use xlink:href="#me8f9e50ee8" x="44.615" y="319.695376" style="stroke: #000000; stroke-width: 0.8"/>
      </g>
     </g>
     <g id="text_11">
      <!-- 2 -->
      <g transform="translate(31.2525 323.494595) scale(0.1 -0.1)">
       <use xlink:href="#DejaVuSans-32"/>
      </g>
     </g>
    </g>
    <g id="ytick_3">
     <g id="line2d_21">
      <path d="M 44.615 265.890752 
L 709.2 265.890752 
" clip-path="url(#pb4c05727a8)" style="fill: none; stroke: #b0b0b0; stroke-width: 0.8; stroke-linecap: square"/>
     </g>
     <g id="line2d_22">
      <g>
       <use xlink:href="#me8f9e50ee8" x="44.615" y="265.890752" style="stroke: #000000; stroke-width: 0.8"/>
      </g>
     </g>
     <g id="text_12">
      <!-- 4 -->
      <g transform="translate(31.2525 269.689971) scale(0.1 -0.1)">
       <defs>
        <path id="DejaVuSans-34" d="M 2419 4116 
L 825 1625 
L 2419 1625 
L 2419 4116 
z
M 2253 4666 
L 3047 4666 
L 3047 1625 
L 3713 1625 
L 3713 1100 
L 3047 1100 
L 3047 0 
L 2419 0 
L 2419 1100 
L 313 1100 
L 313 1709 
L 2253 4666 
z
" transform="scale(0.015625)"/>
       </defs>
       <use xlink:href="#DejaVuSans-34"/>
      </g>
     </g>
    </g>
    <g id="ytick_4">
     <g id="line2d_23">
      <path d="M 44.615 212.086128 
L 709.2 212.086128 
" clip-path="url(#pb4c05727a8)" style="fill: none; stroke: #b0b0b0; stroke-width: 0.8; stroke-linecap: square"/>
     </g>
     <g id="line2d_24">
      <g>
       <use xlink:href="#me8f9e50ee8" x="44.615" y="212.086128" style="stroke: #000000; stroke-width: 0.8"/>
      </g>
     </g>
     <g id="text_13">
      <!-- 6 -->
      <g transform="translate(31.2525 215.885347) scale(0.1 -0.1)">
       <defs>
        <path id="DejaVuSans-36" d="M 2113 2584 
Q 1688 2584 1439 2293 
Q 1191 2003 1191 1497 
Q 1191 994 1439 701 
Q 1688 409 2113 409 
Q 2538 409 2786 701 
Q 3034 994 3034 1497 
Q 3034 2003 2786 2293 
Q 2538 2584 2113 2584 
z
M 3366 4563 
L 3366 3988 
Q 3128 4100 2886 4159 
Q 2644 4219 2406 4219 
Q 1781 4219 1451 3797 
Q 1122 3375 1075 2522 
Q 1259 2794 1537 2939 
Q 1816 3084 2150 3084 
Q 2853 3084 3261 2657 
Q 3669 2231 3669 1497 
Q 3669 778 3244 343 
Q 2819 -91 2113 -91 
Q 1303 -91 875 529 
Q 447 1150 447 2328 
Q 447 3434 972 4092 
Q 1497 4750 2381 4750 
Q 2619 4750 2861 4703 
Q 3103 4656 3366 4563 
z
" transform="scale(0.015625)"/>
       </defs>
       <use xlink:href="#DejaVuSans-36"/>
      </g>
     </g>
    </g>
    <g id="ytick_5">
     <g id="line2d_25">
      <path d="M 44.615 158.281504 
L 709.2 158.281504 
" clip-path="url(#pb4c05727a8)" style="fill: none; stroke: #b0b0b0; stroke-width: 0.8; stroke-linecap: square"/>
     </g>
     <g id="line2d_26">
      <g>
       <use xlink:href="#me8f9e50ee8" x="44.615" y="158.281504" style="stroke: #000000; stroke-width: 0.8"/>
      </g>
     </g>
     <g id="text_14">
      <!-- 8 -->
      <g transform="translate(31.2525 162.080723) scale(0.1 -0.1)">
       <defs>
        <path id="DejaVuSans-38" d="M 2034 2216 
Q 1584 2216 1326 1975 
Q 1069 1734 1069 1313 
Q 1069 891 1326 650 
Q 1584 409 2034 409 
Q 2484 409 2743 651 
Q 3003 894 3003 1313 
Q 3003 1734 2745 1975 
Q 2488 2216 2034 2216 
z
M 1403 2484 
Q 997 2584 770 2862 
Q 544 3141 544 3541 
Q 544 4100 942 4425 
Q 1341 4750 2034 4750 
Q 2731 4750 3128 4425 
Q 3525 4100 3525 3541 
Q 3525 3141 3298 2862 
Q 3072 2584 2669 2484 
Q 3125 2378 3379 2068 
Q 3634 1759 3634 1313 
Q 3634 634 3220 271 
Q 2806 -91 2034 -91 
Q 1263 -91 848 271 
Q 434 634 434 1313 
Q 434 1759 690 2068 
Q 947 2378 1403 2484 
z
M 1172 3481 
Q 1172 3119 1398 2916 
Q 1625 2713 2034 2713 
Q 2441 2713 2670 2916 
Q 2900 3119 2900 3481 
Q 2900 3844 2670 4047 
Q 2441 4250 2034 4250 
Q 1625 4250 1398 4047 
Q 1172 3844 1172 3481 
z
" transform="scale(0.015625)"/>
       </defs>
       <use xlink:href="#DejaVuSans-38"/>
      </g>
     </g>
    </g>
    <g id="ytick_6">
     <g id="line2d_27">
      <path d="M 44.615 104.47688 
L 709.2 104.47688 
" clip-path="url(#pb4c05727a8)" style="fill: none; stroke: #b0b0b0; stroke-width: 0.8; stroke-linecap: square"/>
     </g>
     <g id="line2d_28">
      <g>
       <use xlink:href="#me8f9e50ee8" x="44.615" y="104.47688" style="stroke: #000000; stroke-width: 0.8"/>
      </g>
     </g>
     <g id="text_15">
      <!-- 10 -->
      <g transform="translate(24.89 108.276099) scale(0.1 -0.1)">
       <use xlink:href="#DejaVuSans-31"/>
       <use xlink:href="#DejaVuSans-30" transform="translate(63.623047 0)"/>
      </g>
     </g>
    </g>
    <g id="ytick_7">
     <g id="line2d_29">
      <path d="M 44.615 50.672256 
L 709.2 50.672256 
" clip-path="url(#pb4c05727a8)" style="fill: none; stroke: #b0b0b0; stroke-width: 0.8; stroke-linecap: square"/>
     </g>
     <g id="line2d_30">
      <g>
       <use xlink:href="#me8f9e50ee8" x="44.615" y="50.672256" style="stroke: #000000; stroke-width: 0.8"/>
      </g>
     </g>
     <g id="text_16">
      <!-- 12 -->
      <g transform="translate(24.89 54.471475) scale(0.1 -0.1)">
       <use xlink:href="#DejaVuSans-31"/>
       <use xlink:href="#DejaVuSans-32" transform="translate(63.623047 0)"/>
      </g>
     </g>
    </g>
    <g id="text_17">
     <!-- Distance (km) -->
     <g transform="translate(18.810313 243.21875) rotate(-90) scale(0.1 -0.1)">
      <defs>
       <path id="DejaVuSans-44" d="M 1259 4147 
L 1259 519 
L 2022 519 
Q 2988 519 3436 956 
Q 3884 1394 3884 2338 
Q 3884 3275 3436 3711 
Q 2988 4147 2022 4147 
L 1259 4147 
z
M 628 4666 
L 1925 4666 
Q 3281 4666 3915 4102 
Q 4550 3538 4550 2338 
Q 4550 1131 3912 565 
Q 3275 0 1925 0 
L 628 0 
L 628 4666 
z
" transform="scale(0.015625)"/>
       <path id="DejaVuSans-61" d="M 2194 1759 
Q 1497 1759 1228 1600 
Q 959 1441 959 1056 
Q 959 750 1161 570 
Q 1363 391 1709 391 
Q 2188 391 2477 730 
Q 2766 1069 2766 1631 
L 2766 1759 
L 2194 1759 
z
M 3341 1997 
L 3341 0 
L 2766 0 
L 2766 531 
Q 2569 213 2275 61 
Q 1981 -91 1556 -91 
Q 1019 -91 701 211 
Q 384 513 384 1019 
Q 384 1609 779 1909 
Q 1175 2209 1959 2209 
L 2766 2209 
L 2766 2266 
Q 2766 2663 2505 2880 
Q 2244 3097 1772 3097 
Q 1472 3097 1187 3025 
Q 903 2953 641 2809 
L 641 3341 
Q 956 3463 1253 3523 
Q 1550 3584 1831 3584 
Q 2591 3584 2966 3190 
Q 3341 2797 3341 1997 
z
" transform="scale(0.015625)"/>
       <path id="DejaVuSans-6b" d="M 581 4863 
L 1159 4863 
L 1159 1991 
L 2875 3500 
L 3609 3500 
L 1753 1863 
L 3688 0 
L 2938 0 
L 1159 1709 
L 1159 0 
L 581 0 
L 581 4863 
z
" transform="scale(0.015625)"/>
      </defs>
      <use xlink:href="#DejaVuSans-44"/>
      <use xlink:href="#DejaVuSans-69" transform="translate(77.001953 0)"/>
      <use xlink:href="#DejaVuSans-73" transform="translate(104.785156 0)"/>
      <use xlink:href="#DejaVuSans-74" transform="translate(156.884766 0)"/>
      <use xlink:href="#DejaVuSans-61" transform="translate(196.09375 0)"/>
      <use xlink:href="#DejaVuSans-6e" transform="translate(257.373047 0)"/>
      <use xlink:href="#DejaVuSans-63" transform="translate(320.751953 0)"/>
      <use xlink:href="#DejaVuSans-65" transform="translate(375.732422 0)"/>
      <use xlink:href="#DejaVuSans-20" transform="translate(437.255859 0)"/>
      <use xlink:href="#DejaVuSans-28" transform="translate(469.042969 0)"/>
      <use xlink:href="#DejaVuSans-6b" transform="translate(508.056641 0)"/>
      <use xlink:href="#DejaVuSans-6d" transform="translate(565.966797 0)"/>
      <use xlink:href="#DejaVuSans-29" transform="translate(663.378906 0)"/>
     </g>
    </g>
   </g>
   <g id="line2d_31">
    <path d="M 74.823409 373.5 
L 76.034167 372.645023 
L 78.455683 372.019136 
L 82.087956 371.405742 
L 88.141746 370.664361 
L 96.617051 369.872638 
L 108.72463 368.975885 
L 125.67524 367.959114 
L 148.67964 366.822414 
L 177.737829 365.617498 
L 215.271323 364.291612 
L 262.49088 362.855618 
L 320.607259 361.318448 
L 392.041973 359.660983 
L 478.005783 357.898128 
L 579.709445 356.040869 
L 678.991591 354.401253 
L 678.991591 354.401253 
" clip-path="url(#pb4c05727a8)" style="fill: none; stroke: #1f77b4; stroke-width: 1.5; stroke-linecap: square"/>
   </g>
   <g id="line2d_32">
    <path d="M 74.823409 373.5 
L 76.034167 370.796324 
L 77.244925 369.676425 
L 79.666441 368.092649 
L 82.087956 366.877374 
L 85.72023 365.388973 
L 90.563262 363.751759 
L 95.406293 362.352459 
L 101.460082 360.818637 
L 108.72463 359.193493 
L 118.410693 357.277946 
L 129.307514 355.363192 
L 142.62585 353.267544 
L 158.365703 351.041583 
L 176.527071 348.720403 
L 197.109955 346.328395 
L 220.114355 343.882716 
L 246.751028 341.281985 
L 277.019975 338.56081 
L 310.921196 335.745223 
L 348.45469 332.854842 
L 390.831216 329.820782 
L 438.050773 326.670963 
L 490.113362 323.427225 
L 547.018982 320.106683 
L 609.978392 316.658473 
L 678.991591 313.104459 
L 678.991591 313.104459 
" clip-path="url(#pb4c05727a8)" style="fill: none; stroke: #ff7f0e; stroke-width: 1.5; stroke-linecap: square"/>
   </g>
   <g id="line2d_33">
    <path d="M 74.823409 373.5 
L 76.034167 367.454397 
L 77.244925 364.950227 
L 78.455683 363.028709 
L 79.666441 361.408795 
L 82.087956 358.691358 
L 84.509472 356.400453 
L 86.930988 354.382126 
L 90.563262 351.702269 
L 94.195535 349.317589 
L 99.038567 346.463243 
L 103.881598 343.882716 
L 109.935388 340.943433 
L 115.989177 338.248382 
L 123.253724 335.264251 
L 131.729029 332.053436 
L 140.204335 329.074075 
L 149.890398 325.896877 
L 160.787219 322.558846 
L 172.894797 319.089576 
L 186.213134 315.512616 
L 200.742229 311.846708 
L 216.482081 308.106808 
L 233.432691 304.304914 
L 252.804817 300.200963 
L 273.387701 296.07851 
L 295.181343 291.940361 
L 319.396501 287.575841 
L 344.822416 283.219899 
L 372.669847 278.678427 
L 402.938794 273.976819 
L 434.418499 269.31197 
L 468.31972 264.511347 
L 504.642456 259.592117 
L 543.386708 254.568996 
L 584.552476 249.454604 
L 629.350518 244.118452 
L 676.570075 238.722376 
L 678.991591 238.451466 
L 678.991591 238.451466 
" clip-path="url(#pb4c05727a8)" style="fill: none; stroke: #2ca02c; stroke-width: 1.5; stroke-linecap: square"/>
   </g>
   <g id="line2d_34">
    <path d="M 74.823409 373.5 
L 76.034167 362.352459 
L 77.244925 357.734997 
L 78.455683 354.191893 
L 79.666441 351.204919 
L 82.087956 346.194214 
L 84.509472 341.969994 
L 86.930988 338.248382 
L 89.352504 334.883787 
L 92.984777 330.325761 
L 96.617051 326.204991 
L 100.249325 322.415552 
L 105.092356 317.762297 
L 109.935388 313.468657 
L 114.778419 309.462255 
L 120.832209 304.781945 
L 126.885998 300.400688 
L 132.939787 296.267573 
L 140.204335 291.582641 
L 147.468882 287.151522 
L 155.944187 282.253448 
L 164.419492 277.60523 
L 174.105555 272.554727 
L 183.791618 267.745145 
L 194.688439 262.583372 
L 206.796018 257.11626 
L 218.903597 251.894689 
L 232.221933 246.398482 
L 246.751028 240.661723 
L 261.280123 235.16266 
L 277.019975 229.442028 
L 293.970585 223.52518 
L 312.131953 217.434432 
L 331.50408 211.189359 
L 350.876206 205.175829 
L 371.45909 199.013391 
L 393.252731 192.717272 
L 416.257131 186.300961 
L 440.472289 179.776399 
L 465.898204 173.154163 
L 492.534877 166.443624 
L 520.382309 159.653094 
L 549.440498 152.789957 
L 580.920203 145.587995 
L 613.610665 138.342374 
L 647.511886 131.05701 
L 678.991591 124.482806 
L 678.991591 124.482806 
" clip-path="url(#pb4c05727a8)" style="fill: none; stroke: #d62728; stroke-width: 1.5; stroke-linecap: square"/>
   </g>
   <g id="line2d_35">
    <path d="M 74.823409 373.5 
L 76.034167 358.691358 
L 77.244925 352.557418 
L 78.455683 347.85068 
L 79.666441 343.882716 
L 82.087956 337.226384 
L 84.509472 331.614836 
L 86.930988 326.670963 
L 89.352504 322.20136 
L 91.774019 318.091136 
L 95.406293 312.442406 
L 99.038567 307.273741 
L 102.67084 302.480249 
L 106.303114 297.990447 
L 111.146145 292.389728 
L 115.989177 287.151522 
L 120.832209 282.213401 
L 126.885998 276.393242 
L 132.939787 270.90272 
L 138.993577 265.69146 
L 146.258124 259.752664 
L 153.522671 254.108913 
L 160.787219 248.720166 
L 169.262524 242.713617 
L 177.737829 236.971069 
L 187.423892 230.69063 
L 197.109955 224.674992 
L 208.006776 218.185655 
L 218.903597 211.95679 
L 231.011176 205.306161 
L 243.118754 198.908688 
L 256.437091 192.131919 
L 269.755428 185.5994 
L 284.284522 178.722728 
L 300.024375 171.537053 
L 315.764227 164.5984 
L 332.714837 157.374988 
L 349.665448 150.385314 
L 367.826816 143.131597 
L 387.198942 135.637992 
L 407.781826 127.926458 
L 428.36471 120.449818 
L 450.158352 112.766956 
L 473.162751 104.895566 
L 497.377909 96.851741 
L 522.803824 88.650088 
L 549.440498 80.303851 
L 576.077171 72.188714 
L 603.924602 63.932082 
L 632.982791 55.544977 
L 663.251738 47.037454 
L 678.991591 42.7 
L 678.991591 42.7 
" clip-path="url(#pb4c05727a8)" style="fill: none; stroke: #9467bd; stroke-width: 1.5; stroke-linecap: square"/>
   </g>
   <g id="patch_3">
    <path d="M 44.615 390.04 
L 44.615 26.16 
" style="fill: none; stroke: #000000; stroke-width: 0.8; stroke-linejoin: miter; stroke-linecap: square"/>
   </g>
   <g id="patch_4">
    <path d="M 709.2 390.04 
L 709.2 26.16 
" style="fill: none; stroke: #000000; stroke-width: 0.8; stroke-linejoin: miter; stroke-linecap: square"/>
   </g>
   <g id="patch_5">
    <path d="M 44.615 390.04 
L 709.2 390.04 
" style="fill: none; stroke: #000000; stroke-width: 0.8; stroke-linejoin: miter; stroke-linecap: square"/>
   </g>
   <g id="patch_6">
    <path d="M 44.615 26.16 
L 709.2 26.16 
" style="fill: none; stroke: #000000; stroke-width: 0.8; stroke-linejoin: miter; stroke-linecap: square"/>
   </g>
   <g id="text_18">
    <!-- Diffusion model (0 ≤ t ≤ 3500 h, ref=rain, delay=13.0 d) -->
    <g transform="translate(205.413437 20.16) scale(0.12 -0.12)">
     <defs>
      <path id="DejaVuSans-64" d="M 2906 2969 
L 2906 4863 
L 3481 4863 
L 3481 0 
L 2906 0 
L 2906 525 
Q 2725 213 2448 61 
Q 2172 -91 1784 -91 
Q 1150 -91 751 415 
Q 353 922 353 1747 
Q 353 2572 751 3078 
Q 1150 3584 1784 3584 
Q 2172 3584 2448 3432 
Q 2725 3281 2906 2969 
z
M 947 1747 
Q 947 1113 1208 752 
Q 1469 391 1925 391 
Q 2381 391 2643 752 
Q 2906 1113 2906 1747 
Q 2906 2381 2643 2742 
Q 2381 3103 1925 3103 
Q 1469 3103 1208 2742 
Q 947 2381 947 1747 
z
" transform="scale(0.015625)"/>
      <path id="DejaVuSans-6c" d="M 603 4863 
L 1178 4863 
L 1178 0 
L 603 0 
L 603 4863 
z
" transform="scale(0.015625)"/>
      <path id="DejaVuSans-2264" d="M 4684 3175 
L 1684 2309 
L 4684 1453 
L 4684 897 
L 678 2047 
L 678 2578 
L 4684 3725 
L 4684 3175 
z
M 678 531 
L 4684 531 
L 4684 0 
L 678 0 
L 678 531 
z
" transform="scale(0.015625)"/>
      <path id="DejaVuSans-2c" d="M 750 794 
L 1409 794 
L 1409 256 
L 897 -744 
L 494 -744 
L 750 256 
L 750 794 
z
" transform="scale(0.015625)"/>
      <path id="DejaVuSans-3d" d="M 678 2906 
L 4684 2906 
L 4684 2381 
L 678 2381 
L 678 2906 
z
M 678 1631 
L 4684 1631 
L 4684 1100 
L 678 1100 
L 678 1631 
z
" transform="scale(0.015625)"/>
      <path id="DejaVuSans-79" d="M 2059 -325 
Q 1816 -950 1584 -1140 
Q 1353 -1331 966 -1331 
L 506 -1331 
L 506 -850 
L 844 -850 
Q 1081 -850 1212 -737 
Q 1344 -625 1503 -206 
L 1606 56 
L 191 3500 
L 800 3500 
L 1894 763 
L 2988 3500 
L 3597 3500 
L 2059 -325 
z
" transform="scale(0.015625)"/>
      <path id="DejaVuSans-2e" d="M 684 794 
L 1344 794 
L 1344 0 
L 684 0 
L 684 794 
z
" transform="scale(0.015625)"/>
     </defs>
     <use xlink:href="#DejaVuSans-44"/>
     <use xlink:href="#DejaVuSans-69" transform="translate(77.001953 0)"/>
     <use xlink:href="#DejaVuSans-66" transform="translate(104.785156 0)"/>
     <use xlink:href="#DejaVuSans-66" transform="translate(139.990234 0)"/>
     <use xlink:href="#DejaVuSans-75" transform="translate(175.195312 0)"/>
     <use xlink:href="#DejaVuSans-73" transform="translate(238.574219 0)"/>
     <use xlink:href="#DejaVuSans-69" transform="translate(290.673828 0)"/>
     <use xlink:href="#DejaVuSans-6f" transform="translate(318.457031 0)"/>
     <use xlink:href="#DejaVuSans-6e" transform="translate(379.638672 0)"/>
     <use xlink:href="#DejaVuSans-20" transform="translate(443.017578 0)"/>
     <use xlink:href="#DejaVuSans-6d" transform="translate(474.804688 0)"/>
     <use xlink:href="#DejaVuSans-6f" transform="translate(572.216797 0)"/>
     <use xlink:href="#DejaVuSans-64" transform="translate(633.398438 0)"/>
     <use xlink:href="#DejaVuSans-65" transform="translate(696.875 0)"/>
     <use xlink:href="#DejaVuSans-6c" transform="translate(758.398438 0)"/>
     <use xlink:href="#DejaVuSans-20" transform="translate(786.181641 0)"/>
     <use xlink:href="#DejaVuSans-28" transform="translate(817.96875 0)"/>
     <use xlink:href="#DejaVuSans-30" transform="translate(856.982422 0)"/>
     <use xlink:href="#DejaVuSans-20" transform="translate(920.605469 0)"/>
     <use xlink:href="#DejaVuSans-2264" transform="translate(952.392578 0)"/>
     <use xlink:href="#DejaVuSans-20" transform="translate(1036.181641 0)"/>
     <use xlink:href="#DejaVuSans-74" transform="translate(1067.96875 0)"/>
     <use xlink:href="#DejaVuSans-20" transform="translate(1107.177734 0)"/>
     <use xlink:href="#DejaVuSans-2264" transform="translate(1138.964844 0)"/>
     <use xlink:href="#DejaVuSans-20" transform="translate(1222.753906 0)"/>
     <use xlink:href="#DejaVuSans-33" transform="translate(1254.541016 0)"/>
     <use xlink:href="#DejaVuSans-35" transform="translate(1318.164062 0)"/>
     <use xlink:href="#DejaVuSans-30" transform="translate(1381.787109 0)"/>
     <use xlink:href="#DejaVuSans-30" transform="translate(1445.410156 0)"/>
     <use xlink:href="#DejaVuSans-20" transform="translate(1509.033203 0)"/>
     <use xlink:href="#DejaVuSans-68" transform="translate(1540.820312 0)"/>
     <use xlink:href="#DejaVuSans-2c" transform="translate(1604.199219 0)"/>
     <use xlink:href="#DejaVuSans-20" transform="translate(1635.986328 0)"/>
     <use xlink:href="#DejaVuSans-72" transform="translate(1667.773438 0)"/>
     <use xlink:href="#DejaVuSans-65" transform="translate(1706.636719 0)"/>
     <use xlink:href="#DejaVuSans-66" transform="translate(1768.160156 0)"/>
     <use xlink:href="#DejaVuSans-3d" transform="translate(1803.365234 0)"/>
     <use xlink:href="#DejaVuSans-72" transform="translate(1887.154297 0)"/>
     <use xlink:href="#DejaVuSans-61" transform="translate(1928.267578 0)"/>
     <use xlink:href="#DejaVuSans-69" transform="translate(1989.546875 0)"/>
     <use xlink:href="#DejaVuSans-6e" transform="translate(2017.330078 0)"/>
     <use xlink:href="#DejaVuSans-2c" transform="translate(2080.708984 0)"/>
     <use xlink:href="#DejaVuSans-20" transform="translate(2112.496094 0)"/>
     <use xlink:href="#DejaVuSans-64" transform="translate(2144.283203 0)"/>
     <use xlink:href="#DejaVuSans-65" transform="translate(2207.759766 0)"/>
     <use xlink:href="#DejaVuSans-6c" transform="translate(2269.283203 0)"/>
     <use xlink:href="#DejaVuSans-61" transform="translate(2297.066406 0)"/>
     <use xlink:href="#DejaVuSans-79" transform="translate(2358.345703 0)"/>
     <use xlink:href="#DejaVuSans-3d" transform="translate(2417.525391 0)"/>
     <use xlink:href="#DejaVuSans-31" transform="translate(2501.314453 0)"/>
     <use xlink:href="#DejaVuSans-33" transform="translate(2564.9375 0)"/>
     <use xlink:href="#DejaVuSans-2e" transform="translate(2628.560547 0)"/>
     <use xlink:href="#DejaVuSans-30" transform="translate(2660.347656 0)"/>
     <use xlink:href="#DejaVuSans-20" transform="translate(2723.970703 0)"/>
     <use xlink:href="#DejaVuSans-64" transform="translate(2755.757812 0)"/>
     <use xlink:href="#DejaVuSans-29" transform="translate(2819.234375 0)"/>
    </g>
   </g>
   <g id="legend_1">
    <g id="patch_7">
     <path d="M 51.615 136.906875 
L 153.822812 136.906875 
Q 155.822812 136.906875 155.822812 134.906875 
L 155.822812 33.16 
Q 155.822812 31.16 153.822812 31.16 
L 51.615 31.16 
Q 49.615 31.16 49.615 33.16 
L 49.615 134.906875 
Q 49.615 136.906875 51.615 136.906875 
z
" style="fill: #ffffff; opacity: 0.8; stroke: #cccccc; stroke-linejoin: miter"/>
    </g>
    <g id="text_19">
     <!-- Diffusivity -->
     <g transform="translate(77.529063 42.758437) scale(0.1 -0.1)">
      <use xlink:href="#DejaVuSans-44"/>
      <use xlink:href="#DejaVuSans-69" transform="translate(77.001953 0)"/>
      <use xlink:href="#DejaVuSans-66" transform="translate(104.785156 0)"/>
      <use xlink:href="#DejaVuSans-66" transform="translate(139.990234 0)"/>
      <use xlink:href="#DejaVuSans-75" transform="translate(175.195312 0)"/>
      <use xlink:href="#DejaVuSans-73" transform="translate(238.574219 0)"/>
      <use xlink:href="#DejaVuSans-69" transform="translate(290.673828 0)"/>
      <use xlink:href="#DejaVuSans-76" transform="translate(318.457031 0)"/>
      <use xlink:href="#DejaVuSans-69" transform="translate(377.636719 0)"/>
      <use xlink:href="#DejaVuSans-74" transform="translate(405.419922 0)"/>
      <use xlink:href="#DejaVuSans-79" transform="translate(444.628906 0)"/>
     </g>
    </g>
    <g id="PathCollection_2">
     <g>
      <use xlink:href="#m7cad6af7b8" x="63.615" y="54.811562" style="fill: #1f77b4; stroke: #1f77b4"/>
     </g>
    </g>
    <g id="text_20">
     <!-- Earthquakes -->
     <g transform="translate(81.615 57.436562) scale(0.1 -0.1)">
      <defs>
       <path id="DejaVuSans-45" d="M 628 4666 
L 3578 4666 
L 3578 4134 
L 1259 4134 
L 1259 2753 
L 3481 2753 
L 3481 2222 
L 1259 2222 
L 1259 531 
L 3634 531 
L 3634 0 
L 628 0 
L 628 4666 
z
" transform="scale(0.015625)"/>
       <path id="DejaVuSans-71" d="M 947 1747 
Q 947 1113 1208 752 
Q 1469 391 1925 391 
Q 2381 391 2643 752 
Q 2906 1113 2906 1747 
Q 2906 2381 2643 2742 
Q 2381 3103 1925 3103 
Q 1469 3103 1208 2742 
Q 947 2381 947 1747 
z
M 2906 525 
Q 2725 213 2448 61 
Q 2172 -91 1784 -91 
Q 1150 -91 751 415 
Q 353 922 353 1747 
Q 353 2572 751 3078 
Q 1150 3584 1784 3584 
Q 2172 3584 2448 3432 
Q 2725 3281 2906 2969 
L 2906 3500 
L 3481 3500 
L 3481 -1331 
L 2906 -1331 
L 2906 525 
z
" transform="scale(0.015625)"/>
      </defs>
      <use xlink:href="#DejaVuSans-45"/>
      <use xlink:href="#DejaVuSans-61" transform="translate(63.183594 0)"/>
      <use xlink:href="#DejaVuSans-72" transform="translate(124.462891 0)"/>
      <use xlink:href="#DejaVuSans-74" transform="translate(165.576172 0)"/>
      <use xlink:href="#DejaVuSans-68" transform="translate(204.785156 0)"/>
      <use xlink:href="#DejaVuSans-71" transform="translate(268.164062 0)"/>
      <use xlink:href="#DejaVuSans-75" transform="translate(331.640625 0)"/>
      <use xlink:href="#DejaVuSans-61" transform="translate(395.019531 0)"/>
      <use xlink:href="#DejaVuSans-6b" transform="translate(456.298828 0)"/>
      <use xlink:href="#DejaVuSans-65" transform="translate(510.583984 0)"/>
      <use xlink:href="#DejaVuSans-73" transform="translate(572.107422 0)"/>
     </g>
    </g>
    <g id="line2d_36">
     <path d="M 53.615 68.614688 
L 63.615 68.614688 
L 73.615 68.614688 
" style="fill: none; stroke: #1f77b4; stroke-width: 1.5; stroke-linecap: square"/>
    </g>
    <g id="text_21">
     <!-- D = 0.01 m²/s -->
     <g transform="translate(81.615 72.114688) scale(0.1 -0.1)">
      <defs>
       <path id="DejaVuSans-b2" d="M 838 2444 
L 2163 2444 
L 2163 2088 
L 294 2088 
L 294 2431 
Q 400 2528 597 2703 
Q 1672 3656 1672 3950 
Q 1672 4156 1509 4282 
Q 1347 4409 1081 4409 
Q 919 4409 728 4354 
Q 538 4300 313 4191 
L 313 4575 
Q 553 4663 761 4706 
Q 969 4750 1147 4750 
Q 1600 4750 1872 4544 
Q 2144 4338 2144 4000 
Q 2144 3566 1109 2678 
Q 934 2528 838 2444 
z
" transform="scale(0.015625)"/>
       <path id="DejaVuSans-2f" d="M 1625 4666 
L 2156 4666 
L 531 -594 
L 0 -594 
L 1625 4666 
z
" transform="scale(0.015625)"/>
      </defs>
      <use xlink:href="#DejaVuSans-44"/>
      <use xlink:href="#DejaVuSans-20" transform="translate(77.001953 0)"/>
      <use xlink:href="#DejaVuSans-3d" transform="translate(108.789062 0)"/>
      <use xlink:href="#DejaVuSans-20" transform="translate(192.578125 0)"/>
      <use xlink:href="#DejaVuSans-30" transform="translate(224.365234 0)"/>
      <use xlink:href="#DejaVuSans-2e" transform="translate(287.988281 0)"/>
      <use xlink:href="#DejaVuSans-30" transform="translate(319.775391 0)"/>
      <use xlink:href="#DejaVuSans-31" transform="translate(383.398438 0)"/>
      <use xlink:href="#DejaVuSans-20" transform="translate(447.021484 0)"/>
      <use xlink:href="#DejaVuSans-6d" transform="translate(478.808594 0)"/>
      <use xlink:href="#DejaVuSans-b2" transform="translate(576.220703 0)"/>
      <use xlink:href="#DejaVuSans-2f" transform="translate(616.308594 0)"/>
      <use xlink:href="#DejaVuSans-73" transform="translate(650 0)"/>
     </g>
    </g>
    <g id="line2d_37">
     <path d="M 53.615 83.292812 
L 63.615 83.292812 
L 73.615 83.292812 
" style="fill: none; stroke: #ff7f0e; stroke-width: 1.5; stroke-linecap: square"/>
    </g>
    <g id="text_22">
     <!-- D = 0.1 m²/s -->
     <g transform="translate(81.615 86.792812) scale(0.1 -0.1)">
      <use xlink:href="#DejaVuSans-44"/>
      <use xlink:href="#DejaVuSans-20" transform="translate(77.001953 0)"/>
      <use xlink:href="#DejaVuSans-3d" transform="translate(108.789062 0)"/>
      <use xlink:href="#DejaVuSans-20" transform="translate(192.578125 0)"/>
      <use xlink:href="#DejaVuSans-30" transform="translate(224.365234 0)"/>
      <use xlink:href="#DejaVuSans-2e" transform="translate(287.988281 0)"/>
      <use xlink:href="#DejaVuSans-31" transform="translate(319.775391 0)"/>
      <use xlink:href="#DejaVuSans-20" transform="translate(383.398438 0)"/>
      <use xlink:href="#DejaVuSans-6d" transform="translate(415.185547 0)"/>
      <use xlink:href="#DejaVuSans-b2" transform="translate(512.597656 0)"/>
      <use xlink:href="#DejaVuSans-2f" transform="translate(552.685547 0)"/>
      <use xlink:href="#DejaVuSans-73" transform="translate(586.376953 0)"/>
     </g>
    </g>
    <g id="line2d_38">
     <path d="M 53.615 97.970937 
L 63.615 97.970937 
L 73.615 97.970937 
" style="fill: none; stroke: #2ca02c; stroke-width: 1.5; stroke-linecap: square"/>
    </g>
    <g id="text_23">
     <!-- D = 0.5 m²/s -->
     <g transform="translate(81.615 101.470937) scale(0.1 -0.1)">
      <use xlink:href="#DejaVuSans-44"/>
      <use xlink:href="#DejaVuSans-20" transform="translate(77.001953 0)"/>
      <use xlink:href="#DejaVuSans-3d" transform="translate(108.789062 0)"/>
      <use xlink:href="#DejaVuSans-20" transform="translate(192.578125 0)"/>
      <use xlink:href="#DejaVuSans-30" transform="translate(224.365234 0)"/>
      <use xlink:href="#DejaVuSans-2e" transform="translate(287.988281 0)"/>
      <use xlink:href="#DejaVuSans-35" transform="translate(319.775391 0)"/>
      <use xlink:href="#DejaVuSans-20" transform="translate(383.398438 0)"/>
      <use xlink:href="#DejaVuSans-6d" transform="translate(415.185547 0)"/>
      <use xlink:href="#DejaVuSans-b2" transform="translate(512.597656 0)"/>
      <use xlink:href="#DejaVuSans-2f" transform="translate(552.685547 0)"/>
      <use xlink:href="#DejaVuSans-73" transform="translate(586.376953 0)"/>
     </g>
    </g>
    <g id="line2d_39">
     <path d="M 53.615 112.649063 
L 63.615 112.649063 
L 73.615 112.649063 
" style="fill: none; stroke: #d62728; stroke-width: 1.5; stroke-linecap: square"/>
    </g>
    <g id="text_24">
     <!-- D = 1.7 m²/s -->
     <g transform="translate(81.615 116.149063) scale(0.1 -0.1)">
      <defs>
       <path id="DejaVuSans-37" d="M 525 4666 
L 3525 4666 
L 3525 4397 
L 1831 0 
L 1172 0 
L 2766 4134 
L 525 4134 
L 525 4666 
z
" transform="scale(0.015625)"/>
      </defs>
      <use xlink:href="#DejaVuSans-44"/>
      <use xlink:href="#DejaVuSans-20" transform="translate(77.001953 0)"/>
      <use xlink:href="#DejaVuSans-3d" transform="translate(108.789062 0)"/>
      <use xlink:href="#DejaVuSans-20" transform="translate(192.578125 0)"/>
      <use xlink:href="#DejaVuSans-31" transform="translate(224.365234 0)"/>
      <use xlink:href="#DejaVuSans-2e" transform="translate(287.988281 0)"/>
      <use xlink:href="#DejaVuSans-37" transform="translate(319.775391 0)"/>
      <use xlink:href="#DejaVuSans-20" transform="translate(383.398438 0)"/>
      <use xlink:href="#DejaVuSans-6d" transform="translate(415.185547 0)"/>
      <use xlink:href="#DejaVuSans-b2" transform="translate(512.597656 0)"/>
      <use xlink:href="#DejaVuSans-2f" transform="translate(552.685547 0)"/>
      <use xlink:href="#DejaVuSans-73" transform="translate(586.376953 0)"/>
     </g>
    </g>
    <g id="line2d_40">
     <path d="M 53.615 127.327187 
L 63.615 127.327187 
L 73.615 127.327187 
" style="fill: none; stroke: #9467bd; stroke-width: 1.5; stroke-linecap: square"/>
    </g>
    <g id="text_25">
     <!-- D = 3.0 m²/s -->
     <g transform="translate(81.615 130.827187) scale(0.1 -0.1)">
      <use xlink:href="#DejaVuSans-44"/>
      <use xlink:href="#DejaVuSans-20" transform="translate(77.001953 0)"/>
      <use xlink:href="#DejaVuSans-3d" transform="translate(108.789062 0)"/>
      <use xlink:href="#DejaVuSans-20" transform="translate(192.578125 0)"/>
      <use xlink:href="#DejaVuSans-33" transform="translate(224.365234 0)"/>
      <use xlink:href="#DejaVuSans-2e" transform="translate(287.988281 0)"/>
      <use xlink:href="#DejaVuSans-30" transform="translate(319.775391 0)"/>
      <use xlink:href="#DejaVuSans-20" transform="translate(383.398438 0)"/>
      <use xlink:href="#DejaVuSans-6d" transform="translate(415.185547 0)"/>
      <use xlink:href="#DejaVuSans-b2" transform="translate(512.597656 0)"/>
      <use xlink:href="#DejaVuSans-2f" transform="translate(552.685547 0)"/>
      <use xlink:href="#DejaVuSans-73" transform="translate(586.376953 0)"/>
     </g>
    </g>
   </g>
  </g>
 </g>
 <defs>
  <clipPath id="pb4c05727a8">
   <rect x="44.615" y="26.16" width="664.585" height="363.88"/>
  </clipPath>
 </defs>
</svg>
